<svg xmlns="http://www.w3.org/2000/svg" xmlns:xlink="http://www.w3.org/1999/xlink" width="211" height="212" viewBox="0 0 211 212"><defs><style>.a,.d{fill:#0075be;}.a{stroke:#707070;}.b{fill:#fff;}.c{clip-path:url(#a);}</style><clipPath id="a"><rect class="a" width="117" height="116" transform="translate(-0.234 0.27)"/></clipPath></defs><ellipse class="b" cx="105.5" cy="106" rx="105.5" ry="106"/><g class="c" transform="translate(47.234 47.73)"><g transform="translate(-0.122 0)"><path class="d" d="M28.594,8.7A13.611,13.611,0,1,0,42.2,22.311,13.61,13.61,0,0,0,28.594,8.7Zm0,23.332a9.722,9.722,0,1,1,9.722-9.722A9.722,9.722,0,0,1,28.594,32.032Zm0,0" transform="translate(45.292 26.299)"/><path class="d" d="M23.233,10.633a5.833,5.833,0,1,0,5.833,5.833A5.833,5.833,0,0,0,23.233,10.633Zm0,7.777a1.944,1.944,0,1,1,1.944-1.944A1.944,1.944,0,0,1,23.233,18.411Zm0,0" transform="translate(52.597 32.143)"/><path class="d" d="M15.016,22.3a5.833,5.833,0,1,0-5.833-5.833A5.833,5.833,0,0,0,15.016,22.3Zm0-7.778a1.944,1.944,0,1,1-1.944,1.944A1.944,1.944,0,0,1,15.016,14.522Zm0,0" transform="translate(27.76 32.143)"/><path class="d" d="M8.217,30.527c0,7.037,9.448,12.656,22.028,13.492-2.275,3.057-7.816,7.9-20.084,7.9V55.8c14.05,0,20.554-5.789,23.332-9.644,2.779,3.856,9.282,9.644,23.333,9.644V51.915c-12.325,0-17.832-4.83-20.091-7.9,12.584-.835,22.036-6.453,22.036-13.492,0-7.631-11.1-13.611-25.277-13.611S8.217,22.9,8.217,30.527Zm46.665,0c0,4.6-8.785,9.722-21.388,9.722s-21.388-5.123-21.388-9.722,8.785-9.722,21.388-9.722S54.882,25.928,54.882,30.527Zm0,0" transform="translate(24.838 51.136)"/><path class="d" d="M81.664,5.833v9.722H35V5.833A5.833,5.833,0,0,0,29.166,0H0V1.944a17.52,17.52,0,0,0,17.5,17.5h7.777V72.4l-16.5-9.9a1.944,1.944,0,1,0-2,3.332l18.5,11.1v4.733H1.944a1.944,1.944,0,1,0,0,3.889H25.277v4.472L5.169,97.335A1.945,1.945,0,0,0,6.5,100.991l18.779-6.828v12.778A9.733,9.733,0,0,0,35,116.662H81.664a9.733,9.733,0,0,0,9.722-9.722V94.163l18.779,6.828a1.945,1.945,0,0,0,1.329-3.655L91.386,90.024V85.552h23.332a1.944,1.944,0,0,0,0-3.889H91.386V76.931l18.5-11.1a1.944,1.944,0,1,0-2-3.332l-16.5,9.9V19.444h7.777a17.52,17.52,0,0,0,17.5-17.5V0H87.5a5.833,5.833,0,0,0-5.833,5.833ZM68.053,19.444v6.088l-2.809-1.872a1.946,1.946,0,0,0-2.159,0l-4.754,3.173-4.754-3.169a1.946,1.946,0,0,0-2.159,0l-2.809,1.868V19.444ZM17.5,15.555A13.633,13.633,0,0,1,4.026,3.889H29.166A1.944,1.944,0,0,1,31.11,5.833v9.722Zm70,33.054v58.331a5.833,5.833,0,0,1-5.833,5.833H35a5.833,5.833,0,0,1-5.833-5.833v-87.5H44.721v9.722a1.945,1.945,0,0,0,3.024,1.618L52.5,27.61l4.754,3.169a1.946,1.946,0,0,0,2.159,0l4.754-3.169,4.754,3.169a1.945,1.945,0,0,0,3.024-1.614V19.444H87.5ZM99.163,15.555H85.552V5.833A1.944,1.944,0,0,1,87.5,3.889h25.139A13.633,13.633,0,0,1,99.163,15.555Zm0,0"/><path class="d" d="M16.444,27.586c10.408,0,14.8-4.278,14.985-4.458a1.946,1.946,0,0,0-2.742-2.763c-.027.027-3.593,3.332-12.243,3.332a1.944,1.944,0,0,0,0,3.889Zm0,0" transform="translate(43.831 59.911)"/></g></g></svg>