<svg xmlns="http://www.w3.org/2000/svg" xmlns:xlink="http://www.w3.org/1999/xlink" width="211" height="212" viewBox="0 0 211 212"><defs><style>.a,.d{fill:#0075be;}.a{stroke:#707070;}.b{fill:#fff;}.c{clip-path:url(#a);}</style><clipPath id="a"><rect class="a" width="117" height="116" transform="translate(-0.226 0.27)"/></clipPath></defs><ellipse class="b" cx="105.5" cy="106" rx="105.5" ry="106"/><g class="c" transform="translate(47.226 47.73)"><g transform="translate(0.001 0)"><path class="d" d="M16.489,12.566A11.655,11.655,0,1,0,28.144,24.222,11.656,11.656,0,0,0,16.489,12.566Zm0,19.377c-.635-.5-1.943-3.162-1.943-7.722S15.853,17,16.489,16.5c.636.5,1.943,3.162,1.943,7.722S17.124,31.442,16.489,31.944Zm-7.77-7.722a7.721,7.721,0,0,1,2.638-5.789,24.454,24.454,0,0,0,0,11.577,7.721,7.721,0,0,1-2.638-5.789Zm12.9,5.789a24.454,24.454,0,0,0,0-11.577,7.671,7.671,0,0,1,0,11.577Zm0,0" transform="translate(14.592 37.94)"/><path class="d" d="M29.539,12.566A11.655,11.655,0,1,0,41.194,24.222,11.656,11.656,0,0,0,29.539,12.566Zm0,19.377c-.635-.5-1.943-3.162-1.943-7.722S28.9,17,29.539,16.5c.636.5,1.943,3.162,1.943,7.722S30.174,31.442,29.539,31.944Zm-7.77-7.722a7.721,7.721,0,0,1,2.638-5.789,24.454,24.454,0,0,0,0,11.577,7.721,7.721,0,0,1-2.638-5.789Zm12.9,5.789a24.454,24.454,0,0,0,0-11.577,7.671,7.671,0,0,1,0,11.577Zm0,0" transform="translate(53.991 37.94)"/><path class="d" d="M31.538,33.46a7.77,7.77,0,1,0-7.33,0c-5.378,4.187-13.4,2.947-13.5,2.93l-.637,3.832a23.348,23.348,0,0,0,3.592.249A20.289,20.289,0,0,0,27.874,35.4a20.289,20.289,0,0,0,14.211,5.066,23.348,23.348,0,0,0,3.592-.249l-.641-3.83c-.089.013-8.106,1.281-13.5-2.932ZM27.874,22.767a3.885,3.885,0,1,1-3.885,3.885,3.885,3.885,0,0,1,3.885-3.885Zm0,0" transform="translate(30.403 56.878)"/><path class="d" d="M115.689,4.211c-.02-.013-.041-.017-.061-.031A7.753,7.753,0,0,0,108.783,0c-1.764,0-3.885,1.192-6.306,3.544a13.992,13.992,0,0,0-1.653,1.943L86.56,25.642a24.609,24.609,0,0,0-4.311-.389H33.023a24.513,24.513,0,0,0-4.254.389L16.1,6.119a17.863,17.863,0,0,0-2.209-2.764A8.7,8.7,0,0,0,7.78,0,7.753,7.753,0,0,0,.925,4.18c-.02.014-.041.018-.061.031l.024.035A7.686,7.686,0,0,0,0,7.78v50.5a57.905,57.905,0,0,0,4.188,21.65L2.2,79.661l-.512,3.851,4.365.582a58.528,58.528,0,0,0,4.772,7.947L1.694,93.259l.513,3.851,11.359-1.516a58.729,58.729,0,0,0,5.564,5.809L6.957,107.018l1.628,3.528,13.833-6.383a58.081,58.081,0,0,0,71.719,0l13.833,6.383,1.628-3.528L97.43,101.4a58.73,58.73,0,0,0,5.564-5.809l11.36,1.516.512-3.851-9.129-1.218a58.533,58.533,0,0,0,4.773-7.947l4.365-.582-.513-3.851-1.989.265a57.91,57.91,0,0,0,4.18-21.648V7.78a7.686,7.686,0,0,0-.888-3.533ZM75.76,29.138v9.713a1.943,1.943,0,1,1-3.885,0V29.138Zm-15.54,0v13.6a1.943,1.943,0,0,1-3.885,0v-13.6Zm-15.54,0v9.713a1.943,1.943,0,1,1-3.885,0V29.138Zm67.989,29.138a54.04,54.04,0,0,1-4.777,22.246L85.216,83.546l.512,3.851,20.053-2.673a54.913,54.913,0,0,1-4.449,6.731l-15.6-2.081-.512,3.851,13.161,1.748a54.856,54.856,0,0,1-4.814,4.636l-9.22-4.254-1.628,3.528,7.418,3.435a54.219,54.219,0,0,1-63.726,0l7.424-3.426L32.2,95.363l-9.22,4.255a54.822,54.822,0,0,1-4.808-4.628l13.161-1.748-.512-3.85-15.6,2.063a54.914,54.914,0,0,1-4.449-6.731L30.825,87.4l.512-3.851L8.662,80.523A54.04,54.04,0,0,1,3.886,58.276V7.78c0-.043.011-.082.011-.122C7.625,9.6,14.074,21.587,17.641,29.9l3.57-1.531c-1.5-3.509-8.881-20.113-15.276-24A3.853,3.853,0,0,1,7.78,3.885c1.022,0,1.89.7,3.336,2.183a13.892,13.892,0,0,1,1.726,2.164L26.967,29.989l1.323-.3a21.326,21.326,0,0,1,4.734-.55h3.885v9.713a5.828,5.828,0,1,0,11.655,0V29.138h3.885v13.6a5.828,5.828,0,0,0,11.655,0v-13.6H67.99v9.713a5.828,5.828,0,1,0,11.655,0V29.138h2.6a21.3,21.3,0,0,1,4.732.552l1.269.289L103.985,7.731a9.977,9.977,0,0,1,1.189-1.4,8.013,8.013,0,0,1,3.609-2.445,3.838,3.838,0,0,1,1.865.5c-6.4,3.933-13.792,20.786-15.3,24.356l3.578,1.514c3.555-8.429,10-20.568,13.742-22.578,0,.037.009.069.009.106Zm0,0" transform="translate(0 0)"/></g></g></svg>