<svg xmlns="http://www.w3.org/2000/svg" xmlns:xlink="http://www.w3.org/1999/xlink" width="78" height="78" viewBox="0 0 78 78"><defs><style>.a,.c{fill:#fff;}.a{stroke:#707070;}.b{clip-path:url(#a);}</style><clipPath id="a"><rect class="a" width="78" height="78" transform="translate(560 3828)"/></clipPath></defs><g class="b" transform="translate(-560 -3828)"><g transform="translate(569.1 3828)"><path class="c" d="M70.633,0h-57.2a1.3,1.3,0,0,0-1.3,1.3V76.7a1.3,1.3,0,0,0,1.3,1.3h57.2a1.3,1.3,0,0,0,1.3-1.3V1.3A1.3,1.3,0,0,0,70.633,0Zm-1.3,75.4h-54.6V2.6h54.6Z" transform="translate(-12.133)"/><g transform="translate(40.296 62.432)"><path class="c" d="M78.483,83.66a1.3,1.3,0,0,0-1.763-.136l-7.632,6.54L68.4,88a1.3,1.3,0,0,0-2.47.822l1.3,3.9a1.3,1.3,0,0,0,.885.842,1.323,1.323,0,0,0,.352.047,1.291,1.291,0,0,0,.845-.313l9.1-7.8A1.3,1.3,0,0,0,78.483,83.66Z" transform="translate(-65.861 -83.242)"/></g><g transform="translate(24.7 5.2)"><path class="c" d="M50.267,6.933a5.2,5.2,0,1,0,5.2,5.2A5.2,5.2,0,0,0,50.267,6.933Zm0,7.8a2.6,2.6,0,1,1,2.6-2.6A2.6,2.6,0,0,1,50.267,14.733Z" transform="translate(-45.067 -6.933)"/></g><g transform="translate(7.8 20.8)"><path class="c" d="M65.433,27.733h-41.6a1.3,1.3,0,1,0,0,2.6h41.6a1.3,1.3,0,0,0,0-2.6Z" transform="translate(-22.533 -27.733)"/></g><g transform="translate(7.8 28.6)"><path class="c" d="M65.433,38.133h-41.6a1.3,1.3,0,1,0,0,2.6h41.6a1.3,1.3,0,0,0,0-2.6Z" transform="translate(-22.533 -38.133)"/></g><g transform="translate(7.8 35.1)"><path class="c" d="M65.433,46.8h-41.6a1.3,1.3,0,1,0,0,2.6h41.6a1.3,1.3,0,0,0,0-2.6Z" transform="translate(-22.533 -46.8)"/></g><g transform="translate(7.8 42.9)"><path class="c" d="M65.433,57.2h-41.6a1.3,1.3,0,1,0,0,2.6h41.6a1.3,1.3,0,0,0,0-2.6Z" transform="translate(-22.533 -57.2)"/></g><g transform="translate(7.8 49.4)"><path class="c" d="M65.433,65.867h-41.6a1.3,1.3,0,1,0,0,2.6h41.6a1.3,1.3,0,0,0,0-2.6Z" transform="translate(-22.533 -65.867)"/></g><g transform="translate(7.8 65)"><path class="c" d="M34.233,86.667h-10.4a1.3,1.3,0,1,0,0,2.6h10.4a1.3,1.3,0,0,0,0-2.6Z" transform="translate(-22.533 -86.667)"/></g><g transform="translate(9.1 70.2)"><path class="c" d="M33.367,93.6h-7.8a1.3,1.3,0,0,0,0,2.6h7.8a1.3,1.3,0,0,0,0-2.6Z" transform="translate(-24.267 -93.6)"/></g></g></g></svg>