<svg xmlns="http://www.w3.org/2000/svg" width="118.553" height="116.483" viewBox="0 0 118.553 116.483"><defs><style>.a{fill:#224e9c;}</style></defs><g transform="translate(-858.219 17.404)"><g transform="translate(858.219 -17.404)"><g transform="translate(0 0)"><g transform="translate(31.929)"><path class="a" d="M897.361,343.26l-1.044.478,1.754,4.128,1.043-.477c1.138-.522.7-1.665.3-2.6S898.5,342.738,897.361,343.26Z" transform="translate(-887.527 -334.732)"/><path class="a" d="M895.1,307.418a1.283,1.283,0,0,0-.856-.563,58.181,58.181,0,0,0-16.889-.366c-1.195.149-2.405.337-3.6.56a59.019,59.019,0,0,0-15.551,5.222,1.3,1.3,0,0,0-.659.787,1.4,1.4,0,0,0,.089,1.056l8.362,16.4a1.262,1.262,0,0,0,1.684.586,39.5,39.5,0,0,1,9.769-3.182c.8-.148,1.6-.274,2.4-.373a38.9,38.9,0,0,1,10.587.129,1.3,1.3,0,0,0,.352,0h0a1.3,1.3,0,0,0,1.107-1.062l3.413-18.162A1.392,1.392,0,0,0,895.1,307.418Zm-24.82,13.913-1.119.512,2.285,5.379-2.694,1.234-6.307-14.843,3.813-1.747c2.922-1.338,4.574.1,5.8,2.994S873.2,319.993,870.283,321.331ZM876,325.72l-2.072-16.075,6.75-.906.373,2.889-3.828.514.468,3.634,3.293-.442.372,2.889-3.293.442.486,3.77,3.828-.514.372,2.89Zm15.816-13.455-2.48-.277-1.279,13.218-2.934-.328L886.4,311.66l-2.479-.277.28-2.9,7.893.882Z" transform="translate(-857.486 -306.042)"/></g><g transform="translate(0 4.315)"><path class="a" d="M758.949,650.856l2.247,4.11-12.85,7.025,1.715,3.138,15.667-8.565-3.962-7.248Z" transform="translate(-741.121 -575.93)"/><rect class="a" width="17.855" height="3.577" transform="matrix(0.952, -0.306, 0.306, 0.952, 2.211, 74.004)"/><path class="a" d="M726.087,588.711c3.417-.354,5.753-.67,7.146-2.08a5.231,5.231,0,0,0-.235-7.4,5.828,5.828,0,0,0-4.156-1.191l.368,3.558a3.364,3.364,0,0,1,1.4.134,1.2,1.2,0,0,1,.823,1.13,1.231,1.231,0,0,1-.574,1.275c-.779.512-2.994.791-5.138,1.013s-4.37.4-5.237.06a1.231,1.231,0,0,1-.823-1.13,1.181,1.181,0,0,1,.549-1.272,3.37,3.37,0,0,1,1.344-.417l-.368-3.557a5.759,5.759,0,0,0-3.8,2.013,5.23,5.23,0,0,0,1.283,7.286C720.318,589.231,722.67,589.064,726.087,588.711Z" transform="translate(-716.43 -520.779)"/><path class="a" d="M735.361,524.667l-3.175-.471-.687,4.634-4.143-.615.591-3.986-3.175-.471-.591,3.986-3.994-.593.687-4.634-3.175-.471-1.212,8.172,17.663,2.621Z" transform="translate(-716.473 -477.466)"/><path class="a" d="M746.672,467.247l-7.986-3.517,9.519.037,1.228-2.789-16.34-7.2-1.441,3.273,7.986,3.517-9.488-.106-1.258,2.858,16.34,7.2Z" transform="translate(-726.071 -424.655)"/><path class="a" d="M817.46,366.251l6.781,17.149,3.014-2.193-1.17-2.592,3.339-2.431,2.106,1.91,3.014-2.194-14.234-11.724Zm9.525,7.738-2.24,1.63-2.776-6.168Z" transform="translate(-794.591 -355.332)"/><path class="a" d="M1018.473,340.161l1.188-4.016,3.865,1.143.911-3.078-3.865-1.143,1.146-3.872,4.492,1.329.91-3.078L1019.2,325.1l-5.065,17.121,7.923,2.343.91-3.078Z" transform="translate(-946.746 -325.104)"/><path class="a" d="M1068,354.462c1.74-2.933,1.846-5.232-1.512-7.225l-4.4-2.609-9.111,15.354,3.076,1.825,3.544-5.974,1.018.6-1.661,7.092,3.206,1.9,1.688-7.979C1065.893,357.413,1067.023,356.1,1068,354.462Zm-5.462-.617-1.3-.771,2.291-3.86,1.3.771c1.17.694.621,1.768.1,2.652S1063.7,354.539,1062.533,353.845Z" transform="translate(-976.796 -340.209)"/><path class="a" d="M1104.3,406.1l13.1-12.133-2.43-2.625-6.4,5.93,3.87-8.666-2.122-2.292-13.1,12.133,2.43,2.624,6.4-5.93-3.819,8.721Z" transform="translate(-1011.022 -372.463)"/><rect class="a" width="17.856" height="3.576" transform="matrix(0.864, -0.503, 0.503, 0.864, 94.229, 35.553)"/><path class="a" d="M1146.609,487.4a4.78,4.78,0,0,0,2.889,3.175c1.755.74,4.157.014,7.271-1.03s5.42-1.9,6.375-3.545a4.782,4.782,0,0,0,.393-4.276l-1.608-4.8L1145,482.6Zm13.412-6.064.448,1.337a1.421,1.421,0,0,1-.313,1.513c-.648.669-2.645,1.338-4.523,1.968s-3.923,1.315-4.844,1.172a1.421,1.421,0,0,1-1.161-1.018l-.448-1.338Z" transform="translate(-1047.992 -442.556)"/><path class="a" d="M1160.551,545.613l.08,3.727,2.8.52.088,4.13-2.77.638.08,3.727,17.751-4.989-.076-3.525Zm6.158,7.628-.06-2.77,6.648,1.244Z" transform="translate(-1060.022 -495.7)"/><path class="a" d="M1154.137,611.529a4.781,4.781,0,0,0,.651,4.244c1.053,1.587,3.455,2.311,6.628,3.165s5.565,1.418,7.272.573a4.782,4.782,0,0,0,2.691-3.345l1.315-4.889-17.242-4.636Zm3.12.761.366-1.362,11.042,2.969-.366,1.362a1.423,1.423,0,0,1-1.1,1.087c-.91.2-2.944-.349-4.857-.863s-4-1.074-4.683-1.7A1.421,1.421,0,0,1,1157.257,612.29Z" transform="translate(-1054.89 -542.913)"/><path class="a" d="M1129.675,659.782l2.816,1.541,2.25-4.11,3.674,2.011-1.935,3.536,2.816,1.541,1.935-3.535,3.542,1.938-2.25,4.11,2.816,1.541,3.967-7.247-15.664-8.572Z" transform="translate(-1036.134 -578.419)"/><path class="a" d="M786.763,420.456c-.964-.727-2.021-.958-2.706.193l-.384-.6a4.471,4.471,0,0,0,.656-2.772,5.824,5.824,0,0,0-2.127-3.765l-2.233,2.793a3.365,3.365,0,0,1,.9,1.078,1.2,1.2,0,0,1-.207,1.383,1.231,1.231,0,0,1-1.3.506c-.914-.182-2.688-1.537-4.372-2.884s-3.4-2.78-3.775-3.631a1.232,1.232,0,0,1,.207-1.383,1.181,1.181,0,0,1,1.284-.521,3.373,3.373,0,0,1,1.25.645l2.234-2.793a5.762,5.762,0,0,0-4.121-1.231,5.23,5.23,0,0,0-4.2,6.092c.408,1.938,2.2,3.47,4.885,5.616s4.572,3.559,6.553,3.531a4.585,4.585,0,0,0,3.239-1.267,6.1,6.1,0,0,0,1.567,1.953l.76-1c-.08-.061-.326-.278-.158-.5s.539,0,.8.194c.282.212.592.51.425.73s-.443.042-.5,0l-.76,1c.943.713,1.88.852,2.778-.578A1.97,1.97,0,0,0,786.763,420.456Z" transform="translate(-756.128 -388.796)"/></g><g transform="translate(41.999 97.852)"><path class="a" d="M908.531,756.967c-.05,0-.1,0-.152-.006h-.012a2.1,2.1,0,0,1-.592-.153,4.922,4.922,0,0,1-1.4-.884,10.375,10.375,0,0,1-1.679-1.845,13.8,13.8,0,0,1-.786-1.21,14.558,14.558,0,0,1-1.918-6.333,10.16,10.16,0,0,1,.1-2.077,7.855,7.855,0,0,1,.876-2.639,7.068,7.068,0,0,1,.722-1.056c.14-.165.268-.305.39-.428a6.541,6.541,0,0,1,2.373-1.509,8.222,8.222,0,0,1,2.57-.491h.548a7.126,7.126,0,0,1,2.678.605,5.812,5.812,0,0,1,2.354,1.816,5.666,5.666,0,0,1,1.007,2.221,6.194,6.194,0,0,1,.12,1.7,6.518,6.518,0,0,1-.192,1.173c0,.016,0,.019-.055.038a5.794,5.794,0,0,0-3.2,2.811,5.24,5.24,0,0,0-.493,1.35c-.01.046-.022.064-.083.089a15.1,15.1,0,0,1-2.1.67,4.785,4.785,0,0,0-.907.3,2.085,2.085,0,0,0-.59.4,1.288,1.288,0,0,0-.379,1.067,2.935,2.935,0,0,0,.308,1.008,12.03,12.03,0,0,0,.592,1.058c.051.084.1.168.151.252l0,.006a6.5,6.5,0,0,1,.5.962,1.315,1.315,0,0,1,.105.469.539.539,0,0,1-.337.519,1.013,1.013,0,0,1-.366.108c-.053,0-.108.007-.163.007Z" transform="translate(-901.975 -738.335)"/><path class="a" d="M952.209,783.049c-.176,0-.356-.007-.551-.021a5.767,5.767,0,0,1-1.89-.439,5.4,5.4,0,0,1-2.6-2.3,5.533,5.533,0,0,1-.68-2.069,6.466,6.466,0,0,1-.063-.759,5.209,5.209,0,0,1,.116-1.075,5.478,5.478,0,0,1,2.585-3.6,4.957,4.957,0,0,1,2.027-.689,6.112,6.112,0,0,1,.722-.043c.191,0,.385.009.579.027a4.726,4.726,0,0,1,2.455.927,4.064,4.064,0,0,1,1,1.078,4.129,4.129,0,0,1,.321.634.1.1,0,0,1,0,.074,9.149,9.149,0,0,0-.315,1.806,11.957,11.957,0,0,0-.026,1.349.147.147,0,0,1-.027.1,3.287,3.287,0,0,1-.559.625,3.47,3.47,0,0,1-1.741.795,5.884,5.884,0,0,1-.92.071,6.813,6.813,0,0,1-.753-.043l-.076-.008c-.105-.011-.205-.022-.306-.039a.569.569,0,0,0-.1-.009.335.335,0,0,0-.269.113.389.389,0,0,0-.068.333.929.929,0,0,0,.194.4,2.079,2.079,0,0,0,.9.657,3.1,3.1,0,0,0,1.152.206c.078,0,.16,0,.241-.007a6.489,6.489,0,0,0,.877-.132l.231-.045a.887.887,0,0,1,.162-.015c.032,0,.065,0,.1,0a.29.29,0,0,1,.228.146.647.647,0,0,1,.053.551,1.2,1.2,0,0,1-.366.561,3.219,3.219,0,0,1-1.479.709A5.105,5.105,0,0,1,952.209,783.049Z" transform="translate(-936.362 -764.423)"/><path class="a" d="M1022.524,782.051a9.564,9.564,0,0,1-1.705-.135,3.947,3.947,0,0,1-1.11-.346,1.745,1.745,0,0,1-.8-.763,1.394,1.394,0,0,1-.143-.686,1.958,1.958,0,0,1,.191-.755,4.576,4.576,0,0,1,.663-1,12.241,12.241,0,0,1,1.1-1.143c.115-.107.231-.212.347-.317.133-.12.271-.245.4-.371.085-.08.174-.159.26-.236a5.747,5.747,0,0,0,.564-.55,1.363,1.363,0,0,0,.249-.381.547.547,0,0,0-.3-.732,1.429,1.429,0,0,0-.493-.12c-.24-.022-.5-.039-.8-.052l-.1,0a7.756,7.756,0,0,1-1.076-.095,2.085,2.085,0,0,1-.5-.151,1.1,1.1,0,0,1-.634-.82,2.215,2.215,0,0,1,.318-1.683,2.189,2.189,0,0,1,.545-.615,1.524,1.524,0,0,1,.96-.311c.052,0,.107,0,.161.006a7.173,7.173,0,0,1,1.115.205l.241.057a11.734,11.734,0,0,1,1.984.646,10.381,10.381,0,0,1,1.571.816,3.771,3.771,0,0,1,.82.684,1.433,1.433,0,0,1,.354.632,1.475,1.475,0,0,1-.064.8,3.53,3.53,0,0,1-.365.743,9.4,9.4,0,0,1-.556.775c-.315.409-.651.815-.975,1.207l-.086.1-.183.219c-.191.229-.389.465-.569.712a3.444,3.444,0,0,0-.284.436,1.14,1.14,0,0,0-.151.521.655.655,0,0,0,.387.618,1.412,1.412,0,0,0,.587.125c.057,0,.114,0,.171,0,.272,0,.545-.026.809-.051l.106-.01.121-.013a2.3,2.3,0,0,1,.262-.02.8.8,0,0,1,.168.016.443.443,0,0,1,.28.207.352.352,0,0,1,.015.3,1.112,1.112,0,0,1-.2.328,2.9,2.9,0,0,1-.908.682,4.058,4.058,0,0,1-1.162.376A8.62,8.62,0,0,1,1022.524,782.051Z" transform="translate(-992.197 -763.438)"/><path class="a" d="M994.245,778.278l-.149,0a4.26,4.26,0,0,1-3.151-1.584,4.465,4.465,0,0,1-.658-1.22,6.54,6.54,0,0,1-.342-1.558,10.419,10.419,0,0,1-.065-1.439,9.669,9.669,0,0,1,.351-2.437,3.258,3.258,0,0,0,.085-.436,3.26,3.26,0,0,1,.1-.411l.034-.122a13.983,13.983,0,0,1,.479-1.5,5.843,5.843,0,0,1,.423-.883,1.954,1.954,0,0,1,.454-.544,1.169,1.169,0,0,1,.557-.234,1.684,1.684,0,0,1,.259-.019,3.1,3.1,0,0,1,.773.122,4.8,4.8,0,0,1,1.092.421,1.738,1.738,0,0,1,.508.389.816.816,0,0,1,.19.587,2.559,2.559,0,0,1-.19.792c-.075.2-.164.408-.25.606-.062.144-.127.292-.187.441a3.881,3.881,0,0,0-.165.49,1.124,1.124,0,0,0-.038.285.5.5,0,0,0,.39.522,1.28,1.28,0,0,0,.308.05l.289.013.326.015a1.393,1.393,0,0,1,.355.061.305.305,0,0,1,.235.266,1.5,1.5,0,0,1-.277,1.116.821.821,0,0,1-.375.259,2.158,2.158,0,0,1-.606.136l-.389,0h-.365a.5.5,0,0,0-.456.279,1.476,1.476,0,0,0-.164.613,4.692,4.692,0,0,0,.12,1.56,3.1,3.1,0,0,0,1.516,1.947c.112.064.231.132.354.191a.425.425,0,0,1,.243.327.55.55,0,0,1-.142.467,1.044,1.044,0,0,1-.256.188,2.337,2.337,0,0,1-.759.218A3.568,3.568,0,0,1,994.245,778.278Z" transform="translate(-969.981 -759.651)"/></g><path class="a" d="M976.03,593.138" transform="translate(-917.268 -528.152)"/><g transform="translate(32.432 27.791)"><path class="a" d="M937.655,451.136A11.158,11.158,0,1,0,926.5,439.978,11.158,11.158,0,0,0,937.655,451.136Z" transform="translate(-911.379 -428.82)"/><path class="a" d="M968.26,576.385a1.4,1.4,0,1,1,.834,1.909A1.477,1.477,0,0,1,968.26,576.385Zm10.078,7.645a2.493,2.493,0,0,1-2.433,1.819,3.046,3.046,0,0,1-.67-.076,1.614,1.614,0,0,0-3.012,0,3.048,3.048,0,0,1-.67.076,2.493,2.493,0,0,1-2.433-1.819.632.632,0,0,1,1.232-.281,1.289,1.289,0,0,0,1.595.791c1.063-.238,1.112-1.582,1.11-1.862a1.818,1.818,0,0,1-1.388-1.568c0-.628.922-.942,2.059-.942s2.059.314,2.059.942a1.818,1.818,0,0,1-1.388,1.567c0,.277.041,1.623,1.111,1.862a1.29,1.29,0,0,0,1.594-.791.632.632,0,1,1,1.232.282Zm.028-5.736a1.559,1.559,0,1,1,.834-1.909A1.477,1.477,0,0,1,978.366,578.294Z" transform="translate(-943.621 -542.134)"/><path class="a" d="M969.062,586.827a24.824,24.824,0,0,0,.648-7.95l-.017-.355a.675.675,0,0,0-.694-.635.666.666,0,0,0-.635.695l.018.362c.113,2.218.412,8.11-2.624,11.3a8.735,8.735,0,0,1-11.562,0c-3.035-3.193-2.736-9.084-2.624-11.3l.018-.364a.666.666,0,0,0-.635-.695.674.674,0,0,0-.695.635l-.017.356a25.144,25.144,0,0,0,.6,7.774,17.343,17.343,0,0,0,.729,2.015,9.241,9.241,0,0,0,1.66,2.5,10.049,10.049,0,0,0,13.492,0,9.214,9.214,0,0,0,1.635-2.44C968.651,588.011,969.062,586.827,969.062,586.827Z" transform="translate(-929.699 -544.145)"/><path class="a" d="M890.534,575.5a3.419,3.419,0,0,0,2.222.589,2.243,2.243,0,0,0,1.191-.407,4.6,4.6,0,0,0,.611-6.325c-4.134-5.9-16.983-9.676-24.323-10.4a.775.775,0,0,1-.682-.922c.469-2.4.868-4.536,1.2-6.395a.774.774,0,0,1,.707-.636h0a.776.776,0,0,1,.821.912c-.244,1.359-.523,2.87-.838,4.518a1.013,1.013,0,0,0,.816,1.188c.755.135,1.577.316,2.238.4a58.022,58.022,0,0,1,6.5,1.67.285.285,0,0,0,.355-.247,22.831,22.831,0,0,0,.083-2.652.3.3,0,0,0-.408-.261,4.133,4.133,0,0,1-1.5.366,5.07,5.07,0,0,1-2.659-.845,5.744,5.744,0,0,1-2.36-3.855,13.165,13.165,0,0,1,1.919-9.2,15.828,15.828,0,0,1,7.424-5.619,17.72,17.72,0,0,1,12.8.082,15.957,15.957,0,0,1,6.443,4.546c.061.083.124.165.183.25a13.323,13.323,0,0,1,2.406,9.944,7.632,7.632,0,0,1-.6,1.805l-.081.155s-2.416,3.878-6.24,1.978a.381.381,0,0,0-.554.3,9.29,9.29,0,0,0,.494,3.9.513.513,0,0,0,.7.294,42.035,42.035,0,0,1,5.656-2.133.675.675,0,0,1,.846.5.7.7,0,0,1-.5.807,90.716,90.716,0,0,0-11.852,4.949.713.713,0,0,0-.026,1.235c2.407,1.509,3.318,4.315,3.725,5.579a.8.8,0,0,0,1.133.452,97.026,97.026,0,0,1,10.9-4.985,4.387,4.387,0,0,0,2.929-5.312c-2.509-10.549-3.722-16.7-3.731-16.789a4.384,4.384,0,0,0-2.649-3.571,26.779,26.779,0,0,0-2.822-1.426,17.671,17.671,0,0,0-6.081-3.817,18.99,18.99,0,0,0-13.582.006c-.533.2-1.047.429-1.546.671a37.893,37.893,0,0,0-15.605,4.475c-.116.067-.235.126-.355.185-1.266.615-1.73,1.672-2.43,3.323-.031.072-1.812,5.095-3.649,17.389a3.564,3.564,0,0,0,1.118,3.325,4.3,4.3,0,0,0,3.11,1.1h0a33.344,33.344,0,0,1,7.68.521,44.28,44.28,0,0,1,16.4,6.729Z" transform="translate(-859.708 -510.865)"/><path class="a" d="M958.159,699.1a5.017,5.017,0,0,0,6.744,5.683l.867-.384-.8-.736a26.061,26.061,0,0,0-5.91-4.105Z" transform="translate(-935.794 -637.925)"/></g></g></g></g></svg>