<svg xmlns="http://www.w3.org/2000/svg" xmlns:xlink="http://www.w3.org/1999/xlink" width="143" height="143" viewBox="0 0 143 143"><defs><style>.a,.d{fill:#fff;}.a{stroke:#707070;}.b{fill:#224e9c;}.c{clip-path:url(#a);}</style><clipPath id="a"><rect class="a" width="86" height="86" transform="translate(1246.883 4414.699)"/></clipPath></defs><g transform="translate(-1228 -3762)"><circle class="b" cx="71.5" cy="71.5" r="71.5" transform="translate(1228 3762)"/><g class="c" transform="translate(10.117 -623.699)"><g transform="translate(1247 4415.018)"><path class="d" d="M80.127,55.653H77.275a1.426,1.426,0,0,1-1.426,1.426,1.4,1.4,0,0,1-1.108-.57,6.784,6.784,0,0,0,2.534-5.134,2.752,2.752,0,0,0-.757-2.034,4.114,4.114,0,0,0-3.156-.819h-.73a4.091,4.091,0,0,0-3.156.82,2.752,2.752,0,0,0-.757,2.032,6.784,6.784,0,0,0,2.534,5.134,1.4,1.4,0,0,1-1.108.57,1.426,1.426,0,0,1-1.426-1.426H65.867A4.26,4.26,0,0,0,73,58.819a4.26,4.26,0,0,0,7.13-3.166ZM73,54.227c-.458-.061-1.418-1.66-1.426-2.826a8.7,8.7,0,0,1,1.038-.026h.776a8.7,8.7,0,0,1,1.038.027C74.41,52.567,73.451,54.166,73,54.227Z" transform="translate(-14.528 -11.445)"/><rect class="d" width="2.852" height="2.852" transform="translate(24.243 58.469)"/><rect class="d" width="2.852" height="2.852" transform="translate(24.243 64.173)"/><rect class="d" width="2.852" height="2.852" transform="translate(24.243 69.877)"/><path class="d" d="M10.6,41.971h4.278v2.852A1.426,1.426,0,0,0,16.3,46.249H43.4a1.426,1.426,0,0,0,1.426-1.426V37.148l2.064-1.031a1.426,1.426,0,0,0,.585-2.011L43.4,27.315V10.6a7.139,7.139,0,0,0-7.13-7.13H19.153a9.994,9.994,0,0,0-9.982,9.982V30.562H4.893a1.426,1.426,0,0,0-1.426,1.426V34.84a7.139,7.139,0,0,0,7.13,7.13Zm33.637-7.716-1.475.736a1.426,1.426,0,0,0-.789,1.276v1.112l-5.419-1.084-.57,2.8,5.989,1.2V43.4H17.727V19.153H40.545V27.71a1.426,1.426,0,0,0,.2.734Zm-32.211-20.8a7.139,7.139,0,0,1,7.13-7.13H36.266A4.278,4.278,0,0,1,40.545,10.6v5.7H37.692V12.023H34.84V16.3H31.988V12.023H29.136V16.3H26.284V12.023H23.432V16.3H20.58V12.023H17.727V16.3H16.3a1.426,1.426,0,0,0-1.426,1.426v4.421a7.065,7.065,0,0,0-2.852,1.319ZM14.875,25.1V33.17a4.278,4.278,0,0,1,0-8.069ZM6.319,33.414h4.31a7.12,7.12,0,0,0,4.247,2.71v2.995H10.6A4.278,4.278,0,0,1,6.319,34.84Z" transform="translate(-3.467 -3.467)"/><path class="d" d="M82.278,49.345a4.278,4.278,0,0,0,4.278-4.278H83.7a1.426,1.426,0,1,1-2.852,0H78A4.278,4.278,0,0,0,82.278,49.345Z" transform="translate(-16.679 -10.841)"/><path class="d" d="M64.945,49.345a4.278,4.278,0,0,0,4.278-4.278H66.371a1.426,1.426,0,0,1-2.852,0H60.667A4.278,4.278,0,0,0,64.945,49.345Z" transform="translate(-13.606 -10.841)"/><path class="d" d="M4.893,71a1.454,1.454,0,0,0,.235-.02l7.09-1.181,2.668,21.343A1.426,1.426,0,0,0,16.3,92.39H41.971a1.426,1.426,0,0,0,1.415-1.249l2.7-21.568h3.552l.893,21.451a1.426,1.426,0,0,0,1.426,1.366h7.13a1.426,1.426,0,0,0,1.426-1.426v-7.13h2.852v7.13a1.426,1.426,0,0,0,1.426,1.426H87.6a1.426,1.426,0,0,0,1.426-1.426V59.59a1.426,1.426,0,0,0-1.887-1.349,19.394,19.394,0,0,1-6.67,1.349,5.857,5.857,0,0,1-5.644-3.015l2.764-13.813a1.426,1.426,0,0,0-.121-.917L74.9,36.688c1.764-4.789,3.909-12.393.492-14.034-1.283-.616-4.931-.826-11.4,9.84H59.882c-6.469-10.668-10.125-10.457-11.4-9.84-3.423,1.641-1.272,9.245.492,14.034L46.391,41.84a1.426,1.426,0,0,0-.121.917l2.282,11.409-3.1-1.534a1.4,1.4,0,0,0-.627-.171H13.449a1.392,1.392,0,0,0-.777.261L4.1,58.4a1.426,1.426,0,0,0-.635,1.186v9.982A1.426,1.426,0,0,0,4.893,71ZM70.55,89.538H66.214v-27.1H63.362V80.981H60.509V62.442H57.657v27.1H53.321L52.013,58.164H71.858Zm9.924-27.1a19.239,19.239,0,0,0,5.7-.891V89.538H73.4l1.205-28.912a9.372,9.372,0,0,0,5.865,1.817ZM74.117,25.2c.713.76-.067,5.231-1.64,9.781l-5.535-1.845C70,28.341,73.2,25.047,74.117,25.2Zm-24.4.023a.374.374,0,0,1,.091-.01c1.055,0,4.163,3.27,7.13,7.919L51.4,34.976C49.821,30.43,49.041,25.962,49.713,25.222Zm1.825,12.712,7.776-2.587h5.242l7.776,2.591,2.369,4.74L72.175,55.312H51.7L49.169,42.678ZM46.249,56.193l2.889,1.445.378,9.083H46.249ZM35.18,55.312,30.046,59.59h-1.82l-5.134-4.278Zm2.513,1.619v4.958l-4.251-1.416Zm-17.113,0,4.251,3.542L20.58,61.889Zm-5.7-1.619h2.852v8.556a1.426,1.426,0,0,0,1.426,1.426,1.4,1.4,0,0,0,.451-.074l8.335-2.778h2.393l8.335,2.778a1.4,1.4,0,0,0,.451.074,1.426,1.426,0,0,0,1.426-1.426V55.312H43.4V68.058L40.711,89.538H17.561L14.875,68.058ZM6.319,60.353l5.7-3.8V66.939l-5.7.95Z" transform="translate(-3.467 -6.826)"/><path class="d" d="M38.945,30.893a1.426,1.426,0,0,1-1.426-1.426H34.667a4.278,4.278,0,0,0,8.556,0H40.371A1.426,1.426,0,0,1,38.945,30.893Z" transform="translate(-8.997 -8.076)"/><rect class="d" width="5.143" height="2.852" transform="matrix(0.555, -0.832, 0.832, 0.555, 17.357, 32.019)"/><rect class="d" width="5.143" height="2.852" transform="matrix(0.555, -0.832, 0.832, 0.555, 23.063, 32.02)"/></g></g></g></svg>