<svg xmlns="http://www.w3.org/2000/svg" width="490.035" height="1029.524" viewBox="0 0 490.035 1029.524"><defs><style>.a{fill:#bf1313;}.b{fill:#ea2d24;}.c{fill:#fcf0da;}.d{fill:#e5bb8c;}.e{fill:#edd29d;}.f{fill:#eaedf3;}.g{fill:#f6d19f;}.h{fill:#e5a78f;}.i{fill:#fab609;}.j{fill:#ea8d07;}.k{fill:#213a8f;}.l{fill:#152d72;}.m{fill:#f44a4a;}</style></defs><g transform="translate(-257.18 -250.986)"><path class="a" d="M436.286,888.123s.527-27.424,22.676-46.409l7.383,12.657s-12.656,16.349-11.6,29Z" transform="translate(41.289 136.178)"/><path class="a" d="M478.471,980.073s-1.582,15.821-12.657,28.477-14.24,32.7-13.184,43.244-.821,23.316-8.585,16.4,1.2-60.7,1.2-60.7l16.875-52.209Z" transform="translate(42.348 162.359)"/><path class="b" d="M556.41,992.65s8.253,23.891,8.687,46.044,0,62.549,12.163,65.589,12.6-4.778,8.253-15.2-8.687-18.244-6.081-29.538,0-23.021,4.778-33.011,19.111-47.346,14.769-69.5Z" transform="translate(68.98 162.762)"/><path class="a" d="M556.41,991.417a189.529,189.529,0,0,1,7.8,34.226q1.262-4.913,2.729-9.774a12.078,12.078,0,0,1,1.81-4.052c1.275-1.627,3.256-2.5,5.119-3.391a69.343,69.343,0,0,0,22.05-16.8c2.483-9.87,4.206-20.3,3.807-29.25-7.758,3.972-15.449,8.142-23.19,12.2Z" transform="translate(68.98 163.994)"/><path class="c" d="M577.26,1098.567c12.162,3.041,12.6-4.778,8.253-15.2-.85-2.042-1.7-3.981-2.5-5.867a43.218,43.218,0,0,0-10.937,7.2c-4.219-6.855-3.692-34.805-.528-50.626s3.165-51.682,3.165-51.682l-12.2-.564-6.1,5.105s8.253,23.891,8.687,46.044S565.1,1095.526,577.26,1098.567Z" transform="translate(68.98 168.478)"/><path class="d" d="M556.442,987.028l.048.141.035.1.048.144.071.219.033.1a192.007,192.007,0,0,1,7.312,31.69l.014.1q.109.816.212,1.637v0q1.262-4.913,2.729-9.774a12.078,12.078,0,0,1,1.81-4.052c1.275-1.627,3.256-2.5,5.119-3.391.133-.064.261-.137.393-.2.449-11.584.45-21.35.45-21.35l-12.2-.564-6.1,5.105.018.054Z" transform="translate(68.98 168.478)"/><path class="b" d="M472.791,862.077s-44.305,16.506-52.124,45.174,2.606,66.893,12.6,97.733,8.686,52.558,8.686,52.558-14.333,36.486-9.121,40.83,13.464,2.606,16.505-8.687,2.606-40.83,5.647-48.649,19.113-31.708,18.244-54.73S472.791,862.077,472.791,862.077Z" transform="translate(37.057 140.872)"/><path class="a" d="M420.668,906.79c-7.819,28.669,2.606,66.892,12.6,97.733s8.686,52.558,8.686,52.558-14.333,36.486-9.121,40.83a8.657,8.657,0,0,0,9.535,1.283c1.068-9.652,2.321-23.626,1.843-32.7-.791-15.03,4.724-46.905-7.975-86.55-15.012-46.87,2.2-54.559,5.859-30.393,0-35.936,19.37-69.868,24.886-85.471C454.7,869.66,426.728,884.568,420.668,906.79Z" transform="translate(37.057 141.333)"/><path class="c" d="M470.648,973.312c-.353-9.369-.491-31.69-.53-54.867L440.577,937.41s11.075,26.369,16.348,41.135-8.438,43.244-10.02,55.373,2.637,21.094-2.636,30.587c-2.521,4.537-7.45,3.168-11.909.5-2.679,9.139-4.563,18.321-2.107,20.368,5.211,4.344,13.464,2.606,16.505-8.687s2.606-40.83,5.647-48.649S471.517,996.334,470.648,973.312Z" transform="translate(39.635 153.866)"/><g transform="translate(468.75 1089.513)"><path class="e" d="M440.52,939.209q.258-3.348.656-6.785l-2.747,1.763S439.239,936.117,440.52,939.209Z" transform="translate(-426.968 -932.424)"/><path class="e" d="M431.549,1058.823a9.41,9.41,0,0,0,.864.468c.078.036.159.059.236.093a8.835,8.835,0,0,0,.943.351c.057.017.114.027.171.043a8.715,8.715,0,0,0,1.053.229c.032,0,.063,0,.095.01a8.468,8.468,0,0,0,1.159.078h.025a8.517,8.517,0,0,0,3.692-.889h0c.626-5.658,1.313-12.8,1.68-19.57-2.6,1.018-5.969-.205-9.108-2.081-.122.416-.24.832-.359,1.248-.049.174-.1.348-.149.522-.1.364-.2.727-.3,1.089-.062.223-.123.446-.182.667-.09.335-.175.667-.261,1-.064.246-.129.495-.191.74-.079.311-.153.62-.228.928-.063.261-.127.522-.187.779-.069.294-.133.584-.2.874q-.089.4-.172.783c-.059.278-.114.551-.17.824s-.1.525-.153.782-.095.517-.14.772-.087.51-.127.759-.076.487-.111.726-.068.491-.1.731-.054.449-.078.667c-.026.239-.046.47-.064.7-.016.206-.033.41-.044.607-.012.225-.018.44-.025.655,0,.183-.01.369-.01.545,0,.209.011.405.02.6.007.161.012.326.026.479.017.191.044.367.07.544.02.135.034.278.06.4.036.174.082.327.128.485.032.107.058.223.094.321a3.51,3.51,0,0,0,.208.433c.038.072.069.154.111.219a2.128,2.128,0,0,0,.421.485,10.022,10.022,0,0,0,1.043.762C431.378,1058.734,431.465,1058.772,431.549,1058.823Z" transform="translate(-429.115 -908.189)"/></g><path class="f" d="M395.111,1032.071s-1.208,14.9.8,24.962,4.429,20.937-9.261,22.95-17.314,4.43-29.795,12.08-32.614,14.092-50.33,6.442,1.207-14.9,11.676-22.548,33.419-16.911,37.847-28.184,5.235-31,5.235-31Z" transform="translate(9.7 176.533)"/><path class="e" d="M361.288,1016.771s-.8,19.729-5.235,31-27.379,20.534-37.847,28.184-29.392,14.9-11.676,22.548c.6.259,1.2.5,1.8.724,4.453-9.33,13.682-16.2,23.034-21.16,11.145-5.91,23.379-10.328,32.614-18.922,2.142-1.994,4.2-4.257,6.944-5.265a17.907,17.907,0,0,1,7.094-.593l17.423.881c-1.329-9.8-.331-22.1-.331-22.1Z" transform="translate(9.7 176.533)"/><path class="f" d="M490.5,1024.356s1.208,14.9-.8,24.964-4.43,20.938,9.26,22.95,17.314,4.429,29.8,12.079,32.614,14.093,50.33,6.443-1.208-14.9-11.676-22.548-33.419-16.911-37.849-28.185-5.233-31-5.233-31Z" transform="translate(53.24 174.755)"/><path class="e" d="M579.061,1090.8a104.5,104.5,0,0,1-37.819-13.805c-6.068-3.677-12.118-8.481-14.024-15.315-1.676-6,.776-12.692,5.4-16.788a17.2,17.2,0,0,1-3.057-4.832c-4.429-11.274-5.233-31-5.233-31l-33.822,15.3s1.208,14.9-.8,24.964-4.43,20.938,9.26,22.95,17.314,4.429,29.8,12.079S561.351,1098.437,579.061,1090.8Z" transform="translate(53.24 174.755)"/><path class="g" d="M594.442,346.5s32.433,18.195,40.344,82.269-11.866,183.524-8.7,208.837,18.984,49.046,11.865,121.032-17.4,105.21-15.821,137.643c0,0-11.854,21.465-27.674,7.227s-2.962-36.525-25.325-91.87C558.722,785.885,535.9,707.22,541.442,655.8s-18.195-151.091-44.3-194.6C543.814,371.813,594.442,346.5,594.442,346.5Z" transform="translate(55.318 22.018)"/><path class="h" d="M569.129,802.244c22.364,55.345,9.5,77.631,25.325,91.87a22.867,22.867,0,0,0,3.623,2.685c-7.914-44.9-8.962-104.619-21.187-148.816-18.512-66.927-1.424-146.67-4.271-190.814s-19.636-113.825-19.636-113.825l-13.947-56.089c-13.322,16.381-27.788,37.536-41.893,64.552,26.1,43.508,49.836,143.18,44.3,194.6S558.722,776.49,569.129,802.244Z" transform="translate(55.318 31.413)"/><path class="b" d="M500.67,826.994s28.1-28.119,43.772-55.374c24.259-42.189,20.04-95.453,30.059-103.364s17.4,1.582,16.349,14.24,3.165,120.24-90.707,171.394Z" transform="translate(56.009 95.525)"/><path class="a" d="M573.1,668.987c-8.252,11.722-5.62,61.738-28.654,101.8-15.672,27.255-43.772,55.374-43.772,55.374l-.527,26.9a168.406,168.406,0,0,0,22.791-14.9c3.151-13.32,8.038-26.357,13.477-38.931,10.037-23.211,22.052-45.7,29.126-69.981A198.38,198.38,0,0,0,573.1,668.987Z" transform="translate(56.009 96.36)"/><path class="i" d="M557.308,986.963c-1.59-59.623-9.993-105.486-9.993-105.486s6.316-99.37,19.329-174.281-14.021-195.683-14.021-195.683l-75.889,5.214-.313-6.8L319.794,498.857s-17.4,124.987,1.581,202.51S354.6,881.726,354.6,881.726s-4.746,47.463-1.581,109.165-4.747,150.3-4.747,150.3,15.47,23.732,59.769,11.075c0,0-4.4-53.791,13.008-120.24s-1.581-156.629,6.329-204.091c4.511-27.064,11.593-71.613,16.847-104.911,7.916,32.589,19.218,78.914,26.17,106.475,11.568,45.863-.47,133,22.052,197.213S514.718,1142.9,514.718,1142.9c45.275,12.23,58.915-10.7,58.915-10.7S558.9,1046.586,557.308,986.963Z" transform="translate(12.754 57.141)"/><path class="j" d="M477.983,995.33c22.524,64.209,22.272,116.186,22.272,116.186,45.275,12.23,58.915-10.7,58.915-10.7s-14.737-85.611-16.325-145.234c-.493-18.5-1.643-35.673-2.994-50.565-23.917-41.487-67.875-123.072-74.727-173.331-5.92-43.412-8.149-54.827-8.987-57.271,4.047-2.555,31.812-20.668,30.345-36.073-1.582-16.612-15.821,34.412-50.628,24.127s-71.195-20.171-57.747-9.887,49.046,21.358,49.046,21.358l2.608,17.7c7.916,32.589,19.218,78.914,26.17,106.475C467.5,843.98,455.461,931.121,477.983,995.33Z" transform="translate(27.217 88.522)"/><path class="j" d="M552.623,511.514l-75.889,5.214-.313-6.8L319.794,498.857s-17.4,124.987,1.581,202.51S354.6,881.726,354.6,881.726s-4.746,47.463-1.581,109.165-4.747,150.3-4.747,150.3,15.47,23.732,59.769,11.075c0,0-1.362-16.695.438-42.965-31.956-55.59-32.716-146.9-26.983-192.768,6.329-50.628-15.821-153.465-15.821-153.465L428.6,820.526c3.116-18.906,7.108-43.809,10.862-67.444L343.525,568.47s17.4,7.91,85.434,17.4C485.833,593.809,541.591,554.2,558.352,541,555.186,522.97,552.623,511.514,552.623,511.514Z" transform="translate(12.754 57.141)"/><path class="h" d="M643.515,829.5s6.329,23.732,5.537,29.269-6.329,10.81-8.966,6.592-5.8-18.986-5.8-18.986Z" transform="translate(86.933 133.362)"/><path class="k" d="M634.786,428.769c-7.911-64.075-40.344-82.269-40.344-82.269s-50.628,25.313-97.3,114.7c7.643,12.737,15.08,30.293,21.641,50.038,17.258-11.583,62.9-37.42,117.647-30.021C636.975,461.97,636.646,443.838,634.786,428.769Z" transform="translate(55.318 22.018)"/><path class="l" d="M498.905,454.845c.3.54.609,1.083.913,1.638.165.3.329.6.492.908.284.527.568,1.057.852,1.6q.247.469.493.946.441.849.879,1.719c.148.29.294.581.442.875q.509,1.023,1.016,2.073c.1.2.194.4.292.6q1.338,2.789,2.658,5.745c.079.177.158.358.236.535q.537,1.207,1.068,2.439c.1.241.208.484.311.725q.508,1.187,1.013,2.4c.1.23.192.46.288.693q.541,1.305,1.078,2.637c.064.16.129.319.193.48,1.745,4.35,3.453,8.889,5.113,13.583.033.095.066.192.1.287q.578,1.639,1.148,3.3l.094.271q.6,1.765,1.2,3.555a195.678,195.678,0,0,1,42.324-21.263c-4.3-21.377-8.125-37.238-8.125-37.238l-13.947-56.089q-3.727,4.583-7.564,9.671l-.126.17q-1.159,1.539-2.325,3.132l-.34.463q-1.107,1.514-2.221,3.071l-.305.427q-2.547,3.573-5.12,7.377c-.028.041-.055.082-.084.124q-1.176,1.741-2.358,3.535c-.2.3-.392.6-.589.9q-.947,1.445-1.9,2.924-.349.545-.7,1.091-.938,1.469-1.875,2.972c-.213.342-.427.682-.641,1.026q-1.194,1.923-2.39,3.9l-.09.148q-1.253,2.073-2.508,4.207c-.21.358-.421.724-.632,1.084q-.916,1.567-1.831,3.164c-.283.495-.567.994-.85,1.494q-.821,1.447-1.642,2.919-.441.792-.884,1.591c-.566,1.025-1.132,2.064-1.7,3.107-.261.48-.521.955-.78,1.439q-1.226,2.283-2.449,4.621c.447.744.892,1.509,1.338,2.285C498.622,454.34,498.764,454.594,498.905,454.845Z" transform="translate(55.318 31.413)"/><path class="k" d="M489.114,287.642S322.36,306.883,284.8,373.768s29.319,141.1,35.732,180.5S410.318,612.9,470.79,606.49,563.329,590,566.077,563.427s-5.5-41.231,4.581-55.89,17.408-16.492,33.9-41.23S665.03,435.155,668.7,420.5,670.528,313.3,489.114,287.642Z" transform="translate(3.742 8.45)"/><path class="l" d="M382.757,335.035s30.778,100.95,132.958,29.546l-17.236-52.937Z" transform="translate(28.949 13.983)"/><path class="g" d="M546.358,929.157c-2.569-8.854-2-16.279-2.284-29.7s-10.281-31.414-17.706-39.7C521.114,853.9,510,840.9,503.953,833.792c-8.876-20.456-18.305-40.3-26.673-74.468-10.995-44.9-26.571-71.465-52.226-113.612s-36.649-105.366-40.313-170.419-40.314-147.512-88.875-122.775c0,0-59.176,39.459-31.152,180.5,11.911,58.638,40.579,102.717,57.723,126.44,14.678,20.31,26.019,46.113,46.728,76.962,44.895,66.885,96.2,105.367,109.947,130.1a36.577,36.577,0,0,0,2.2,3.463c1.675,17.232-.053,42.074,2.5,48.035,3.427,8,15.993,12.279,15.993,12.279,5.14,5.712,10,3.712,10,3.712,1.142,9.425,5.711,17.136,9.71,23.418s5.14,17.421,8.567,13.994-2.571-22.275-2.856-33.985,4.283-29.985,4.283-29.985a51.861,51.861,0,0,1,6,16.277C537.506,933.726,548.929,938.011,546.358,929.157Z" transform="translate(0 22.369)"/><path class="h" d="M444.34,800.962c-38.966-49.221-38.966-90.238-79.984-149.714S294.627,503.585,313.085,419.5c4.872-22.2,17.9-39.389,34.42-52.676-14.342-16.789-32.017-24.3-51.639-14.3,0,0-59.176,39.459-31.152,180.5,11.911,58.638,40.579,102.717,57.723,126.44,14.678,20.31,26.019,46.113,46.728,76.962,44.895,66.885,96.2,105.367,109.947,130.1a36.577,36.577,0,0,0,2.2,3.463c1.675,17.232-.053,42.074,2.5,48.035A14.439,14.439,0,0,0,486.459,922a86.05,86.05,0,0,1-.928-13.864c.581-15.339,8.8-31.828,3.475-43.97C479.58,842.667,462.638,824.075,444.34,800.962Z" transform="translate(0 22.37)"/><path class="k" d="M264.164,531.4c12.641-12.46,54.558-44.651,124.363-10.335a360.206,360.206,0,0,1-2.238-47.352c1.6-73.507-38.983-149.988-87.543-125.25C298.745,348.46,237.391,392.5,264.164,531.4Z" transform="translate(0.051 21.376)"/><path class="l" d="M309.4,506.678c-3.434-28.649-2.686-58.158,3.684-87.179,4.872-22.2,17.9-39.389,34.42-52.676-14.342-16.789-32.017-24.3-51.639-14.3,0,0-58.424,38.987-31.652,177.886A90.788,90.788,0,0,1,309.4,506.678Z" transform="translate(0.003 22.37)"/><path class="l" d="M489.114,287.642S322.36,306.883,284.8,373.768c-27.288,48.585.535,101.034,20.263,141.2a259.413,259.413,0,0,1,4.285-81.548C327.8,349.333,463.16,337.028,463.16,337.028l44.223-46.463C501.5,289.516,495.426,288.535,489.114,287.642Z" transform="translate(3.741 8.45)"/><path class="g" d="M569.533,783.6s-4.774,39.666,4.774,47.011,55.827,1.1,62.07,5.877,10.283,27.179,16.16,29.015,8.814,5.877,8.08-9.916a91.783,91.783,0,0,0-6.244-28.648s-14.323-24.24-20.2-26.812S569.533,783.6,569.533,783.6Z" transform="translate(71.73 122.782)"/><path class="h" d="M652.538,865.506c.793.247,1.528.535,2.213.808l-3.51-12.442s8.976-1.282,3.526-15.385-29.81-21.156-42.632-37.5c-2.157-2.75-4.33-5.656-6.457-8.584-17.382-4.341-36.145-8.8-36.145-8.8s-4.774,39.666,4.774,47.011,55.827,1.1,62.07,5.877S646.661,863.67,652.538,865.506Z" transform="translate(71.73 122.782)"/><path class="g" d="M569.028,773.455s-1.837,42.237,11.018,51.787,41.5,8.08,49.95,15.058,16.9,18.363,22.036,11.386-4.774-16.528-16.159-24.976S613.1,797.7,599.512,789.248A276.434,276.434,0,0,0,569.028,773.455Z" transform="translate(71.868 120.442)"/><path class="a" d="M582.2,830.288l-39.223,6.25s5.819,15.732,17.241,20.042Z" transform="translate(65.883 133.544)"/><path class="a" d="M634.422,845.349l26.723,11.638s-6.681,12.715-30.6,12.93Z" transform="translate(86.07 137.016)"/><path class="b" d="M575.111,1033.916l-2.377,7.13s56.242-11.882,63.372-56.242,1.585-67.332,10.3-80.006,21.361-7.3,33.227-33.409l6.327.791s3.956-42.716-42.716-46.671-60.12,20.567-64.075,41.925h3.955s-11.075,37.179-35.6,49.045c0,0-29.268-56.165-75.149-47.463s-49.045,68.03-22.941,114.7c13.837,24.74,40.682,48.688,67.662,56.724C541.013,1047.567,565.432,1040.617,575.111,1033.916Z" transform="translate(40.534 132.345)"/><path class="a" d="M572.807,1032.317l.084-.018c.089-.02.218-.049.379-.087l.058-.014c.066-.015.144-.033.22-.053l.111-.026.338-.084.033-.007.39-.1.073-.019.412-.107.112-.029.476-.127.086-.023c.177-.048.363-.1.555-.153l.07-.02.61-.171.073-.021c.219-.063.447-.129.68-.2l.042-.012q.362-.105.746-.221l.037-.011q.393-.12.809-.249l.01,0c14.248-4.433,47.691-18,55.822-49.389a89.417,89.417,0,0,1-19.671,9.4q1.763-3.736,3.524-7.471l-8.767,5.321q.724-6,1.446-11.993l-11,10.9a34.637,34.637,0,0,1-.392-11.406l-10.851,9.871-.554-8.866c-9.161,22.376-32.5,37.626-56.641,38.989s-48.2-10.335-63.675-28.912-29.4-54.541-28.311-78.693c.708-15.677,7.424-28.48,17.9-40.168a72.548,72.548,0,0,1,5.291-5.264c-24.549,9.535-33.318,36.511-29.424,66.242a135.793,135.793,0,0,0,15.532,45.885c13.837,24.74,40.682,48.688,67.662,56.724,23.918,7.125,48.336.175,58.016-6.526l-2.377,7.13Z" transform="translate(40.534 141.057)"/><g transform="translate(476.426 1081.174)"><path class="c" d="M524.044,994.815c-51.742-6.9-78.13-47.495-88.691-69.168a133.158,133.158,0,0,0,13.541,34.889c13.837,24.74,40.682,48.688,67.662,56.724,20.664,6.155,41.694,1.8,53.277-3.813C563.683,1005.651,550.487,998.34,524.044,994.815Z" transform="translate(-435.353 -925.647)"/><path class="c" d="M546.719,1000.2l-.161.483s.124-.026.361-.08C546.855,1000.464,546.787,1000.33,546.719,1000.2Z" transform="translate(-409.717 -908.461)"/></g><path class="e" d="M520.167,1018.221a73.792,73.792,0,0,0,9.941,1.646v-18.361c-23.641.817-47.04-10.773-62.2-28.971a86.74,86.74,0,0,1-7.637-10.761,144.377,144.377,0,0,1-24.919-36.127h0q.5,2.191,1.093,4.386l.018.065q.581,2.161,1.245,4.323l.046.145q.655,2.126,1.389,4.245c.025.073.05.146.076.219q.725,2.088,1.528,4.168c.036.092.073.184.108.276q.8,2.056,1.669,4.1c.043.1.089.2.132.3q.875,2.034,1.819,4.052c.043.094.09.187.134.281q.958,2.034,1.989,4.045c.032.063.065.125.1.187q1.063,2.064,2.2,4.1c13.837,24.74,40.682,48.688,67.662,56.724,1.055.314,2.109.593,3.164.852Z" transform="translate(41.073 155.527)"/><path class="c" d="M667.509,864.615c-10.04-15.276-24.661-18.213-24.661-18.213-.194-7.592-5.059-16.8-12-19.875-.374-.165-.754-.315-1.137-.459-1.516-.231-3.085-.423-4.724-.561-3.2-.272-6.23-.4-9.127-.411a28.179,28.179,0,0,0-7.042,2.414c-6.791,3.4-12.122,9.336-15.583,16.1a4.542,4.542,0,0,1-4.474,3.253A43.155,43.155,0,0,0,561.99,862.53c-.42,1.643-.783,3.281-1.082,4.9h3.955a112.265,112.265,0,0,1-5.711,14.359,23.49,23.49,0,0,1,2.682-.332c4.208-1.686,8.29-1.808,10.811,1.907,7.077,10.43,12.292,14.155,11.174,22.35-1.08,7.923-11.563,56.929-25.724,72.288-3.063,6.916-.9,6.943-6.829,11.6,4.121-1.085,1.458,3.021,4.607.149-3.943,8.241-9.054,16.154-16.313,21.7s-16.949,8.44-25.75,5.993c-2.322,8.484-2.338,18.141,1.462,25.851,17.957,1.074,34.132-4.221,41.579-9.377l-2.377,7.13s56.242-11.882,63.372-56.242c5.445-33.88,3.5-55.276,6.161-69.146q.133-.688.282-1.352c.015-.068.028-.138.044-.206.1-.453.213-.9.327-1.333.015-.055.028-.114.043-.171.128-.473.262-.935.406-1.389l.014-.047a23.7,23.7,0,0,1,3.021-6.363c8.713-12.674,21.361-7.3,33.227-33.409l6.327.791A42.727,42.727,0,0,0,667.509,864.615Z" transform="translate(58.792 132.347)"/><path class="e" d="M554.548,1011.14l.084-.019c.089-.02.218-.049.379-.087l.058-.014c.066-.015.144-.033.22-.053l.111-.026.338-.084.033-.007.39-.1.073-.018.412-.107.112-.03.476-.127.086-.023c.177-.048.363-.1.555-.153l.07-.02.61-.171.073-.021c.219-.063.447-.129.68-.2l.042-.012q.362-.105.746-.221l.037-.011q.393-.12.809-.249l.01,0c14.248-4.433,47.691-18,55.822-49.39a89.421,89.421,0,0,1-19.671,9.4q1.763-3.736,3.524-7.471l-8.767,5.321q.723-6,1.446-11.993l-11,10.9a34.638,34.638,0,0,1-.392-11.406l-10.851,9.871q-.277-4.434-.554-8.866c-9.161,22.376-32.5,37.626-56.641,38.989-.47.027-.941.039-1.411.057-.673,6.434.07,13.03,2.819,18.607a81.528,81.528,0,0,0,19.069-1.133l.025,0c1.933-.344,3.8-.751,5.584-1.2l.085-.022q1.327-.336,2.591-.708l.063-.018q1.22-.36,2.377-.745l.135-.044q1.144-.384,2.225-.79l.26-.1q.995-.378,1.931-.77l.166-.069c.642-.273,1.258-.551,1.854-.832l.345-.165c.548-.265,1.078-.53,1.582-.8.041-.021.085-.042.126-.064.527-.282,1.023-.567,1.5-.853.111-.065.22-.132.327-.2.468-.287.919-.573,1.334-.861l-2.377,7.13Z" transform="translate(58.793 162.234)"/><path class="c" d="M638.594,862.368" transform="translate(87.926 140.939)"/><path class="b" d="M534.441,981.774s-4.778,28.233-3.909,46.042-11.294,47.78-10.859,65.589,5.647,27.8-3.475,27.8-17.375-3.041-8.253-32.144c4.425-14.116-1.738-46.042-3.909-59.942s-.434-6.081.869-29.538-14.334-40.4-4.344-51.255S539.653,936.165,534.441,981.774Z" transform="translate(55.332 159.304)"/><path class="a" d="M516.2,1120.41a9.128,9.128,0,0,0,1.66-.141,69.776,69.776,0,0,1-5.916-21.022c-.824-7.292-.421-14.658-.156-21.992.468-12.964.5-25.938.534-38.911.033-12.941.063-25.933-1.688-38.757-2.462-18.033-18.247-47.185-7.806-54.1a17.479,17.479,0,0,0-2.264,2.044c-9.991,10.859,5.647,27.8,4.344,51.255s-3.041,15.638-.869,29.538,8.334,45.826,3.909,59.943C498.822,1117.369,507.075,1120.41,516.2,1120.41Z" transform="translate(55.332 160.1)"/><path class="m" d="M604.27,827.852c-7.543-.647-11.206,2.585-11.206,2.585l10.776,4.311,10.559-2.155S612.259,828.093,604.27,827.852Z" transform="translate(77.43 132.963)"/><path class="l" d="M550.655,552.6c-13.1,6.492-67.3,30.975-110.957,15.361-43.244-15.821-50.364-35.6-57.219-86.752s-20.04-82.8-46.409-88.6-12.921,8.7-1.318,12.921,32.17,30.587,34.279,44.3c1.042,6.772,2.289,37.517,6.592,67.767,4.41,31,11.866,61.438,11.866,61.438,27.164,6.807,45.486,6.42,72.371,3.569C509.212,577.369,539.638,569.689,550.655,552.6Z" transform="translate(14.672 32.337)"/><path class="g" d="M399.48,327.605s-1.943,32.254,17.1,31.478c0,0,15.155,20.984,29.923,22.54s17.1,8.161,17.1,8.161,3.5,8.939,12.825,5.829,8.161-4.664,8.55-12.047,33.81-16.711,33.81-16.711,14.768-1.167,13.99-19.82-22.54-61.4-69.563-52.851S399.48,327.605,399.48,327.605Z" transform="translate(32.791 9.701)"/><path class="i" d="M458.592,259.35S435.444,248.623,419.637,265s-12.986,32.746-12.986,32.746-28.793,27.1,4.516,58.715c0,0-1.128,22.018,12.986,25.405s25.97-16.372,25.97-16.372,14.46,37.4,64.36,23.147c15.809-4.517,11.291-25.405,11.291-25.405s26.535-6.775,16.937-42.907c0,0,10.163-25.97-18.065-40.649C524.646,279.674,498.676,232.251,458.592,259.35Z" transform="translate(31.793 0)"/><path class="j" d="M525.775,362.131a26.767,26.767,0,0,0,15.768-13.4c-8.47,6.017-19.991,8.136-28.97,3.123-2.2,12.517-18.218,19.03-30.064,14.424S463.4,349.213,461.168,336.7c-7.169,12.759-28.078,12.876-37.193,1.425s-6.182-29.677,4.469-39.714l-8.829-15.77,15.223-23.993-1.13-2.89a28.846,28.846,0,0,0-14.072,8.137c-15.809,16.372-12.986,32.746-12.986,32.746s-28.793,27.1,4.516,58.715c0,0-1.128,22.018,12.986,25.405s25.97-16.372,25.97-16.372,14.46,37.4,64.36,23.147C530.292,383.019,525.775,362.131,525.775,362.131Z" transform="translate(31.793 1.1)"/><path class="l" d="M634.725,403.994c-16.809,1.032-29.549,14.731-42.381,25.637-40.417,34.353-95.881,46.515-148.9,45.056-15.369-.423-30.873-1.921-45.441-6.842s-28.237-13.505-37.184-26.011q4.221,26.522,10.937,52.566c1.2,4.653,1.931,21,4.936,24.75,4.5,5.616,33.611,20.467,40.607,22.149,45.052,10.837,72.05-15.5,115.918-30.422,2.133-.726,4.36-1.491,6.588-1.163,2.826.418,4.942,2.47,6.374,5.024-.65-10.463-1.776-18.751.655-26.5,1.148,3.183,8.952-13.073,15.491-22.354,7.96-11.3,22.479-21.523,32.638-30.891s22.743-16.681,36.48-18.177c2.841-.309,5.794-.391,8.366-1.638s4.655-4.1,3.922-6.863C642.8,404.824,638.334,403.773,634.725,403.994Z" transform="translate(23.89 35.266)"/><path class="c" d="M563.957,668.256c-7.895,6.234-6.959,40.631-18.074,75.578,7.2,4.8,15.412,8.834,23.818,10.1,10.869-34.948,10.077-65.1,10.6-71.441C581.36,669.838,573.977,660.346,563.957,668.256Z" transform="translate(66.553 95.525)"/><path class="e" d="M549.565,745.308c2-5.285,3.842-10.628,5.427-16.065a198.38,198.38,0,0,0,7.559-60.256c-6.41,9.1-6.258,41.314-16.664,74.015C547.083,743.8,548.316,744.562,549.565,745.308Z" transform="translate(66.554 96.36)"/><path class="c" d="M525,1014.857" transform="translate(61.739 176.092)"/><path class="c" d="M518.4,1076.574c-.4-16.517,10.023-43.489,10.845-61.525-2,6.885-9.062,31.445-11.766,44.063-3.164,14.766-2.637,23.2-2.637,23.2l-11.038.77c-3.885,19.031,3.293,21.288,11.121,21.288C524.048,1104.374,518.836,1094.384,518.4,1076.574Z" transform="translate(56.603 176.136)"/><path class="e" d="M648.5,872.648a38.292,38.292,0,0,0-4.4-3.72,36.915,36.915,0,0,0-7.746-4.29c-2.279-.92-5.775-2.443-8.283-2.2a24.726,24.726,0,0,1,14.474,3.066c-3.644-5.529-5.158-6.624-11.327-8.918-7.451-2.77-3.981,6.032-24.127,4.746-18.59-1.186-16.373-9.282-22.551-7.936a115.88,115.88,0,0,0-22.792,7.508,15.952,15.952,0,0,1,9.639,2.525,49.158,49.158,0,0,0-20.1,9.863c-.3.655-.6,1.32-.925,2a23.49,23.49,0,0,1,2.682-.332c4.208-1.686,8.29-1.808,10.811,1.907,5.177,7.63,9.345,11.675,10.779,16.5a56.259,56.259,0,0,0,7.621,5.182,39.955,39.955,0,0,0,19.234,4.318,61.647,61.647,0,0,0,16.485-2.221,20.917,20.917,0,0,1,1.379-2.353C627.072,887.074,637.881,889.994,648.5,872.648Z" transform="translate(67.585 138.837)"/><path class="e" d="M515.821,1091.678q.4-.035.765-.1a69.775,69.775,0,0,1-5.916-21.022c-.023-.2-.036-.4-.057-.6l-6.808.475v0c-1.7,8.322-1.281,13.436.38,16.556l0,.006c.117.221.241.432.37.632l.006.01a7.761,7.761,0,0,0,2.336,2.334c.02.012.039.027.06.039.155.1.314.19.474.277l.134.071q.229.12.465.225l.166.071c.155.066.311.132.471.19.055.021.112.039.169.059a12.365,12.365,0,0,0,1.624.439c.074.015.146.032.22.046.139.026.281.047.421.069.111.019.221.036.333.052l.393.049c.128.014.256.028.385.041s.244.023.365.033c.145.011.29.021.437.03l.335.02q.253.011.509.018c.091,0,.181.007.272.009.263.006.527.01.791.01.309,0,.6-.014.874-.037Z" transform="translate(56.603 188.793)"/><path class="a" d="M548.3,893.684l-.078-.365a47.843,47.843,0,0,1-12.914,9.465,119.017,119.017,0,0,0-12.476-18.29,91.4,91.4,0,0,1-36.807,22.968,56.525,56.525,0,0,0,26.934,2.066l-12.134,9.026A74.67,74.67,0,0,0,548.3,893.684Z" transform="translate(52.753 146.04)"/></g></svg>