<svg xmlns="http://www.w3.org/2000/svg" xmlns:xlink="http://www.w3.org/1999/xlink" width="143" height="143" viewBox="0 0 143 143"><defs><style>.a,.d{fill:#fff;}.a{stroke:#707070;}.b{fill:#224e9c;}.c{clip-path:url(#a);}</style><clipPath id="a"><rect class="a" width="81" height="81" transform="translate(560 3900.214)"/></clipPath></defs><g transform="translate(-541 -3327)"><circle class="b" cx="71.5" cy="71.5" r="71.5" transform="translate(541 3327)"/><g class="c" transform="translate(12 -542.214)"><g transform="translate(560.002 3899.977)"><path class="d" d="M86.335,76.086H83.627a1.354,1.354,0,0,1-1.354,1.354,1.332,1.332,0,0,1-1.052-.542,6.444,6.444,0,0,0,2.406-4.874,2.613,2.613,0,0,0-.719-1.931,3.9,3.9,0,0,0-2.995-.777h-.7a3.883,3.883,0,0,0-2.995.778,2.613,2.613,0,0,0-.719,1.929A6.444,6.444,0,0,0,77.91,76.9a1.332,1.332,0,0,1-1.052.542A1.354,1.354,0,0,1,75.5,76.086H72.8a4.044,4.044,0,0,0,6.769,3.006,4.044,4.044,0,0,0,6.769-3.006Zm-6.769-1.354c-.435-.058-1.344-1.576-1.354-2.683a8.256,8.256,0,0,1,.986-.024h.737a8.565,8.565,0,0,1,.986.026C80.906,73.156,80,74.674,79.565,74.732Z" transform="translate(-18.641 -17.865)"/><path class="d" d="M71.063,65.863h2.708v2.708H71.063Z" transform="translate(-18.262 -17.119)"/><path class="d" d="M88.4,65.863H91.1v2.708H88.4Z" transform="translate(-22.055 -17.119)"/><path class="d" d="M29.19,3.466H26.482a4.062,4.062,0,0,0-4.062,4.062,1.354,1.354,0,0,1-1.354,1.354H7.528a4.062,4.062,0,0,0-4.062,4.062V45.437A1.354,1.354,0,0,0,4.82,46.791H29.19a1.354,1.354,0,0,0,1.354-1.354V35.824a6.769,6.769,0,0,0,0-13.268V4.82A1.354,1.354,0,0,0,29.19,3.466ZM27.836,44.083H6.174V19.713H27.836Zm0-27.078H6.174V12.944A1.354,1.354,0,0,1,7.528,11.59H21.067a4.062,4.062,0,0,0,4.062-4.062,1.354,1.354,0,0,1,1.354-1.354h1.354ZM33.252,29.19a4.07,4.07,0,0,1-2.708,3.83V25.36a4.07,4.07,0,0,1,2.708,3.83Z" transform="translate(-3.466 -3.462)"/><path class="d" d="M12.133,27.732H14.84V30.44H12.133Z" transform="translate(-5.363 -8.773)"/><path class="d" d="M27.732,27.732H30.44V30.44H27.732Z" transform="translate(-8.778 -8.773)"/><path class="d" d="M20.8,31.2h2.708v5.416H20.8Z" transform="translate(-7.26 -9.532)"/><path class="d" d="M27.4,45.659V42.952A1.354,1.354,0,0,0,26.051,41.6H15.22a1.354,1.354,0,0,0-1.354,1.354v2.708a6.769,6.769,0,0,0,13.539,0Zm-2.708,0a4.062,4.062,0,0,1-8.123,0V44.305H24.7Z" transform="translate(-5.743 -11.808)"/><path class="d" d="M41.375,96.243V67.812A5.416,5.416,0,0,0,35.959,62.4H4.82A1.354,1.354,0,0,0,3.466,63.75V96.243A1.354,1.354,0,0,0,4.82,97.6h35.2A1.354,1.354,0,0,0,41.375,96.243ZM21.9,65.1h.812l1.883,7.53-5.654-1.615Zm-3.027,0-1.871,3.742L15.134,65.1Zm-7.582,0h.812l2.957,5.915L9.41,72.635ZM30.544,94.89H6.174V65.1H8.5l-2.288,9.15a1.354,1.354,0,0,0,1.313,1.682,1.378,1.378,0,0,0,.371-.051l9.106-2.6,9.106,2.6a1.378,1.378,0,0,0,.371.051A1.354,1.354,0,0,0,27.8,74.254L25.508,65.1h5.036Zm8.123,0H33.252V65.1h2.708a2.708,2.708,0,0,1,2.708,2.708Z" transform="translate(-3.466 -16.36)"/><path class="d" d="M19.066,81.462h2.708V84.17H19.066Z" transform="translate(-6.881 -20.533)"/><path class="d" d="M19.066,88.4h2.708V91.1H19.066Z" transform="translate(-6.881 -22.051)"/><path class="d" d="M19.066,95.328h2.708v2.708H19.066Z" transform="translate(-6.881 -23.568)"/><path class="d" d="M96.242,70.384c-3.385,0-4.823-1.126-5.326-1.669l1.237-6.183a1.354,1.354,0,0,0-.115-.871l-2.445-4.89C91.266,52.225,93.3,45,90.06,43.446c-1.219-.582-4.683-.783-10.823,9.342h-3.9c-6.136-10.12-9.6-9.928-10.823-9.342-3.241,1.558-1.206,8.779.467,13.325L62.53,61.656a1.354,1.354,0,0,0-.115.871l5.263,29.731A1.354,1.354,0,0,0,69.029,93.4H96.242A1.354,1.354,0,0,0,97.6,92.046V71.738a1.354,1.354,0,0,0-1.354-1.354ZM88.851,45.858c.677.722-.064,4.966-1.556,9.286l-5.254-1.752C84.938,48.84,88,45.709,88.851,45.858Zm-23.168.022a.362.362,0,0,1,.087-.009c1,0,3.951,3.1,6.769,7.518L67.285,55.14C65.788,50.825,65.046,46.582,65.683,45.879Zm1.882,28.567-2.4-11.994,2.249-4.5,7.383-2.46h4.977l7.383,2.46,2.249,4.5-1.821,9.1a3.607,3.607,0,0,1-3.53,2.895ZM94.888,90.693H83.144l2.215-7.752-2.6-.742-2.427,8.494H77.287V81.215H74.58v9.477h-4.4L68.04,77.154H84.057a6.323,6.323,0,0,0,6.185-5.07l.083-.406a10.243,10.243,0,0,0,4.564,1.361Z" transform="translate(-16.363 -12.163)"/><path class="d" d="M67.547,28.05a1.354,1.354,0,0,0,1.69,0l6.837-5.467a5.908,5.908,0,0,0,1.851-4.391,5.908,5.908,0,0,0-1.851-4.385,5.931,5.931,0,0,0-7.7-.739,5.98,5.98,0,0,0-7.667.739,6.111,6.111,0,0,0,.068,8.827ZM62.537,15.814a3.89,3.89,0,0,1,2.514-1.083,3.528,3.528,0,0,1,2.421,1.083,1.354,1.354,0,0,0,1.86-.016,3.344,3.344,0,0,1,4.919.03,3.2,3.2,0,0,1,.968,2.384,3.192,3.192,0,0,1-.9,2.327L68.391,25.26l-5.857-4.678a3.42,3.42,0,0,1,0-4.768Z" transform="translate(-15.59 -5.326)"/><path class="d" d="M48.723,31.239a1.343,1.343,0,0,0,1.354.644l7.869-1.1a14.885,14.885,0,1,0-5.353-6.235l-3.8,5.195a1.354,1.354,0,0,0-.068,1.495Zm6.634-7.186a12.039,12.039,0,0,1-1.411-5.694,12.213,12.213,0,1,1,5.115,9.91,1.354,1.354,0,0,0-.787-.252,1.227,1.227,0,0,0-.187.014l-5.222.73,2.4-3.274a1.354,1.354,0,0,0,.1-1.434Z" transform="translate(-13.33 -3.461)"/></g></g></g></svg>