<svg xmlns="http://www.w3.org/2000/svg" width="452.592" height="459.695" viewBox="0 0 452.592 459.695"><defs><style>.a{fill:#0095db;}.b{fill:#e5a78f;}.c{fill:#152d72;}.d{fill:#d8c67c;}.e{fill:#bf1313;}.f{fill:#ea8d07;}.g{fill:#f79f2b;}.h{fill:#fab609;}.i{fill:#213a8f;}.j{fill:#f6d19f;}.k{fill:#ea2d24;}.l{fill:#f7ebad;}.m{fill:#2e4166;}.n{fill:#edd29d;}.o{fill:#475b8b;}.p{fill:#fcf0da;}.q{fill:#1d1d1b;}</style></defs><g transform="translate(-379 -2728.063)"><path class="a" d="M490.691,176.427a84.747,84.747,0,0,0-51.933,28.731c-10.91,12.849-17.74,28.583-26.7,42.859-18.9,30.1-48,38.928-82.4,38.065-21.589-.541-43.142-4.028-64.688-2.563-18.883,1.284-38.5,7.982-47.008,26.286-8.54,18.379-3.26,41.022,6.652,57.753,17.125,28.907,45.992,47.636,70.132,70.044,19.895,18.468,37.776,41.7,40,68.758,1.2,14.621-2.284,29.186-3.111,43.833-1.573,27.856,13.551,50.091,38.843,61.565,18.987,8.612,40.476,10.018,61.295,8.892,54.022-2.923,107.864-22.95,147.145-60.152,27.205-25.766,46.743-59.929,54.288-96.694a164.054,164.054,0,0,0,1.351-57.952c-3.259-21.425-9.338-43.218-5.192-64.97,3.126-16.4,11.857-30.935,21.568-44.25,8.312-11.4,16.53-25.266,15.2-39.9-1.254-13.779-11.968-22.147-23.224-28.634-26.518-15.285-54.752-27.376-83.288-38.447-19.522-7.574-39.85-14.793-60.773-13.972A79.013,79.013,0,0,0,490.691,176.427Z" transform="translate(165.325 2552.448)"/><g transform="translate(283.92 2370.02)"><path class="b" d="M312.569,571.567s21.675-3.335,35.431,21.675,38.349,64.609,38.349,64.609-1.667-8.337,7.086-27.511,12.088-36.681,11.255-52.521c.833-6.253,15.423-9.587,16.256,1.667s.417,52.521,2.918,72.112,6.669,63.359-34.6,69.195-82.949-117.13-82.949-117.13S292.144,586.156,312.569,571.567Z" transform="translate(-28.766 -60.244)"/><path class="c" d="M348,593.242c-13.755-25.01-35.431-21.675-35.431-21.675-20.425,14.589-6.253,32.1-6.253,32.1s2.2,6.5,6.1,16.434l26.7-6.812,15.98-7.477C352.556,601.4,350.146,597.145,348,593.242Z" transform="translate(-28.766 -60.244)"/><g transform="translate(394.821 749.731)"><path class="d" d="M505.724,980.6a150.818,150.818,0,0,0,37.284,4.539c20.416-.154,40.177-1.734,44.624-17.714s-19.3-18.284-28.152-20.172-34.7,6.126-46.025,7.28-33.452,7.814-8.08,24.917" transform="translate(-493.676 -946.963)"/><path class="e" d="M599.732,948.057c-1.6,7.813-2.348,19.7.761,36.41,12.4-1.665,22.327-5.894,25.319-16.647C629.946,952.962,609.707,949.928,599.732,948.057Z" transform="translate(-531.857 -947.362)"/></g><path class="f" d="M412.443,791.888s42.671-28.217,69.856-32,70.2-4.818,82.245,13.421,1.72,47.833,1.72,47.833L406.248,872.412l-25.464-43.7Z" transform="translate(-57.676 -128.167)"/><path class="g" d="M425.168,822.937l11.7,17.55L395.23,865.952l-18.238-6.882Z" transform="translate(-56.292 -151.99)"/><path class="h" d="M243.229,856.03s-18.787,23.732,4.944,66.744,71.139,33.923,124.039,23.541S480.285,929.991,505,882.529s9.65-54.679-.732-62.59-69.819-15.125-95.528-1.777-47.848,36.88-98.771,39.351S243.229,856.03,243.229,856.03Z" transform="translate(-4.925 -147.542)"/><path class="f" d="M505,903.62a182.158,182.158,0,0,0,8.16-17.67l-42.48,24.033c-13.608,7.7-27.277,15.427-41.863,21.06-32.364,12.5-68.436,14.152-102.421,7.177-10.746-2.206-21.522-5.342-30.614-11.48s-16.371-15.685-17.622-26.584c17.28-2.083,34.828-4.237,50.845-11.048,10.693-4.548,20.736-11.51,27.874-20.546-12.719,5.215-27.784,9.114-46.91,10.042-50.923,2.472-66.744-1.483-66.744-1.483s-18.787,23.732,4.944,66.744,71.139,33.923,124.039,23.541S480.285,951.082,505,903.62Z" transform="translate(-4.925 -168.633)"/><path class="i" d="M268.023,572.155s-43.016-3.137-45.256,47.945c-1.788,40.759,21.771,72.906,20.427,95.759s-11.017,63.312-11.017,63.312,0-5.377,30.022-4.929,73.486,13.891,108.885-41.672L344.2,687.313a36.413,36.413,0,0,0,.448-37.639c-11.65-20.164-33.607-32.262-31.366-51.082S303.87,569.018,268.023,572.155Z" transform="translate(0 -60.315)"/><g transform="translate(222.669 511.675)"><path class="c" d="M237.683,898.04a.669.669,0,0,0-.048.2Z" transform="translate(-228.128 -691.06)"/><path class="c" d="M344.2,687.528a36.413,36.413,0,0,0,.448-37.639q-.529-.915-1.085-1.807c-9.657,8.091-25.318,7.918-36.647,1.536-12.875-7.253-21.233-20.384-28.137-33.449L254.1,600.177c-.89-5.834,2.415-11.672,6.983-15.409s10.254-5.774,15.817-7.743a56.936,56.936,0,0,0-6.735-4.821c-.709.052-1.411.1-2.141.165,0,0-43.016-3.137-45.256,47.945-1.788,40.759,21.771,72.906,20.427,95.759-1.29,21.929-10.247,60.064-10.97,63.111.359-.971,3.442-5.124,29.974-4.728,7.163.107,15.092.953,23.494,1.425,11.223-17.315,29.024-30.837,48.259-39.012,7.511-3.192,15.385-5.77,22.118-10.382A42.436,42.436,0,0,0,363.486,720Z" transform="translate(-222.669 -572.205)"/></g><path class="j" d="M306.067,527.463l-1.9,26.548S314.735,568.1,318.8,575.954l-17.337,6.5s-7.585-24.11-36.03-26.007c0,0,12.191-13.274,11.919-36.843Z" transform="translate(-15.598 -41.344)"/><path class="b" d="M306.067,527.463l-28.716-7.857c.271,23.569-11.919,36.843-11.919,36.843a42.878,42.878,0,0,1,17.6,4.847c2.4-1.43,5.283-3.178,6.792-4.185,2.868-1.911,2.108-18.422,2.108-18.422l13.183,2.126Z" transform="translate(-15.598 -41.344)"/><path class="j" d="M264.52,494.087s27.816,7.823,39.7,4.057,5.5-21.731,6.954-26.367,3.767-6.085.29-9.852-6.664,1.159-11.01-4.926S290.018,430.922,268,433.24s-30.714,22.6-29.265,31.583S247.715,489.452,264.52,494.087Z" transform="translate(-5.803 -9.772)"/><path class="b" d="M264.52,494.138s27.816,7.823,39.7,4.057a9.344,9.344,0,0,0,5.743-4.774c-3.134,1.627-11.79,4.89-20.149-3.089-7.918-7.559-19.924-36.66-20.526-57.139-.426.029-.849.051-1.287.1-22.021,2.318-30.714,22.6-29.265,31.583S247.715,489.5,264.52,494.138Z" transform="translate(-5.803 -9.823)"/><path class="k" d="M283.359,434.435,260.6,449.606s14.358,11.378,7.585,26.548l-1.626,9.481s5.96,7.585.813,15.712c0,0,4.064,4.335-3.251,10.023,0,0-5.147,14.9-19.5,5.689,0,0-10.023,1.084-11.92-12.191,0,0-4.063-.542-4.876-8.669s3.522-10.023-.271-21.943-6.5-29.257,10.565-41.448S277.129,423.87,283.359,434.435Z" transform="translate(-0.748 -6.831)"/><path class="e" d="M267.378,506.322c5.147-8.127-.813-15.712-.813-15.712l1.626-9.481c6.773-15.171-7.585-26.548-7.585-26.548l8.934-5.956c-10.394-13.8-27.552-14.653-43.709,5.971-2.377,8.651-.516,17.59,1.726,24.637,3.792,11.919-.542,13.816.271,21.943s4.876,8.669,4.876,8.669c1.9,13.274,11.92,12.191,11.92,12.191,14.357,9.211,19.5-5.689,19.5-5.689C271.441,510.657,267.378,506.322,267.378,506.322Z" transform="translate(-0.749 -11.806)"/><ellipse class="b" cx="7.877" cy="10.141" rx="7.877" ry="10.141" transform="translate(248.879 472.296) rotate(-54.139)"/><g transform="translate(345.381 777.088)"><path class="l" d="M448.957,999.384c-22.234,4.291-34.488.75-32.988,15.745s41.235,17.619,61.853,14.245,34.863-10.122,35.612-21.368-20.243-19.868-31.489-17.619S470.325,995.26,448.957,999.384Z" transform="translate(-415.846 -990.028)"/><path class="k" d="M523.708,990.04c-3.433,7.341-6.281,19.647-2.23,38.251,17.42-3.649,29.087-10.133,29.764-20.281C551.91,997.98,535.289,990.045,523.708,990.04Z" transform="translate(-453.652 -990.032)"/></g><path class="m" d="M405.217,486.116s-8.4,18.09-12.275,17.606-17.122-8.884-21.321-11.145-10.337-3.715-14.053-1.131-3.715,7.268.162,7.592,8.884-2.1,11.952,1.292,15.183,16.8,18.737,20.19,7.914,8.561,19.705-.807a212.856,212.856,0,0,0,18.252-15.991Z" transform="translate(-48.198 -29.128)"/><path class="n" d="M410.944,490.881l-5.727-4.765s-8.4,18.09-12.275,17.606-17.122-8.884-21.321-11.145-10.337-3.715-14.053-1.131-3.715,7.268.162,7.592,8.884-2.1,11.952,1.292c1.622,1.793,5.77,6.382,9.846,10.812a15.485,15.485,0,0,1,3.015-8.327s9.466,6.8,15.085,6.211,12.424-17.156,12.424-17.156Z" transform="translate(-48.198 -29.128)"/><path class="m" d="M413.81,428.2l-3.877-10.338s-.969-2.423,2.261-1.131,9.692,5.492,11.306,8.884C419.947,427.719,413.81,428.2,413.81,428.2Z" transform="translate(-68.259 -3.681)"/><path class="o" d="M440.609,444.713s4.631,8.022,21.193,21.186,36.709,28.574,45.2,46.834,5.1,38.643-3.4,47.986-38.643,11.89-49.26-11.042c-3.96-8.553-8.031-22.047-12.146-30.692-6.918-14.532-13.523-23.78-16.731-34.28-5.212-17.057-5.373-23.195-10.381-26.91s-12.922-.323-18.252-5.169-5.815-9.206-3.392-11.629,6.784-3.392,8.4-7.269.161-8.884,4.361-10.5,11.952-4.522,11.952-4.522l-3.715-8.722s-2.1-3.553.969-3.715,15.345,3.231,19.544,10.822S441.416,432.437,440.609,444.713Z" transform="translate(-61.784 0)"/><path class="m" d="M490.15,541.817c-15.79-9.528-33.7,6.247-33.7,6.247-4.3-8.454-18.57-36.738-18.57-36.738l-1.176,1.448-1-6.348s-2.45-14.7-5.989-21.235-11.707-2.723-20.691-4.356c-3.654-.664-7.217-1.509-10.16-2.277.154.147.3.292.459.44,5.33,4.846,13.245,1.454,18.252,5.169s5.169,9.853,10.381,26.91c3.209,10.5,9.813,19.748,16.731,34.28,3.245,6.817,6.462,16.642,9.619,24.69a35.3,35.3,0,0,0,1-3.455C461.293,541.273,490.15,541.817,490.15,541.817Z" transform="translate(-64.27 -26.371)"/><path class="p" d="M483.648,551.547l-.985-5.849a5.544,5.544,0,0,0-.758-2.323,6.515,6.515,0,0,0-2.773-1.821c-3.749-1.752-6.828-4.661-9.634-7.7a24.558,24.558,0,0,1-4.907-6.962,37.147,37.147,0,0,1-1.669-6.25A58.708,58.708,0,0,0,452.5,498.17c-2.109-2.787-4.468-5.385-6.432-8.276a37.416,37.416,0,0,1-3.489-6.417c.565-.266,1.128-.534,1.7-.787-2.128-4.719-4.274-9.5-5.219-14.586s-.586-10.577,2.04-15.021l-.029-.042c-3.86-.776-7.491,1.8-11.033,3.541a29.394,29.394,0,0,1-8.1,2.577c1.555-9.136,6.741-7.6,7.775-11.08-4.937-3.092-9.1,2.441-14.384,0-5.054-2.333-10.943-2.768-13.218-3.11,4.665-3.5,3.811-9.308,5.873-12.383,1.812-2.7,5.344-3.557,7.992-5.446-2.609.982-6.978,2.629-9.774,3.7-4.2,1.615-2.746,6.623-4.361,10.5s-5.977,4.846-8.4,7.269-1.938,6.784,3.392,11.629c3.039,2.763,6.918,2.848,10.619,3.1h0c.67.046,1.333.1,1.986.171l.123.013q.452.053.894.123l.145.024c.3.049.594.105.885.171l.072.018q.423.1.833.224c.032.01.064.018.1.028.274.087.542.186.807.3l.149.063a8.5,8.5,0,0,1,.763.375c.041.023.082.048.123.072a7.84,7.84,0,0,1,.758.492c.19.141.371.287.548.435h0c4.477,3.763,4.819,10.065,9.833,26.474.054.177.116.351.172.526h0c.108.333.215.668.327,1l.009-.006c3.36,9.887,9.641,18.935,16.222,32.76,4.115,8.645,8.186,22.14,12.146,30.692a29.7,29.7,0,0,0,18.921,16.321c.685-.295,1.363-.609,2.02-.97,4.232-2.32,7.769-6.232,8.779-10.951C484.778,558.362,484.214,554.906,483.648,551.547Z" transform="translate(-61.784 -7.615)"/><path class="n" d="M445.606,547.374q.254.576.509,1.172.111.259.221.522.279.665.558,1.352c.047.115.094.228.14.344.494,1.222.987,2.488,1.479,3.78l.044.118c1.933,5.079,3.851,10.551,5.747,15.384v0a35.3,35.3,0,0,0,1-3.455,29.25,29.25,0,0,1,13.029-18.572,16.141,16.141,0,0,1-1.255-2.375,22.075,22.075,0,0,1-1.1-3.646,44.858,44.858,0,0,0-9.528,6.066c-4.3-8.454-18.57-36.738-18.57-36.738l-1.176,1.448-4.093-5.481s-3.261-15.054-6.8-21.588-7.8-3.236-16.789-4.87c-3.654-.664-7.217-1.509-10.16-2.277.154.147.3.292.459.44.179.163.362.315.547.46.062.048.125.092.187.138.125.093.25.185.378.271.074.05.149.1.225.144.117.075.236.148.355.217.08.046.161.09.242.134.118.064.236.124.354.182q.124.061.248.118c.122.056.245.108.367.159.081.034.163.068.244.1.132.051.266.1.4.144.074.025.147.053.222.077.173.056.346.107.521.155l.107.032c.208.056.418.106.629.153.081.018.162.033.243.05.133.027.266.055.4.079l.286.049c.121.02.243.04.365.058.1.015.2.029.3.043l.351.044.316.037.337.035.328.031.31.027.36.029.142.01c1.305.1,2.609.156,3.869.3l.1.011h0a18.391,18.391,0,0,1,1.96.327l.036.009h0c.291.068.578.145.861.232l.067.02h0c.274.087.542.187.806.3h0l.149.063h0c.26.112.514.236.763.375h0c.041.023.082.048.123.072h0a7.844,7.844,0,0,1,.758.492c.19.141.371.287.548.435h0c1.957,1.645,3.125,3.778,4.238,7.027l0,.005q.117.344.235.706l0,.011q.117.361.234.74l0,.01c.774,2.494,1.573,5.57,2.645,9.45l.01.035c.094.34.192.69.29,1.043.026.093.051.184.078.278l.269.957c.036.125.07.246.105.373.087.306.177.619.267.934l.129.449c.09.313.185.636.279.958l.137.469c.105.359.215.727.326,1.1.038.13.075.255.114.386q.227.758.468,1.546c.078.253.166.5.247.753s.166.517.253.774l.009-.006c2.894,8.517,7.957,16.418,13.511,27.279l.16.31c.333.656.67,1.328,1.007,2.005.091.184.182.361.274.547q.634,1.282,1.271,2.619c.236.5.471,1.011.706,1.535C445.464,547.05,445.535,547.213,445.606,547.374Z" transform="translate(-64.27 -26.371)"/><path class="n" d="M441.162,498.962s7.275-7.749,13.443-2.767-11.15,8.619-11.15,8.619Z" transform="translate(-79.7 -32.195)"/><path class="o" d="M503.236,636.317s18.92,3.057,26.753-20.808c7.061-21.51-14.014-45.438-32.7-39.493s-26.753,14.863-28.028,30.151.849,16.137-8.068,23.356-15.288,19.11-6.8,19.11,17.836-13.589,25.9-15.712S503.236,636.317,503.236,636.317Z" transform="translate(-83.071 -61.584)"/><path class="p" d="M517.152,579.83c-5.959-4.186-13.067-5.976-19.862-3.815-18.685,5.945-26.753,14.863-28.028,30.151s.849,16.137-8.068,23.356-15.288,19.11-6.8,19.11c6.29,0,13.045-7.449,19.4-12.179a19.654,19.654,0,0,0-7.992-6.429s10.2-9.753,12.855-14.185-1.33-11.969,9.531-28.371C495.374,576.63,508.842,577.794,517.152,579.83Z" transform="translate(-83.071 -61.584)"/><path class="o" d="M430.63,497.493s-10.338-5.169-16.475,1.615-13.729,21.967-17.283,22.29-7.43-4.2-12.114-7.753-16.8-6.784-20.675-3.877,0,6.784,3.876,6.622,10.014,2.907,15.829,9.53,10.984,19.383,19.544,16.96,17.768-10.983,23.26-12.922S447.267,510.576,430.63,497.493Z" transform="translate(-50.998 -32.59)"/><path class="o" d="M489.6,686.776s-5.445,23.243,3.141,44.812,16.333,27.85,21.358,24.291.419-11.308-4.187-19.684-14.659-27.85-7.748-51.513Z" transform="translate(-96.747 -101.559)"/><path class="m" d="M500.22,694.219a58.521,58.521,0,0,1,1.941-9.537L489.6,686.776a87.479,87.479,0,0,0-1.54,22.807,93.2,93.2,0,0,1,2.109-9.624,4.286,4.286,0,0,1,3.433-3.589C495.772,695.552,497.984,694.841,500.22,694.219Z" transform="translate(-96.747 -101.559)"/><path class="b" d="M460.165,569.241a28.271,28.271,0,0,0-3.478-10.982c-3.294-6.223-6.406-16.107.915-24.527s11.715-15.376,14.46-13.546-2.014,8.787-4.942,14.644c1.647,2.38,6.04,15.558,1.464,25.443S460.165,569.241,460.165,569.241Z" transform="translate(-84.063 -41.448)"/><path class="j" d="M249.772,599.122c-12.335,9.251-22.774,38.746,20.243,99.238s80.128,32.5,97.156,10.991,41.224-64.077,41.224-64.077-.448-13.442-10.754-9.857-11.65,12.994-25.093,20.612-22.4,9.858-43.016,22.4c0,0-38.983-61.836-45.257-69.006S264.111,588.368,249.772,599.122Z" transform="translate(-5.945 -68.911)"/><path class="b" d="M367.17,709.353c9.662-12.2,21.63-31.187,30.178-45.327-21.332,30.863-50.325,68.433-71.968,56.182-14.3-8.1-57.171-71.055-66.971-97.19-4.871-12.99-.662-21.943,4.8-27.665a17.69,17.69,0,0,0-13.44,3.772c-12.335,9.251-22.773,38.746,20.243,99.238S350.143,730.861,367.17,709.353Z" transform="translate(-5.946 -68.913)"/><path class="i" d="M246.819,658.271a200.2,200.2,0,0,1,51.757-28.1c-6.609-10.072-12.232-18.377-14.3-20.74-6.273-7.169-20.163-21.06-34.5-10.306C240.555,606.036,232.4,624.258,246.819,658.271Z" transform="translate(-5.947 -68.911)"/><path class="c" d="M248.821,599c-.252.213-.5.431-.751.661l-.007.006c-.25.233-.5.477-.745.727-.06.06-.119.121-.178.183-.243.253-.485.512-.724.783l-.007.008c-.242.276-.48.564-.716.859-.053.065-.1.132-.157.2q-.707.9-1.366,1.919l-.133.209q-.658,1.04-1.255,2.2l-.108.213q-.595,1.184-1.114,2.494l-.081.209q-.515,1.335-.941,2.8l-.057.2q-.419,1.489-.733,3.115c-.013.065-.024.13-.036.194q-.307,1.649-.492,3.44c-.006.06-.011.121-.018.182q-.176,1.811-.215,3.769c0,.058,0,.117,0,.175q-.03,1.977.094,4.106c0,.055.007.11.011.165q.133,2.145.438,4.446c.007.055.015.109.022.165q.314,2.313.814,4.786c.011.055.023.111.034.166q.509,2.482,1.22,5.129l.048.175q.719,2.651,1.654,5.468l.067.2q.943,2.818,2.117,5.8c.029.075.06.151.089.225q.586,1.482,1.229,3v0a190.584,190.584,0,0,1,21.835-14.3,164.322,164.322,0,0,1-10.244-20.959c-4.871-12.99.292-21.577,5.758-27.3l2.2-2.073c-.8-.111-4.766,1.538-5.584,1.539h-.017q-.385,0-.773.02l-.069,0c-.541.029-1.084.083-1.631.166h0c-.257.039-.515.086-.773.138l-.142.03q-.337.07-.676.158l-.131.032q-.793.209-1.591.5l-.179.069c-.2.077-.407.16-.612.246-.072.031-.145.061-.218.093q-.322.141-.645.3l-.145.069q-.393.194-.788.412c-.056.03-.112.064-.168.1q-.309.173-.617.361l-.253.157q-.281.176-.562.365c-.08.053-.159.105-.239.161-.261.18-.522.365-.784.562s-.51.4-.764.6Z" transform="translate(-5.948 -68.026)"/><path class="j" d="M470.994,656.31s4.786-6.013,6.749-10.185,6.382-9.326,12.517-10.8,8.835.123,12.885-2.331,7.118-5.645,8.958-3.927-1.84,7.608-13.253,14.112c0,0,5.767,6.258,11.9,5.031s9.94-5.4,12.149-7.977,3.927-4.54,5.645-2.7-1.227,11.78-13.866,16.2c0,0,5.4,2.454,10.922-2.331s5.89-3.436,6.258-1.964-3.313,7.853-10.185,11.412c0,0,.491,2.454-6.136,4.295s-17.916.246-21.966,1.6-6.626,2.454-11.167,8.1C475.9,664.163,470.994,656.31,470.994,656.31Z" transform="translate(-90.582 -81.095)"/><path class="b" d="M544.558,679.405c-.532.184-1.07.353-1.612.494a42.943,42.943,0,0,1-9.223,1.085c-.046.45.557.638,1.009.659,2.789.129,5.584.121,8.374,0C544.645,680.5,544.575,679.533,544.558,679.405Z" transform="translate(-113.462 -99.634)"/><path class="p" d="M434.508,501.275a23.85,23.85,0,0,0-3.877-3.782s-10.338-5.169-16.475,1.615-13.729,21.967-17.283,22.29-7.43-4.2-12.114-7.753-16.8-6.784-20.675-3.877,0,6.784,3.876,6.622,10.014,2.907,15.829,9.53a77.681,77.681,0,0,1,5.074,6.9,14.494,14.494,0,0,1,4.839-6.87c7,5.056,4.278,8.168,19.21-12.8C420.686,502.234,428.655,500.465,434.508,501.275Z" transform="translate(-50.998 -32.59)"/><path class="b" d="M392.453,462.81a5.869,5.869,0,0,0,.192,4.652,8.376,8.376,0,0,1,3.348-5.4Z" transform="translate(-61.789 -20.352)"/><ellipse class="q" cx="1.021" cy="1.362" rx="1.021" ry="1.362" transform="matrix(0.934, -0.358, 0.358, 0.934, 346.732, 430.533)"/></g></g></svg>