<svg xmlns="http://www.w3.org/2000/svg" width="480.599" height="527.127" viewBox="0 0 480.599 527.127"><defs><style>.a{fill:#0095db;}.b{fill:#ea2d24;}.c{fill:#bf1313;}.d{fill:#152d72;}.e{fill:#213a8f;}.f{fill:#e5a78f;}.g{fill:#f6d19f;}.h{fill:#ea8d07;}.i{fill:#fab609;}.j{fill:#edd29d;}.k{fill:#fcf0da;}.l{fill:#e5bd8c;}</style></defs><g transform="translate(-1031.067 -2200.936)"><path class="a" d="M-2239.37-1136.5l-.395-.136c-60.1-20.716-128.841-21.968-188.374,1.25-40.266,15.7-57.878,46.721-46.925,91.552a147.772,147.772,0,0,0,35.72,66.092c12.753,13.493,28.035,24.348,39.4,39.156a99.068,99.068,0,0,1,20.046,58.993c.19,26.1-9.72,50.914-17.26,75.782-9.518,31.392-14.213,66.136,6.885,93.535,12.47,16.194,29.924,27.221,47.629,36.55,32.258,17,67.078,29.584,103.061,32.224,56.989,4.18,107.7-20.377,146.394-63.672,10.847-12.138,21.841-24.495,29.024-39.349,7.5-15.5,10.457-32.93,13.131-50.1,6.9-44.308,9.649-83.25-12.737-123.39-12.88-23.1-28.088-43.082-38.927-67.789-11.866-27.048-22.042-55.237-38.884-79.454C-2165.389-1099.478-2201.106-1123.234-2239.37-1136.5Z" transform="translate(3557.756 3353.424)"/><g transform="translate(28)"><g transform="translate(876.356 1831.786)"><g transform="translate(310.012 369.151)"><path class="b" d="M688.49,1061.933a32.161,32.161,0,0,0,6.164,18.184c6.472,8.937,16.027,20.649,8.938,22.807s-25.888,4.006-45.921,9.862-39.449,4.623-36.059-2.157,15.1-8.013,28.046-19.725a31.883,31.883,0,0,0,10.787-26.5Z" transform="translate(-467.23 -589.403)"/><path class="b" d="M470.01,1050.637s.617,16.026,2.466,23.731,6.164,13.56,1.849,15.718-29.9-.617-40.066,1.233-32.052,4.623-37.908,0,18.492-11.711,26.505-16.026,18.183-9.862,18.492-24.656Z" transform="translate(-395.451 -585.812)"/><path class="c" d="M710.806,1080.117a32.161,32.161,0,0,1-6.164-18.184L676.6,1064.4a31.211,31.211,0,0,1-4.568,19.033c5.247,1.082,14.961,1.5,26.536-5.518l8.288,27.627c5.645-.992,10.148-1.782,12.891-2.617C726.833,1100.766,717.279,1089.054,710.806,1080.117Z" transform="translate(-483.382 -589.403)"/><path class="c" d="M489.443,1050.637H460.781a23.714,23.714,0,0,1-4.206,13.637c4.6,1.9,11.155,3.36,20.358,3.159l2.738,23.466c6.645.128,12.264.1,14.087-.814,4.315-2.157,0-8.013-1.849-15.718S489.443,1050.637,489.443,1050.637Z" transform="translate(-414.884 -585.812)"/><path class="d" d="M560.949,656.149s-.247.922-.883,2.66c-3.206,8.769-16.295,38.325-57.391,75.311-49.245,44.321-37.754,93.566-41.038,127.217S460,906.48,455.892,925.357c0,0,10.67,13.132,36.934,3.283a219.665,219.665,0,0,1,20.519-56.632c15.595-29.547,1.642-58.274,1.642-58.274l107.519-77.151-9.849-88.641" transform="translate(-414.667 -457.785)"/><path class="e" d="M687.016,619.062s14.774,32.83,15.595,50.887,2.462,49.245-70.585,123.113c0,0,25.443,17.236,33.651,63.2s2.462,45.962,9.029,67.3c0,0-15.594,13.952-36.113,9.849,0,0-30.368-62.378-59.916-100.953s-4.1-76.33,36.934-135.424c0,0-27.906-4.1-24.623-56.632Z" transform="translate(-449.631 -448.604)"/><path class="d" d="M717.654,669.949c-.821-18.057-15.595-50.887-15.595-50.887l-88.874,19.75,7.566,36.212s29.557,12.5,68.208-7.958c0,0-9.094,67.071-64.8,121.637,0,0,38.131,74.824,54.868,141.48a45.688,45.688,0,0,0,10.719-6.622c-6.566-21.339-.821-21.339-9.029-67.3s-33.651-63.2-33.651-63.2C720.116,719.194,718.475,688.005,717.654,669.949Z" transform="translate(-464.674 -448.604)"/><path class="f" d="M484.108,700.8l-3.151-10.766-10.635,1.444-1.838,15.756,6.171,3.282,10.766-5.777Z" transform="translate(-418.67 -471.166)"/><path class="c" d="M497.478,718.577l-23.339-2.745v-6.821h65.41v6.821Z" transform="translate(-420.468 -477.201)"/><ellipse class="c" cx="32.705" cy="5.96" rx="32.705" ry="5.96" transform="translate(53.671 232.671)"/><path class="c" d="M497.478,718.577l-23.339-2.745v-6.821h65.41v6.821Z" transform="translate(-420.468 -477.201)"/><ellipse class="b" cx="32.705" cy="5.96" rx="32.705" ry="5.96" transform="translate(53.671 225.85)"/><path class="g" d="M526.346,463.834s-16.358,1.925-29.83,29.349-22.132,39.934-32.236,50.519-21.651,18.765-18.765,35.123,12.028,19.245,11.548,41.377l6.255,1.925s5.142-6.173,10.284-17.423c2.8-6.124,7.376-12.817,7.037-22.992l63.509-67.84Z" transform="translate(-411.225 -399.253)"/><path class="f" d="M532.9,553.152l-.765-15.3-32.3-16.338c-7.425,14.313-13.4,23.828-19.292,31.382a77.624,77.624,0,0,1,9.707,6.308c3.821,4.049,8.435,10.531,6.65,16.926-2.878,10.312-9.075,15.388-9.183,15.476-3.135-12.663-13.233-17.651-15.862-15.9-2.82,1.883,7.818,5.375,9.757,16.776,1.324,7.785-5.179,23.762-7.937,27.677-4.438,6.3-1.676,7.091,1.32,6.688-1.1,4.6.574,7.028.574,7.028l.661-.031a101.372,101.372,0,0,0,5.729-10.8c2.8-6.124,7.375-12.817,7.036-22.992Z" transform="translate(-419.583 -417.589)"/><path class="h" d="M541.517,463.834s-16.358,1.925-29.83,29.349c-7.411,15.085-13.364,25.653-18.9,33.874a148.326,148.326,0,0,1,29.024,26.883l37.511-40.068Z" transform="translate(-426.395 -399.253)"/><path class="i" d="M567.869,434.139C557.346,439.4,537.309,465,551.33,493c22.749,45.422,7.509,54.217,23.294,82.5s18.9,22.415,49.15,29.65l59.852-29.6s13.812-5.92-2.631-40.121-30.256-48.671-34.2-78.926S567.869,434.139,567.869,434.139Z" transform="translate(-443.479 -389.517)"/><path class="h" d="M691.378,553.521q-.825-1.714-1.639-3.359c-.181-.367-.36-.722-.54-1.084-.361-.724-.722-1.447-1.08-2.155-.212-.419-.423-.83-.634-1.243-.324-.634-.647-1.266-.968-1.886-.222-.427-.441-.849-.661-1.269-.308-.589-.615-1.175-.92-1.753q-.335-.633-.667-1.259-.452-.848-.9-1.681c-.216-.4-.432-.8-.647-1.2-.3-.565-.608-1.121-.91-1.675-.2-.373-.407-.749-.609-1.118-.315-.575-.627-1.141-.938-1.707-.184-.334-.37-.673-.552-1-.327-.592-.651-1.174-.973-1.756q-1.678-3.024-3.271-5.889l-.362-.656c-.332-.6-.662-1.2-.988-1.788q-.234-.426-.465-.849c-.29-.529-.578-1.057-.863-1.58l-.489-.9q-.408-.757-.809-1.508c-.161-.3-.322-.6-.481-.9q-.4-.763-.8-1.522c-.147-.282-.3-.565-.441-.847q-.428-.828-.842-1.653c-.117-.231-.237-.464-.353-.694q-.584-1.169-1.148-2.335c-5.538,3.141-11.129,5.942-17.394,6.066-6.435.128-3.9-20.118-9.55-23.641-5.392-3.361-19.021,10.106-23.425,5.828-1.813-1.761-7.958-7.509-8.346-3.917,1.526,5.74,10.414,8.259,13.4,13.4,7.032,12.111,5.953,29.375,6.125,43.379.095,7.759.048,16.032-4.184,22.535-4.908,7.542-14.366,10.854-23.334,11.6-7.33.608-14.905-.2-21.548-3.361a67.186,67.186,0,0,0,5.836,13.461c12.005,21.509,16.682,23.266,31.541,26.057q1.923.358,3.993.742c3.849.718,8.314,1.582,13.616,2.85l59.852-29.6S707.82,587.722,691.378,553.521Z" transform="translate(-453.86 -407.611)"/><path class="g" d="M614.529,435.9s43.16-3.453,58.123,9.783,21.292,82.867,5.179,128.33c-10.106,28.514-30.624,40.6-46.037,50.641a189.333,189.333,0,0,0-17.9,13.547s-10.706,8.338-15.476-4.339c-2.038-5.415.372-9.113,10.155-20.048S643.3,560.2,643.3,560.2s-4.028-61.575-10.359-73.085S603.6,481.937,614.529,435.9Z" transform="translate(-459.766 -390.243)"/><path class="f" d="M679.128,445.683C664.165,432.446,621,435.9,621,435.9a95.331,95.331,0,0,0-2.889,19.668l.477.428s45.787-13.261,53.745,16.3,19.1,107.636-50.134,164.087l.171.132a183.485,183.485,0,0,1,15.894-11.856c15.414-10.039,35.931-22.127,46.037-50.641C700.42,528.55,694.09,458.918,679.128,445.683Z" transform="translate(-466.242 -390.243)"/><path class="i" d="M679.121,445.683C664.158,432.446,621,435.9,621,435.9c-10.934,46.037,12.085,39.707,18.415,51.216,2.831,5.148,5.2,20.31,6.957,35.5,10.271-3.007,27.968-7.107,47.337-6.8C694.313,483.575,688.366,453.862,679.121,445.683Z" transform="translate(-466.235 -390.243)"/><path class="h" d="M620.257,439.229q-.22,1.032-.417,2.028c-.033.171-.07.345-.1.514q-.236,1.226-.437,2.4c-.022.129-.041.254-.063.382q-.168,1-.309,1.965c-.023.161-.048.323-.07.482q-.32,2.261-.5,4.3c-.01.1-.017.2-.026.3q-.08.943-.132,1.843c0,.052-.007.106-.01.159q-.055,1.01-.076,1.965l.477.428s45.787-13.261,53.745,16.3a179.163,179.163,0,0,1,5.931,44.154,141.185,141.185,0,0,1,15.445-.631,232.5,232.5,0,0,0-.724-23.408h0q-.114-1.362-.242-2.7l-.012-.119c-.263-2.718-.573-5.368-.93-7.935-.005-.035-.01-.071-.015-.107q-.166-1.183-.344-2.342c-.015-.1-.03-.2-.046-.293q-.178-1.145-.368-2.264c-.008-.047-.016-.094-.024-.141q-.413-2.421-.885-4.714c-.015-.074-.031-.145-.046-.219q-.2-.983-.417-1.94-.048-.218-.1-.434-.2-.886-.411-1.748c-.031-.128-.061-.256-.093-.383q-.515-2.087-1.079-4.03c-.027-.094-.055-.185-.083-.278q-.233-.8-.476-1.565c-.051-.164-.1-.325-.156-.487q-.217-.673-.44-1.325c-.055-.16-.109-.32-.164-.477q-.252-.719-.511-1.409c-.033-.09-.066-.183-.1-.271q-.314-.827-.64-1.61c-.037-.091-.076-.176-.114-.265q-.264-.627-.535-1.226c-.069-.151-.138-.3-.208-.447q-.232-.5-.471-.978c-.075-.151-.15-.3-.227-.45-.168-.327-.338-.645-.51-.956-.063-.114-.125-.232-.189-.344-.235-.414-.472-.815-.713-1.2-.034-.054-.069-.1-.1-.156q-.31-.485-.627-.935c-.081-.115-.163-.224-.244-.335q-.255-.348-.512-.672c-.09-.112-.179-.223-.269-.331-.177-.211-.355-.413-.535-.608-.08-.088-.161-.179-.243-.264-.26-.27-.521-.527-.786-.761C664.165,432.446,621,435.9,621,435.9c-.214.9-.41,1.772-.6,2.633C620.355,438.766,620.306,439,620.257,439.229Z" transform="translate(-466.242 -390.243)"/><path class="g" d="M582.075,456.747l10.593,7.493s6.717,5.684,14.468-10.851c2.1-4.478,3.049-9.42.181-11.848C596.285,432.2,589.567,427.3,589.567,427.3Z" transform="translate(-454.784 -387.636)"/><path class="f" d="M607.316,441.541C596.285,432.2,589.567,427.3,589.567,427.3l-7.492,29.452,9.578,6.776a62.686,62.686,0,0,0,9.17-12.878l5.3,4.772c.334-.64.67-1.306,1.009-2.029C609.235,448.911,610.184,443.968,607.316,441.541Z" transform="translate(-454.784 -387.636)"/><path class="g" d="M536.789,382c-7.889,5.985-13.057,19.857-9.793,30.193s7.072,10.88,4.9,16.593-5.168,10.065,1.36,10.88,7.345-2.176,7.345-2.176,11.7,19.313,19.857,16.321,24.21-22.577,14.961-45.97c0,0,8.834-10.156-7.072-27.745C557.734,367.854,536.789,382,536.789,382Z" transform="translate(-436.957 -371.044)"/><path class="f" d="M567.528,453.551c8.319-3.707,23.362-22.894,14.341-45.712,0,0,8.834-10.156-7.072-27.745-8.12-9.37-22.288-3.283-28.49.089,14.15,16.171,28.521,39.825,30.385,52.5C577.923,441.049,572.645,448.479,567.528,453.551Z" transform="translate(-443.412 -371.044)"/><path class="b" d="M569.905,407.634s-15.2-6.141-12.716-19.512c1.754-9.427-3.069-9.647-3.069-9.647s-5.92,19.293-32.448,21.7l-.439,5.262s-11.619,3.069-9.427-.658a5.323,5.323,0,0,1,5.7-2.85s-13.373-1.535-2.192-5.043a31.384,31.384,0,0,1,23.459-25.431c21.266-5.7,28.5,0,31.57,7.892s4.385,22.8,4.385,22.8Z" transform="translate(-432.141 -369.151)"/><path class="c" d="M557.189,388.124C554.7,401.495,569.9,407.636,569.9,407.636l4.823-5.481s-1.316-14.908-4.385-22.8c-2.646-6.806-8.4-11.975-23.566-9.616,1.122,3.221.58,7.865-4.184,14.444-8.383,11.576-20.3,12.124-27.033,11.3-.186.887-.245,1.407-.245,1.407-9.728,3.052-.872,4.61,1.595,4.964a5.39,5.39,0,0,0-5.1,2.93c-2.192,3.727,9.427.658,9.427.658l.439-5.262c26.528-2.412,32.448-21.705,32.448-21.705S558.943,378.7,557.189,388.124Z" transform="translate(-432.141 -369.154)"/><ellipse class="f" cx="6.256" cy="8.296" rx="6.256" ry="8.296" transform="translate(131.515 27.255) rotate(-18.597)"/><path class="b" d="M577.953,395.287l-4.6-6.358c-7.454,6.577-1.754,17.977,1.535,28.72s-4.823,12.277-15.785,15.566c-5.21,1.563-8.834,5.5-11.2,9.209,1.963,3.094,12.172,18.473,19.519,15.78,7.388-2.709,21.241-19.02,16.933-39.443a66.992,66.992,0,0,0-5.3-7.25C574.008,405.81,577.953,395.287,577.953,395.287Z" transform="translate(-443.917 -375.439)"/><path class="c" d="M594.522,425.489c-.009-.343-.014-.684-.033-1.03-.016-.289-.045-.583-.068-.874-.027-.347-.048-.692-.086-1.043-.033-.3-.081-.611-.121-.917q-.128-.961-.308-1.935c-.057-.312-.11-.623-.177-.937a66.934,66.934,0,0,0-5.292-7.242c-5.042-5.7-1.1-16.224-1.1-16.224l-4.6-6.358c-7.454,6.577-1.754,17.977,1.535,28.72,1.286,4.2.823,6.989-.866,9.029a45.57,45.57,0,0,1,3.178,10.4c1.231,8.364-4.047,15.794-9.164,20.865a18.306,18.306,0,0,0,4.25-2.807l.089-.078q.392-.337.788-.7l.169-.159q.356-.336.714-.694l.22-.225q.332-.339.662-.7l.256-.282c.207-.231.415-.468.621-.709.094-.11.188-.221.282-.334.2-.235.391-.477.585-.723.1-.127.2-.252.3-.382.187-.242.371-.491.555-.742.1-.14.206-.278.308-.422.178-.25.353-.508.529-.766.1-.153.208-.3.31-.459.173-.262.34-.532.509-.8.1-.16.2-.316.3-.478.174-.289.343-.587.513-.884.087-.152.176-.3.261-.454q.368-.666.718-1.358c.1-.206.2-.419.3-.629.129-.266.259-.531.383-.8.113-.248.219-.5.327-.754s.211-.482.312-.728c.109-.266.21-.537.314-.808.093-.241.186-.481.275-.726.1-.278.194-.562.289-.845.082-.244.164-.488.242-.737.091-.289.176-.583.261-.877.072-.25.143-.5.21-.752.079-.3.154-.6.227-.9q.092-.384.177-.771.1-.461.19-.928.075-.391.142-.786c.054-.316.105-.633.151-.953.038-.267.072-.536.105-.806.039-.323.077-.646.108-.972.026-.273.045-.548.066-.823.024-.329.048-.659.063-.992.013-.278.017-.559.023-.84.008-.336.018-.672.016-1.011C594.543,426.06,594.531,425.774,594.522,425.489Z" transform="translate(-453.304 -375.439)"/><path class="g" d="M593.146,710.05a38.041,38.041,0,0,0-9.578,13.769c-3.691,8.907-13.422,17.663-11.331,19.7,1.593,1.552,3.081,1.43,4.864-.714a36.633,36.633,0,0,0,.9,14.7c2.163,7.381,4.072,5.217,4.326,3.818s-1.782-8.4-.636-11.835c0,0-.382,8.526,3.054,13.362s3.563.128,2.418-3.181-1.018-10.69-1.018-10.69.254,11.071,4.708,14.125.842-7.413.715-12.5c0,0,4.085,13.71,6.05,11.324,1.98-2.4-2.3-9.868.621-17.063,2.014-4.959,3.035-3.822,5.621-12.03,2.873-9.119,3.663-9.17,3.663-9.17Z" transform="translate(-451.563 -477.531)"/><path class="g" d="M458.253,662.777s3.438,11.459.955,20.054-1.719,18.717,5.156,21.009c9.757,3.253,12.414,1.91,10.887-.764s-8.4-6.111-8.4-6.111l2.865-9.932s3.438,11.842,8.213,12.987-.955-15.279-.955-15.279,9.358-9.931-.955-18.526S458.253,662.777,458.253,662.777Z" transform="translate(-415.309 -462.014)"/></g><g transform="translate(126.71 702.761)"><path class="j" d="M181.557,860.311a11.3,11.3,0,0,0-11.586-.838,11.738,11.738,0,0,0-6.171,9.9c-.073,2.494.87,5.247,3.095,6.377a8.641,8.641,0,0,1-.552-4.072,7.307,7.307,0,0,0,4.955,7.889,12.677,12.677,0,0,0-1.088-4.8,12.849,12.849,0,0,0,10.148,6.983c3.206.3,6.785-.913,8.309-3.749a14.944,14.944,0,0,0,1.207-4.721c.168-1,.79-2.37.477-3.386-.339-1.106-1.819-1.9-2.582-2.728-1-1.086-1.886-2.274-2.816-3.422A18.553,18.553,0,0,0,181.557,860.311Z" transform="translate(-138.5 -858.261)"/><path class="j" d="M258.175,860.311a11.3,11.3,0,0,1,11.586-.838,11.738,11.738,0,0,1,6.171,9.9c.073,2.494-.871,5.247-3.095,6.377a8.65,8.65,0,0,0,.552-4.072,7.307,7.307,0,0,1-4.955,7.889,12.676,12.676,0,0,1,1.088-4.8,12.85,12.85,0,0,1-10.148,6.983c-3.207.3-6.785-.913-8.31-3.749a14.98,14.98,0,0,1-1.207-4.721c-.168-1-.789-2.37-.477-3.386.34-1.106,1.82-1.9,2.582-2.728,1-1.086,1.886-2.274,2.816-3.422A18.553,18.553,0,0,1,258.175,860.311Z" transform="translate(-165.683 -858.261)"/><path class="k" d="M191.8,870.032a24.693,24.693,0,0,0-11.307,14.11c-1.589,5.672-.7,11.721-1.344,17.576a50.562,50.562,0,0,0-.595,5.891,8.471,8.471,0,0,0,1.777,5.523,15.061,15.061,0,0,1,.54-3.871,11.363,11.363,0,0,0,3.92,9.4,15.525,15.525,0,0,0-.7-4.513,8.465,8.465,0,0,0,3.926,5.311,17.352,17.352,0,0,0,6.379,2.2,53.877,53.877,0,0,0,12.721.433,97.741,97.741,0,0,0,19.582-3.331,27.113,27.113,0,0,0,8.865-3.815,11.218,11.218,0,0,0,4.88-8.027l.666,4.609a18.156,18.156,0,0,0,.277-11.012,23.924,23.924,0,0,1,1.87,4.458c1.038-2.38.705-5.14-.038-7.629s-1.872-4.861-2.417-7.4c-.632-2.944-.457-6.017-1.11-8.956-1.322-5.947-6-10.764-11.477-13.424a31.935,31.935,0,0,0-7.661-2.517,62.611,62.611,0,0,0-12.9.018c-2.533.555-5.1.8-7.609,1.5a33.831,33.831,0,0,0-7.386,2.977Q192.228,869.778,191.8,870.032Z" transform="translate(-143.193 -860.314)"/><path class="j" d="M245.181,915a23.924,23.924,0,0,1,1.87,4.458,9.02,9.02,0,0,0,.592-4.52c-2.766-.177-5.555-.164-8.336-.346-1.808-.119-3.6-.37-5.388-.635a22.515,22.515,0,0,0-6.645.1,12.988,12.988,0,0,1,7.5-2.359,35.413,35.413,0,0,0-31.757,6.18l6.178-1.321a32.914,32.914,0,0,0-17.5,11.739l4.332-1.675a28.22,28.22,0,0,0-5.548,6.323,10.12,10.12,0,0,0,1.333,1.006,17.352,17.352,0,0,0,6.379,2.2c.173.029.346.05.519.078A89.769,89.769,0,0,1,242.89,925.6a9.429,9.429,0,0,0,1.348-4.2l.614,4.252.158.008A18.155,18.155,0,0,0,245.181,915Z" transform="translate(-146.983 -874.799)"/><path class="k" d="M480.8,892.286c-26.308,0-39.024,21.924-47.794,33.324-2.644,3.436-5.326,4.994-7.784,5.5l-.011-.011a46.851,46.851,0,0,1-12.582,4.054l3.67,11.3,12.258,6.162,12.717-1.966-3.081-5.506-2.32-2.509c1.754-.3,3.7-.574,5.731-.773,5.182-.508,13.638-.949,20.331-4.309a16.781,16.781,0,0,1-4.06,4.313,22.092,22.092,0,0,0,16.486-5.7l-3.08,5.148a17.746,17.746,0,0,0,14.888-7.646,15.425,15.425,0,0,1-1.507,4.584,20.635,20.635,0,0,0,12.079-10.576,9.213,9.213,0,0,0,2.475-1.627C505.789,919.471,507.105,892.286,480.8,892.286Z" transform="translate(-217.61 -869.078)"/><path class="j" d="M486.166,933.98a15.425,15.425,0,0,1-1.507,4.584,20.635,20.635,0,0,0,12.079-10.576,9.213,9.213,0,0,0,2.475-1.627c5.965-5.965,7.6-28.878-11.767-33.094a28.468,28.468,0,0,1,6,8.921,25.537,25.537,0,0,1-.134,20.215c-.2.428-.458.895-.913,1.016-.561.148-1.089-.3-1.5-.713l-4.03-4.08a21.985,21.985,0,0,1-9.462,12.677,9.575,9.575,0,0,0,1.11-5.778,31.278,31.278,0,0,1-13.853,7.2,6.309,6.309,0,0,0-1.768-7.791c-2.121,3.988-6.157,6.682-10.435,8.132s-8.838,1.8-13.343,2.138a7.312,7.312,0,0,1-4.334-.562,9.58,9.58,0,0,1-2.485-2.8,14.884,14.884,0,0,0-2.494-2.629,11.058,11.058,0,0,1-4.586,2.213l-.011-.011a46.851,46.851,0,0,1-12.582,4.054l3.67,11.3,12.258,6.162,12.717-1.966-3.081-5.506-2.32-2.509c1.754-.3,3.7-.574,5.731-.773,5.182-.508,13.638-.949,20.331-4.309a16.781,16.781,0,0,1-4.06,4.313,22.092,22.092,0,0,0,16.486-5.7l-3.08,5.148A17.746,17.746,0,0,0,486.166,933.98Z" transform="translate(-217.61 -869.39)"/><path class="j" d="M194.528,1037.335l-18.89,14.688a11.693,11.693,0,0,0-3.88,4.217c-.984,2.26-.445,4.86.11,7.261l3.61,15.636a6.166,6.166,0,0,0,1.6,3.427c1.153,1,2.855.993,4.357.737,3.791-.646,4.189-5.386,4.249-9.231.035-2.208-1.237-4.189-2.08-6.231s-1.157-4.682.436-6.211a6.657,6.657,0,0,1,2.11-1.205c8.158-3.412,19.95-4.745,28.458-7.158,5.075-1.438,10.273-2.521,15.151-4.529,3.774-1.554,7.551-3.9,9.14-7.663a18.7,18.7,0,0,0,1.121-5.487q.976-9.912,1.307-19.874l-19.241-.313c-3.635-.059-7.34-.109-10.818.953s-6.753,3.436-7.954,6.867Z" transform="translate(-140.858 -908.211)"/><path class="l" d="M232.181,1015.4c-3.635-.059-7.34-.109-10.818.953s-6.753,3.436-7.954,6.867l-8.785,14.116-1.655,1.286c5.822,4.548,16.715,9.79,36.264,10.354.206-.081.415-.155.621-.239,3.774-1.554,7.551-3.9,9.14-7.663a18.7,18.7,0,0,0,1.121-5.487q.976-9.912,1.307-19.874Z" transform="translate(-150.955 -908.211)"/><path class="j" d="M437.845,1012.4l-.557-5.015c-.87,9.231-1.671,18.93,2.044,27.425,1.843,4.216,4.763,8.025,5.661,12.538.959,4.817-.518,9.755-2.079,14.412q-2.065,6.158-4.363,12.234a6.811,6.811,0,0,1-2.165,3.408,6.534,6.534,0,0,1-2.9.874,71.282,71.282,0,0,1-14.481.387c-1.58-.119-3.567-.673-3.735-2.249-.124-1.167.894-2.115,1.861-2.78a25.111,25.111,0,0,1,11.3-4.231,4.348,4.348,0,0,0,2.108-.584,3.953,3.953,0,0,0,1.2-2.013c1.678-4.846,3.02-10.483.355-14.865-2.4-3.952-7.232-5.516-11.192-7.905-5.953-3.591-10.269-9.417-13.378-15.637s-5.14-12.907-7.542-19.432c-1.9-5.166-4.077-10.683-2.713-16.016,1.241-4.856,5.193-8.522,9.276-11.428a38.261,38.261,0,0,1,13.373-6.367c3.359-.775,7.6-1.205,10.976-.183,2.874.87,4.389,3.386,5.438,6.037a49.027,49.027,0,0,1,3.215,14.617,49.78,49.78,0,0,1-1.265,15.109A6.409,6.409,0,0,0,437.845,1012.4Z" transform="translate(-212.591 -895.174)"/><path class="b" d="M194.515,947.107l-3.8-4.969s.9-14,27.788-19.845,34.768,3.475,34.768,3.475l-1.17,7.015Z" transform="translate(-147.059 -878.005)"/><path class="k" d="M363.393,951.411c-14.959-21.052-35.919-14.276-63.089-9.67s-26.709,6.907-36.841,0-5.987-11.973-20.262-13.355-40.985,4.145-47.432,17.96,3.223,30.854,2.763,40.985,2.3,30.854,45.59,27.17,65.392-4.144,82.891,1.381S388.26,986.409,363.393,951.411Z" transform="translate(-147.959 -880.49)"/><path class="j" d="M334.464,978.467c-5.579,1.693-7.707,8.222-10.307,13.442A38.241,38.241,0,0,1,309.9,1007.43a2.586,2.586,0,0,0,3.442.3c-5.96,4.729-14.247,5.345-21.777,4.259s-14.8-3.65-22.354-4.555a51.749,51.749,0,0,0-24,2.837,33.541,33.541,0,0,0-7.9-26.1c3.535,15.823-3.3,33.454-16.556,42.783,6.821,3.149,16.969,4.82,32.019,3.539,43.287-3.684,65.392-4.144,82.891,1.381,5.82,1.838,14.545-.811,22.682-6.449,3.253-14.508.649-30.333-8.462-42.032Z" transform="translate(-156.608 -896.477)"/><path class="k" d="M411.766,955.929s17.54,11.4,16.224,28.939-3.069,1.316-3.069,1.316,1.754,15.347-4.384,22.362-20.17,15.785-17.54,23.24,12.716,12.716,10.524,21.924a70.153,70.153,0,0,1-12.277,24.993c-4.824,6.139-27.185.876-18.416-3.946s14.908,1.315,16.662-8.331,0-11.4-12.715-14.909-38.586-14.031-21.485-43.409c0,0-10.085,2.192,2.192-11.4S364.411,961.191,411.766,955.929Z" transform="translate(-200.759 -889.312)"/><path class="k" d="M212.752,992.55s4.385,32.448-6.139,38.148c-6.055,3.28-27.5-5.836-42.971-10.67-11.417-3.566-18.708-2.923-18.708-2.923s-10.524,14.616-14.616,12.716c-10.5-4.875,4.823-18.416,9.208-23.677s37.709,1.316,37.709,1.316.439-7.893-3.508-21.047S171.1,958.349,186.882,954.4,211,969.749,212.752,992.55Z" transform="translate(-126.71 -888.663)"/></g></g></g></g></svg>