<svg xmlns="http://www.w3.org/2000/svg" width="899.325" height="1183.716" viewBox="0 0 899.325 1183.716"><defs><style>.a{fill:#2e4166;}.b{fill:#f7ebad;}.c{fill:#475b8b;}.d{fill:#fff;}.e{fill:#1156a5;}.f{fill:#28397f;}.g{fill:#ea2d24;}.h{fill:#bf1313;}.i{fill:#ac7b60;}.j{fill:#824d43;}.k{fill:#1d1d1b;}</style></defs><path class="a" d="M356.522,945.694s44.072-28.857,47.745-40.924-5.247-93.393,2.1-107.036l7.345-13.641s11.018-21.513,22.036-14.691,18.89,18.888,15.216,24.661-19.413,19.411-18.364,29.906,18.89,82.375,15.74,91.819-34.1,69.783-47.22,85.523Z" transform="translate(-142.078 -314.042)"/><path class="b" d="M413.047,823.968c-1.049-10.493,14.691-24.135,18.364-29.906s-4.2-17.839-15.216-24.661-22.036,14.691-22.036,14.691l-7.345,13.641c-6.027,11.19-1.109,67.914-1.174,94.605,9.145,1.534,22.4,2.319,41.212.734C422.577,868.047,413.775,831.246,413.047,823.968Z" transform="translate(-122.526 -314.042)"/><path class="c" d="M350.321,1069.058s-39.063,6.427-68.489,24.448-54.491,38.815-49.639,55.034c-.475,3.51,8.361,9.468,19.964,5.165,38.947-14.446,117.235-71.343,117.235-71.343Z" transform="translate(-231.589 -98.39)"/><path class="a" d="M349.758,1069.058a225.57,225.57,0,0,0-22.005,5.127c3.51,8.112,6.832,14.569,6.832,14.569-17.882,4.037-59.062,27.168-80.81,48.916-9.135,9.137-16.231,12.391-21.4,13.107,2.341,3.206,9.88,6.39,19.219,2.927,38.947-14.446,117.235-71.343,117.235-71.343Z" transform="translate(-231.025 -98.39)"/><path class="d" d="M334.735,1103.259c-12.76-12.154-14.707-23.454-14.523-29.8-12.108,3.859-26.082,9.358-38.38,16.89-29.425,18.023-54.491,38.814-49.639,55.034-.475,3.51,8.361,9.468,19.964,5.165C274.192,1142.375,308.817,1120.616,334.735,1103.259Z" transform="translate(-231.589 -95.235)"/><path class="b" d="M323.482,1082.683c-20.4,8.282-51.7,27.221-69.708,45.225-9.135,9.137-16.231,12.391-21.4,13.107a7.044,7.044,0,0,0,.894.977c.1.089.189.18.292.268.142.12.3.237.451.354.13.1.263.192.4.287.158.106.321.213.491.316s.348.2.529.3c.165.089.324.18.5.264.348.172.711.335,1.1.484.124.048.257.089.384.134.3.108.6.211.913.3.172.052.35.095.525.141.3.077.6.148.9.211.184.038.369.074.56.106.34.058.69.1,1.047.146.166.019.33.043.5.058.53.046,1.073.075,1.634.077.05,0,.1,0,.156,0,.512,0,1.037-.026,1.571-.067.187-.015.378-.039.568-.06.414-.043.834-.1,1.26-.168.216-.034.433-.074.651-.115.436-.084.879-.187,1.325-.3.2-.051.4-.1.6-.153.645-.182,1.3-.386,1.965-.631l0,0,0,0c1.334-.494,2.717-1.044,4.138-1.634.118-.048.237-.1.355-.149q2-.834,4.094-1.785l.455-.206q2.122-.968,4.336-2.041l.331-.16q2.364-1.151,4.815-2.406l.093-.048q2.415-1.238,4.9-2.571l.44-.235q2.361-1.267,4.772-2.605l.477-.266q2.479-1.38,5-2.824l.251-.143q2.647-1.519,5.324-3.1l.161-.1q2.6-1.532,5.218-3.11l.427-.259q2.539-1.532,5.079-3.095l.373-.228q2.644-1.63,5.278-3.278l.091-.057q2.706-1.7,5.386-3.405l.129-.083q2.6-1.653,5.153-3.306l.319-.206q2.518-1.627,4.981-3.241l.2-.132c3.435-2.25,6.78-4.468,9.988-6.617l.009,0A51.6,51.6,0,0,1,323.482,1082.683Z" transform="translate(-231.025 -88.628)"/><path class="c" d="M473.775,1242.181s-3.52-48.408,3.52-97.7,5.282-110.019-5.282-143.464-51.928-73.932-51.928-73.932-9.681-37.846-1.759-50.169,36.966-52.809,36.966-52.809,6.5-4.774-.881-18.483c-9.331-17.328-10.561-27.285-25.524-23.764S379.6,802.107,379.6,802.107s-25.524-8.8-58.969,7.041-47.529,43.128-44.889,58.971,42.248,77.452,42.248,77.452,5.282,84.495-3.521,109.138-34.326,138.183-23.763,183.072,19.362,48.408,19.362,48.408l16.742,16.334,152.247,10.949Z" transform="translate(-200.178 -304.661)"/><path class="a" d="M404.629,970.166c5.517,24.276-6.665,119.363-6.665,119.363l14.983,3.407a454.016,454.016,0,0,1,4.066-48c5.879-41.157,5.616-90.28-.778-124.846l-56.669,22.887S399.111,945.89,404.629,970.166Z" transform="translate(-139.896 -205.118)"/><path class="d" d="M380.88,1020.206c-7.592,41.214-10.85,130.1-2.848,190.461l30.838,4.978-5.281-71.292s-3.521-48.408,3.52-97.7c6.118-42.816,5.587-94.258-1.579-128.957l-28.722,4.787S390.381,968.631,380.88,1020.206Z" transform="translate(-129.992 -206.834)"/><path class="b" d="M408.868,979.541q-.026-3.669-.11-7.3c-.005-.254-.012-.508-.019-.762q-.093-3.692-.242-7.334c-.009-.192-.019-.384-.026-.577q-.162-3.721-.384-7.374c-.007-.12-.015-.237-.022-.357-.156-2.5-.333-4.983-.534-7.427l-.005-.046c-.412-5.017-.922-9.9-1.523-14.593l-.014-.1q-.438-3.414-.946-6.689l-.051-.347q-.494-3.177-1.054-6.21c-.019-.108-.038-.218-.058-.326l-27.072,10.932c1.177,5.676,2.545,13.459,3.553,22.75,5.675,3.917,10.285,9.214,11.916,16.387,5.517,24.276-6.665,119.363-6.665,119.363l14.983,3.407v-.01q.088-2.526.2-5.127c.012-.293.026-.587.04-.882.077-1.665.161-3.345.256-5.05.007-.115.012-.228.019-.343q.154-2.747.345-5.553c.019-.287.041-.573.062-.86q.159-2.3.345-4.641c.036-.452.072-.9.11-1.354q.209-2.541.45-5.114c.014-.16.027-.319.043-.479q.263-2.776.57-5.58c.053-.486.108-.97.163-1.455q.239-2.137.5-4.283c.067-.542.132-1.085.2-1.627q.358-2.814.755-5.637.533-3.726,1-7.539c.016-.125.033-.247.046-.373q.448-3.684.829-7.434c.021-.206.043-.412.065-.62q.368-3.659.676-7.364c.022-.269.046-.541.069-.812q.3-3.636.536-7.306c.021-.315.043-.63.063-.946q.229-3.638.4-7.292.023-.492.046-.983.165-3.638.275-7.28.015-.51.029-1.02.1-3.638.148-7.268c0-.33.007-.657.01-.985q.039-3.648.021-7.276C408.872,980.143,408.87,979.841,408.868,979.541Z" transform="translate(-127.543 -205.117)"/><path class="d" d="M367.367,886.295s-8.757-34.268-2.774-48.2c-18.138,13.994-19.363,53.123-9.223,61.813,10.776,9.238,28.737,47.725,28.737,47.725l32.875,6.279C403.746,921.9,367.367,886.295,367.367,886.295Z" transform="translate(-147.459 -263.868)"/><path class="b" d="M399.643,928.8c-15.713-23.066-35.57-42.51-35.57-42.51s-8.757-34.268-2.774-48.2c-.221.172-.429.362-.645.541-8.2,27.51-9.71,51.25-2.044,56.882,16.36,12.021,21.205,25.546,21.205,25.546l-6.665,10.906Z" transform="translate(-144.165 -263.868)"/><path class="a" d="M420.634,922.576c-3.3-10.438-9.593-21.564-16.7-31.93L371.03,897.69s-50.854,39.765-4.161,77.195l23.063-11.336s19.286.652,38.272-.383C426.635,947.6,424.117,933.6,420.634,922.576Z" transform="translate(-148.798 -226.217)"/><path class="b" d="M407.969,943.783l-.015-.156q-.281-2.778-.6-5.488l-.046-.378q-.3-2.462-.627-4.858c-.034-.245-.067-.493-.1-.738q-.342-2.448-.723-4.823c-.053-.34-.112-.674-.167-1.013q-.309-1.885-.64-3.715c-.076-.41-.148-.826-.223-1.232-.233-1.25-.479-2.472-.728-3.682l-28.715,4.786a187.3,187.3,0,0,1,4.535,21.864C387.267,944.409,397.658,944.346,407.969,943.783Z" transform="translate(-128.565 -206.833)"/><path class="c" d="M306.448,1105.585s37.927-96.785,122.771-71.717c53.485,15.8,69.287,80.226,69.287,80.226s58.348-1.215,63.209,19.449,3.647,32.821,3.647,32.821Z" transform="translate(-177.954 -126.574)"/><path class="a" d="M305.567,1118.418s37.517-64,81.654-60.689,64,18.757,83.862,54.069Z" transform="translate(-178.585 -106.596)"/><path class="d" d="M558.651,1133.544c-4.861-20.665-63.209-19.449-63.209-19.449s-15.8-64.424-69.287-80.228c-63.508-18.763-100.728,30.747-115.431,56.834,10.525-7.786,52.109-53.149,105.554-34.036,41.291,14.767,62.432,67.859,62.432,67.859s56.077,6.768,82.545,22.752C560.687,1143.257,559.856,1138.662,558.651,1133.544Z" transform="translate(-174.891 -126.574)"/><path class="e" d="M448.888,1501.22h561.653s34.065-166.817-158.714-366.348c-107-110.752-103.979-195.757-169.133-299.981-23.265-37.217-72.76-63.884-97.655-77.9L529,772.5,442.26,886.337s-52.073,76.041-45.3,149.225,45.3,97.432,64.272,134.024,23.16,141.434,4.053,198.757l-14.9,137.347" transform="translate(-113.539 -321.973)"/><path class="f" d="M793.518,1134.872c-107-110.752-103.979-195.757-169.132-299.981-23.265-37.217-72.76-63.884-97.655-77.9l-48.992,13.55a47.186,47.186,0,0,1,11.475,5.052c76.474,45.885,82.035,102.892,82.035,102.892l2.11,22.378c37.483,50.713,77.984,104.593,87.979,152.127,30.515,145.117,91.544,131.6,125.874,220.281,27.853,71.953,55.7,138.258,45.358,227.944H952.232S986.3,1334.4,793.518,1134.872Z" transform="translate(-55.229 -321.973)"/><path class="g" d="M367.246,696s5.807-72.444-75.722-54.1C291.524,641.9,294.991,712.8,367.246,696Z" transform="translate(-188.647 -406.569)"/><path class="h" d="M367.246,694.76a59.72,59.72,0,0,0-.112-8.284c-66.57-7.746-75.611-45.82-75.611-45.82S294.991,711.558,367.246,694.76Z" transform="translate(-188.647 -405.327)"/><path class="g" d="M371.864,676.034s-62.892-36.422-81.426,45.063C290.438,721.1,355.928,748.483,371.864,676.034Z" transform="translate(-189.425 -385.794)"/><path class="h" d="M371.864,674.093a59.736,59.736,0,0,0-7.525-3.464c-35.643,56.752-73.9,48.526-73.9,48.526S355.928,746.542,371.864,674.093Z" transform="translate(-189.425 -383.853)"/><path class="i" d="M527.485,970.606c12.939-18.33,15.958-35.212,20.991-52.057,5.3-36.719,29.952-88.7,89.49-91.253-25.4-17.252-71.376-53.4-93.628-101.617L343.665,666.71s-6.887,12.831-5.646,33.116,1.529,40.811,36.983,67.193c22.9,16.55,11.215,39.335,14.69,45.512s26.212,3.733,26.212,3.733,8.617,12.9,20.387,17.319c14.058,5.271,48.435-14.25,48.435-14.25s15.6,28.687,6.8,69.174-59.888,145.586-15.881,212.477C475.648,1100.984,476.13,1043.359,527.485,970.606Z" transform="translate(-155.441 -386.661)"/><path class="c" d="M468.061,503.556l11.094,13.693,15.566-8.264,7.34,16.022,17.132-4.133,3.125,17.344,17.622.257-1.286,17.577,17,4.631-5.617,16.7L565.36,586.1l-9.595,14.783,12.67,12.25-12.97,11.932,9.225,15.016-15.53,8.332,5.2,16.839-17.114,4.208.85,17.6-17.623-.18-3.554,17.262L499.9,699.591l-7.736,15.835L476.8,706.779l-11.431,13.414L452.65,708l-14.408,10.15-9.291-14.976-16.479,6.248L407.2,692.6l-17.515,1.954-.927-17.6-17.451-2.464,3.479-17.277-16.29-6.726,7.667-15.869-14.105-10.566,11.372-13.464-11.035-13.742,14.363-10.213-7.271-16.054,16.452-6.32-3.05-17.358,17.506-2.03,1.363-17.571,17.461,2.387,5.69-16.68,16.319,6.655,9.659-14.741,14.151,10.5Z" transform="translate(-145.277 -503.556)"/><g transform="translate(211.42 5.429)"><path class="f" d="M434.259,515.864l6.339,1.273-4.773-10.418-1.074.57Z" transform="translate(-297.801 -506.719)"/><path class="f" d="M356,575.883l-1.236-.1,1.305.978Z" transform="translate(-354.76 -457.236)"/><path class="f" d="M552.777,617.84l12.97-11.932-12.67-12.25,9.6-14.783-15.318-8.715,5.617-16.7-17-4.631,1.286-17.577-17.622-.257-3.125-17.344-11.133,2.686-4.08,12.151,14.2,6.69-8.528,12.986,11.837,9.812-11.673,10.723,8.73,12.318L501.775,588.8l5.074,14.05-15.613,4.359,1.1,14.9-16.159.659-2.945,14.812-15.69-3.083-6.8,13.794L436.5,641.655l-10.235,11.909L414.383,643.8l-13.024,9.277L392.57,640.8l-14.993,6.061-5.141-14.027-12.519,1.926-4.109,8.506,16.29,6.726-3.479,17.277,17.451,2.464.927,17.6,17.515-1.954,5.274,16.816,16.479-6.248,9.291,14.976,14.407-10.15,12.723,12.2,11.431-13.414,15.356,8.648,7.736-15.835,17.024,4.557,3.554-17.262,17.623.18-.85-17.6,17.114-4.208-5.2-16.839L562,632.856Z" transform="translate(-354.01 -501.756)"/></g><path class="i" d="M550.8,780.218a114.1,114.1,0,1,0-212.36-58c0,1.521.057,3.028.115,4.535a77.153,77.153,0,0,0-.541,15.065c1.239,20.287,1.529,40.811,36.983,67.193,22.9,16.55,11.215,39.335,14.69,45.512s26.212,3.733,26.212,3.733,8.617,12.9,20.387,17.319c14.058,5.271,48.435-14.25,48.435-14.25s15.6,28.687,6.8,69.174-59.888,145.586-15.881,212.477c0,0,.482-57.625,51.837-130.378,12.939-18.33,15.958-35.212,20.991-52.057,5.3-36.719,29.952-88.7,89.49-91.253C614.818,853.564,574.6,822.147,550.8,780.218Z" transform="translate(-155.44 -428.648)"/><path class="c" d="M571.025,746.112a9.449,9.449,0,0,1,4.187-9.648,7.331,7.331,0,0,0,1.246-11.869,9.454,9.454,0,0,1,0-13.426,7.331,7.331,0,0,0-1.246-11.869,9.451,9.451,0,0,1-2.793-13.133,7.331,7.331,0,0,0-3.687-11.351,9.45,9.45,0,0,1-5.462-12.264,7.331,7.331,0,0,0-5.966-10.336,9.451,9.451,0,0,1-7.892-10.862,7.331,7.331,0,0,0-7.985-8.869,9.451,9.451,0,0,1-9.978-8.984,7.33,7.33,0,0,0-9.655-7.015,9.451,9.451,0,0,1-11.627-6.713,7.332,7.332,0,0,0-10.9-4.854,9.45,9.45,0,0,1-12.769-4.149,7.331,7.331,0,0,0-11.674-2.48,9.45,9.45,0,0,1-13.352-1.4,7.33,7.33,0,0,0-11.935,0,9.451,9.451,0,0,1-13.352,1.4,7.331,7.331,0,0,0-11.674,2.48,9.452,9.452,0,0,1-12.771,4.149,7.33,7.33,0,0,0-10.9,4.854,9.452,9.452,0,0,1-11.627,6.713,7.331,7.331,0,0,0-9.655,7.015,9.451,9.451,0,0,1-9.978,8.984,7.332,7.332,0,0,0-7.987,8.869,9.449,9.449,0,0,1-7.891,10.862,7.332,7.332,0,0,0-5.968,10.336,9.451,9.451,0,0,1-5.46,12.264,7.332,7.332,0,0,0-3.689,11.351,9.452,9.452,0,0,1-2.791,13.133c-4.108,2.636-4.877,7.437-1.965,11.068C392.706,704.668,496.679,702.707,571.025,746.112Z" transform="translate(-159.593 -438.891)"/><g transform="translate(222.912 154.92)"><path class="f" d="M362.5,608.687a7.152,7.152,0,0,0,8.641-1.214,9.358,9.358,0,0,1-2.983-.318,7.638,7.638,0,0,0-6.7,1.078A7.05,7.05,0,0,1,362.5,608.687Z" transform="translate(-361.455 -584.482)"/><path class="f" d="M547.855,711.168a7.331,7.331,0,0,0-1.246-11.869,9.451,9.451,0,0,1-2.793-13.133,7.331,7.331,0,0,0-3.687-11.351,9.45,9.45,0,0,1-5.462-12.264,7.331,7.331,0,0,0-5.966-10.336,9.451,9.451,0,0,1-7.892-10.862,7.33,7.33,0,0,0-7.985-8.869,9.452,9.452,0,0,1-9.978-8.984,7.33,7.33,0,0,0-9.655-7.015,9.451,9.451,0,0,1-11.627-6.713,7.332,7.332,0,0,0-10.9-4.854,9.45,9.45,0,0,1-12.769-4.149,7.331,7.331,0,0,0-11.674-2.48,9.451,9.451,0,0,1-13.352-1.4,7.33,7.33,0,0,0-11.935,0,9.451,9.451,0,0,1-13.352,1.4,7.331,7.331,0,0,0-11.674,2.48,9.452,9.452,0,0,1-12.771,4.149,7.33,7.33,0,0,0-10.9,4.854c-.067.256-.151.5-.237.747a6.534,6.534,0,0,1,2.882,1.545,7.238,7.238,0,0,0,10.888-1.26c2.676-3.677,7.055-3.677,9.731,0a7.238,7.238,0,0,0,10.888,1.26c3.313-2.983,7.6-1.982,9.518,2.228s6.608,5.886,10.412,3.725,7.8-.2,8.89,4.358,5.354,7.269,9.482,6.025,7.671,1.591,7.872,6.3,3.864,8.337,8.136,8.066,7.2,3.311,6.511,7.961,2.2,9.037,6.435,9.751,6.421,4.887,4.866,9.277.448,9.345,4.453,11.011,5.357,6.25,3.007,10.189a9.012,9.012,0,0,0,2.276,11.789,6.964,6.964,0,0,1,1.018,10.654,9.109,9.109,0,0,0-1.538,9.6,247.84,247.84,0,0,1,54.7,23.116,9.448,9.448,0,0,1,4.186-9.648,7.331,7.331,0,0,0,1.246-11.869A9.454,9.454,0,0,1,547.855,711.168Z" transform="translate(-353.903 -593.811)"/></g><path class="j" d="M467.657,704.882l-9.633-9.144-13.129,6.078c17.263,29.175,8.447,46.358,8.447,46.358a367.664,367.664,0,0,0,38.222,44.6c9.92,9.921,18.768,18.768,26.664,26.662,11.718-7.369,25.939-12.2,43.058-12.937C535.883,789.246,489.909,753.1,467.657,704.882Z" transform="translate(-78.761 -365.863)"/><path class="i" d="M238.013,1279.2h787.551s-144.52-181.867-464.412-209.471S225.021,1222.369,238.013,1279.2Z" transform="translate(-229.127 -99.955)"/><path class="j" d="M308.291,1220.583H839.834c-73.788-28.445-168.509-57.258-269.458-68.219C394.817,1133.3,328.825,1193.282,308.291,1220.583Z" transform="translate(-176.634 -41.336)"/><path class="g" d="M551.494,1256.538h247.33s-75.466-94.931-237.99-158.032C574.313,1128.9,582.049,1179.7,551.494,1256.538Z" transform="translate(-2.386 -77.292)"/><path class="h" d="M551.494,1204.975H665.586c-30.819-11.88-65.3-23.819-102.35-34.5A346.247,346.247,0,0,1,551.494,1204.975Z" transform="translate(-2.386 -25.728)"/><path class="c" d="M368.706,1026.534l18.364-15.742s62.962-14.69,68.207-26.233,36.729-126.973,36.729-126.973,25.184-13.642,24.135-25.709-15.217-18.364-36.2-8.4-25.184,32.005-33.579,50.893-25.184,55.092-25.184,55.092l-57.716,19.938S317.812,995.052,368.706,1026.534Z" transform="translate(-150.59 -277.878)"/><path class="a" d="M362.148,1025.1l18.364-15.742s62.962-14.689,68.207-26.233,36.729-126.973,36.729-126.973,25.184-13.642,24.135-25.709a13.467,13.467,0,0,0-5.441-9.9c-1.809,20.881-31.2,23.83-31.2,23.83L436.53,959.134s-32,20.965-57.378,29.793c-17.2,5.982-23.243,21.075-25.357,30.191A72.519,72.519,0,0,0,362.148,1025.1Z" transform="translate(-144.032 -276.442)"/><path class="a" d="M330.453,914.7c3.781-.348,14.279-2.485,17.985-9.164,7.566-13.638-5.8-40.8-17.18-61.407-9.4-17.026-15.946-33.238-23.449-42.462-24.2,16-34.341,38.114-32.069,51.753,1.72,10.314,19.1,40.013,31.024,59.495C315.8,914.422,324.217,915.279,330.453,914.7Z" transform="translate(-200.178 -289.966)"/><path class="f" d="M477.026,712.651s2.218,8.133-7.764,11.83c0,0-15.9-5.175-17.374-25.139s22.551-11.09,22.551-11.09Z" transform="translate(-73.797 -372.635)"/><path class="g" d="M562.844,746.93s-64.7-60.892-221.383-34.547c0,0-18.675-38.209-4.81-63.86,0,0,183.264-27.52,242.685,63.8C579.336,712.323,581.142,731.52,562.844,746.93Z" transform="translate(-159.985 -402.479)"/><path class="h" d="M497.488,701.329c-11.754-18.064-28.366-31.458-47.435-41.353,1.957,12.486,3.219,33.473-4.288,55.166C469.882,725.5,481,735.937,481,735.937,499.294,720.526,497.488,701.329,497.488,701.329Z" transform="translate(-78.137 -391.485)"/><ellipse class="i" cx="24.906" cy="33.515" rx="24.906" ry="33.515" transform="matrix(0.917, -0.399, 0.399, 0.917, 323.183, 287.295)"/><path class="d" d="M352.737,801.718c-.125-.039-.3-.094-.536-.161l-.029-.009c-.5-.142-1.222-.336-2.164-.553l-.022,0a78.311,78.311,0,0,0-28.775-.625l-.01,0c-2.729.419-5.589.984-8.565,1.73l0,0,8.672.9c5.941.618,11.957,1.253,17.553,3.344,1.687.63,10.621,5.18,16.976,4.818,10.86-.62,29.288-8.539,41.835-13.581,4.463-1.794,6.8-2.807,10.359-3.023a24.707,24.707,0,0,1-6.061-12.951c-15.095,3.649-49.022,20.177-49.022,20.177l-.148-.048Z" transform="translate(-173.523 -304.34)"/><path class="d" d="M367.1,801.859l11.354-10c-3.344,1.574-5.421,2.585-5.421,2.585s-25.524-8.8-58.969,7.041a94.468,94.468,0,0,0-29.48,21.319c3.218-1.5,6.753-3.625,11.013-5.81C349.949,789.116,367.1,801.859,367.1,801.859Z" transform="translate(-193.616 -296.997)"/><path class="b" d="M286.056,813.174c-.487.506-.961,1.014-1.428,1.524,3.2-1.492,6.832-3.394,10.944-5.778,1.732-1,3.423-1.948,5.084-2.849a22.909,22.909,0,0,0-3.038-2.949l-.05.034a90.7,90.7,0,0,0-7.362,5.977c-.244.22-.469.445-.707.668-.853.786-1.689,1.577-2.487,2.377C286.684,812.508,286.375,812.842,286.056,813.174Z" transform="translate(-193.588 -288.925)"/><path class="c" d="M280.705,824.3c-9.3,16.131-22.412,36.82-18.011,46.025s4.4,12.007,17.611,14.808,58.032,19.612,68.037,11.607-3.2-34.019-12.807-51.228-15.61-33.219-23.613-38.821S294.312,800.686,280.705,824.3Z" transform="translate(-209.931 -288.642)"/><path class="d" d="M458.242,857.587s25.184-13.642,24.135-25.709-15.217-18.364-36.2-8.4-25.184,32.005-33.579,50.893c-5.7,12.827-15.268,33.629-20.826,45.665,5.886,8.134,17.458,19.908,39.9,32.319C442.728,914.464,458.242,857.587,458.242,857.587Z" transform="translate(-116.825 -277.878)"/><path class="b" d="M472.6,830.441a15.578,15.578,0,0,0-.306-1.915c-.043-.2-.091-.393-.142-.587-.113-.439-.254-.865-.407-1.284-.117-.314-.24-.623-.379-.924-.154-.343-.319-.68-.5-1.008s-.381-.633-.589-.939c-.084-.123-.173-.242-.261-.362a13.622,13.622,0,0,0-2.856-2.877h0c-1.809,20.881-31.2,23.83-31.2,23.83l-30.548,96.273a177.286,177.286,0,0,0,16.48,10.275c.324-1.111.654-2.242.985-3.383l.141-.488c.326-1.126.656-2.26.987-3.411l.012-.038q.525-1.825,1.061-3.689l.082-.287q.476-1.658.96-3.34l.142-.5q1.043-3.643,2.1-7.367l.194-.687q1.056-3.718,2.113-7.463l.115-.409q.51-1.8,1.016-3.6l.055-.2q1.081-3.836,2.144-7.628l.134-.482c.7-2.5,1.392-4.971,2.07-7.4l.113-.408q.458-1.645.91-3.261l.1-.349c1.011-3.632,1.988-7.146,2.913-10.484l.086-.314q.857-3.092,1.649-5.96l.227-.817q.772-2.8,1.473-5.338l.216-.786c.99-3.593,1.856-6.744,2.558-9.3l.014-.046.494-1.806.012-.045c.3-1.088.553-2.017.767-2.8l.089-.326.249-.909.005-.021c.127-.463.215-.781.28-1.021l.074-.271.038-.136S473.65,842.508,472.6,830.441Z" transform="translate(-107.049 -276.442)"/><path class="d" d="M388.625,912.016c25.2-5.881,38.246-11.768,47.666-24.219l-2.842-4.442-8.756-7.826c-3.553,7.707-6.057,13.109-6.057,13.109l-57.715,19.938a79.864,79.864,0,0,0-12.736,18.016A175.852,175.852,0,0,1,388.625,912.016Z" transform="translate(-148.051 -237.048)"/><path class="j" d="M476.531,713.129c-6.624,18.105-10.11,24.616-16.7,34.626-11.179,16.972-25.208,29.82-36.492,38.409l.156-.089s8.306,15.3,9.374,39.3c37.052-15.912,58.928-91.646,58.928-91.646Z" transform="translate(-94.207 -353.403)"/><ellipse class="k" cx="5.648" cy="5.648" rx="5.648" ry="5.648" transform="translate(156.43 517.894)"/><path class="k" d="M365.754,781.863c-.668.158-1.385.348-2.123.556-.3,3.9-.1,11.633,6.057,12.659,8.275,1.378,11.863-.827,15.448,4.138.747,1.033,1.83,1,2.957.225C381.42,786,378.83,778.787,365.754,781.863Z" transform="translate(-137.044 -304.661)"/><path class="i" d="M618.052,780.747C591.724,791.688,544,831.79,582.576,965.76s41.889,155.26,41.889,155.26l-277.313,36.943s-69.012,48.6,59.22,85.745S731,1276.953,764.385,1261.282s62.179-37.946,33.615-174.967-57.835-213.026-57.835-213.026S705.139,744.561,618.052,780.747Z" transform="translate(-162.078 -309.552)"/><path class="i" d="M501.345,1032.384s-44.613,1.915-56.807-8.157-52.84-71.294-52.84-71.294-2.661-9.219-9.568-3.56,3.375,27.445,3.375,27.445L302.293,964.07s-7.686-.228-7.765,6.32,15.788,12.084,26.725,16.978a46.837,46.837,0,0,1,17.439,14.226s-25.747-3.733-35.1-3.021-23.881,2.683-24.671,8.752,4.755,7.947,23.111,9.178,31.906,15.721,31.906,15.721-38.415-4.224-53.851-1.215.352,15.091,15.345,15.5,32.4,11.928,32.4,11.928-32.048-5.709-38-1.467-.523,9.962,7.245,12.515,46.879,10.338,46.879,10.338,33.608,26.358,72.964,32.247,70.94,9.223,70.94,9.223Z" transform="translate(-201.377 -185.457)"/><path class="j" d="M831.642,1086.306C803.078,949.285,773.807,873.28,773.807,873.28s-33.645-123.6-116.95-94.5c21.372,17.092,46.025,49.719,64.074,111.988,29.509,101.806,55.033,212.089,60.2,272.243,3.3,22.623-.488,22.608-11.408,32.654-31.586,29.06-291.436,19.463-319.022,18.359-22.072-.882-42.7,14.631-68.446,2.16-.2-.059-.4-.108-.6-.168-.307-.093-.62-.2-.932-.3-.615-.2-1.231-.395-1.862-.62-.287-.1-.582-.22-.87-.326-.68-.252-1.358-.5-2.056-.791a92.736,92.736,0,0,1-13.691-7.123c-26.734-16.6-59.834-17.826-80.238-23.37-1.716,3.783,3.062,7.987,9.413,10.074,7.77,2.554,46.879,10.338,46.879,10.338s33.608,26.358,72.964,32.247q4.9.734,9.629,1.413c5.834,2.072,12.173,4.121,19.125,6.135,128.232,37.143,324.626,33.245,358.013,17.573S860.206,1223.326,831.642,1086.306Z" transform="translate(-195.72 -309.542)"/></svg>