<svg xmlns="http://www.w3.org/2000/svg" width="633.695" height="460.132" viewBox="0 0 633.695 460.132"><defs><style>.a{fill:#fab609;}.b{fill:#d09928;}.c{fill:#eaac0f;}.d{fill:#d8c67c;}.e{fill:#f7ebad;}.f{fill:#152e60;}.g{fill:#223d81;}.h{fill:#ffd000;}.i{fill:#f6d19f;}.j{fill:#e5a78f;}.k{fill:#f4eed7;}.l{fill:#1d1d1b;}</style></defs><g transform="translate(-71.431 -372.721)"><path class="a" d="M632.837,841.817s.989,17.144,40.031,17.841,68.918,1.555,83.506,2.883,18.5-8.652,13-14.4c-2.535-2.649-8.414-4.69-20.172-4.787-28.028-.233-74.681,4.246-82.475-7.812-10.779-16.675-14.759-22.706-14.759-22.706Z" transform="translate(-66.627 -52.233)"/><path class="b" d="M665.4,833.5c-9.781-15.121-13.437-20.662-13.437-20.662l-19.13,28.978s.458,7.875,12.908,13.168A170.66,170.66,0,0,0,665.4,833.5Z" transform="translate(-66.627 -52.233)"/><path class="b" d="M454.832,635.6s-22.356,23.032-20.839,42.459c1.532,19.616,11.878,49.04,12.965,60.593,1.095,11.618-1.054,51.885-1.054,51.885s1.035,20.1-8.1,25.17-21.124-3.758-21.322,8.887c-.2,12.72,4.672,12.083,23.559,9.531,18.912-2.555,15.366-19.706,21.541-39.247,6.123-19.378,23.007-57.074,21.81-74.115-1.187-16.9-10.023-42.513-4.7-59.719C483.975,643.967,477.57,624.284,454.832,635.6Z" transform="translate(-40.949 -30.802)"/><path class="b" d="M605.39,760.887s-31.791-37.695-71.757-17.712,14.533,78.115,14.533,78.115-2.27-8.175.455,3.179-16.35,8.629-16.35,8.629-37.695-5.45-34.061,9.991,20.891,7.267,45.87,6.813,42.69,5.449,48.594-4.088,5,1.362,3.634-14.988C596.307,830.827,644.447,809.482,605.39,760.887Z" transform="translate(-50.62 -43.272)"/><path class="c" d="M321.756,494.357s27.762,7.932,56.656,54.957c15.864,23.229,22.663,33.994,22.663,33.994s5.665-5.1,20.962-19.263,36.26-36.827,36.26-36.827l19.263,17s-35.693,88.95-76.486,96.882-86.684-79.319-86.684-79.319Z" transform="translate(-28.834 -14.436)"/><path class="d" d="M165.931,846.106s-6.18,1.352-18.019,2.8-38.754,2.636-49.321,5.784-16.851,1.5-12.883-10.309,26.2-13.978,31.753-17.083,12.44-16.172,22.767-17.491,27.478-2.037,27.478-2.037Z" transform="translate(-1.552 -51.632)"/><path class="e" d="M171.079,868.585s-7.691.965-22.278,1.447-47.475-.965-60.736,1.689-20.687,0-14.321-13.751,33.683-13.992,40.844-17.129,17.24-18.093,29.97-18.576,33.683.483,33.683.483Z" transform="translate(0 -53.335)"/><path class="f" d="M286.414,715.179s86.3,31.9,108.4,53.994,10.58,55.635,10.58,55.635L260.069,779.767Z" transform="translate(-22.387 -40.643)"/><path class="g" d="M144.21,683.357s-41.642,46.742-26.345,84.985,23.8,40.792,41.642,46.741c0,0-11.048,34.844,18.7,43.343s79.886,4.249,112.18,7.649,86.684,14.447,104.531-31.445c10.744-27.626-9.654-50.508-45.392-70.1-23.628-12.949-58.731-26.4-91.2-36.89C176.734,701.3,144.21,683.357,144.21,683.357Z" transform="translate(-5.11 -36.866)"/><path class="f" d="M235.881,814.472c-12.591-2.127-25.353-3.961-37.263-8.563s-23.1-12.338-29.174-23.574-5.957-26.289,2.433-35.915a551.776,551.776,0,0,1,75.319,2.231c-5.775-12.769-11.59-25.6-18.1-38.021-56.921-18.346-84.892-27.273-84.892-27.273s-41.642,46.742-26.345,84.985,23.8,40.792,41.642,46.741a43.4,43.4,0,0,0-1.128,4.822c2.579.342,5.157.65,7.715.948l87.137,10.138c22.626,2.632,45.525,5.33,66.809,13.443,4.067,1.55,9.7,2.809,11.9-.942-15.089-10.819-33.46-15.9-51.546-20.1Q258.283,818.255,235.881,814.472Z" transform="translate(-5.11 -36.866)"/><path class="h" d="M283.6,480.449s-30.881-6.872-69.464,28.744c-20.759,19.162-36.727,67.068-56.688,103s-37.526,59.084,34.333,96.61,87.827-15.17,93.417-43.115S309.152,609,321.927,570.672,317.934,491.628,283.6,480.449Z" transform="translate(-8.124 -12.722)"/><path class="c" d="M290.064,480.449s-30.881-6.872-69.464,28.744c-9.476,8.747-17.953,23.491-26.268,40.343l8.917,11.187s4.6-43.587,50.112-60.29c9.989-3.666,30.344-4.7,36.771-.812,3.38,2.046,7.567-5.582,11.882-5.347,4.236.23,8.467,1.438,12.1,1.412A57.724,57.724,0,0,0,290.064,480.449Z" transform="translate(-14.586 -12.722)"/><path class="c" d="M292.913,642.051c-10.348,11.668-19.259,13.343-27.228,9.489C241.2,639.7,249.963,624.2,252.194,617.584c7.518-22.31,32.456-35.982,37.8-58.908,1.3-5.57-1.183-22.022-5.247-26.047,1.265,10.838-14.87,21.992-22.645,29.648s-5.2,22.812-12.153,31.221l-22.023,15.181c-3.554,5-7.2,10.436-9.6,16.109-15.1-16.249-21.417-52.067-17.25-72.069,5.8-27.827,23.441-45.371,40.728-62.04q-.788.407-1.586.837l-.017.009q-.784.423-1.577.868l-.05.028q-.776.435-1.561.894l-.086.05q-.764.447-1.538.917l-.127.078q-.75.456-1.506.933l-.179.112q-.734.464-1.474.949l-.225.145c-.478.314-.958.636-1.44.962l-.277.186c-.464.315-.929.64-1.4.968l-.337.234c-.448.316-.9.643-1.351.97-.131.1-.262.188-.394.285-.435.318-.872.645-1.31.974-.15.113-.3.222-.449.336-.424.321-.85.652-1.277.983-.164.128-.328.252-.493.382-.414.324-.83.659-1.247.993-.179.144-.356.283-.536.428-.406.33-.815.67-1.224,1.009-.19.158-.379.31-.569.47-.414.347-.83.705-1.246,1.061-.186.159-.37.314-.557.475-.432.375-.865.759-1.3,1.144-.173.152-.344.3-.516.455q-.91.813-1.824,1.658c-12.974,11.976-24.078,35.181-35.454,59.672q-.853,1.836-1.708,3.682c-1.712,3.689-3.432,7.4-5.167,11.087-2.892,6.152-5.829,12.26-8.843,18.169q-1.808,3.544-3.657,6.984-.924,1.719-1.86,3.4t-1.861,3.331c-1.541,2.747-3.051,5.421-4.489,8.035q-.862,1.568-1.687,3.108t-1.6,3.056c-1.294,2.527-2.483,5-3.524,7.445q-.624,1.465-1.176,2.912a46.972,46.972,0,0,0-3.112,12.8q-.057.7-.085,1.4t-.027,1.4q0,.7.035,1.4c.022.467.054.935.1,1.4a30.278,30.278,0,0,0,.693,4.214q.336,1.407.815,2.819a34.718,34.718,0,0,0,2.549,5.689q.8,1.432,1.765,2.878t2.114,2.908A62.018,62.018,0,0,0,153.3,684.2q2.291,2.253,5.038,4.558,1.834,1.537,3.88,3.1,4.1,3.13,9.086,6.381c5.834,3.8,12.624,7.728,20.484,11.833,23.579,12.314,41.14,14.913,54.291,11.86a40,40,0,0,0,7.046-2.331,39.115,39.115,0,0,0,7.56-4.388q1.38-1.022,2.662-2.146.641-.562,1.258-1.147,1.235-1.17,2.374-2.426a55.338,55.338,0,0,0,6.933-9.614,76.349,76.349,0,0,0,4.443-9.119q.638-1.553,1.215-3.115c.576-1.56,1.109-3.121,1.6-4.67q.246-.775.479-1.545c.622-2.055,1.175-4.083,1.671-6.056q.186-.74.361-1.469c.585-2.431,1.085-4.765,1.522-6.948A147.405,147.405,0,0,1,292.913,642.051Z" transform="translate(-8.124 -13.999)"/><path class="i" d="M292.962,473.976l21.53-32.861s-6.044-33.616,20.018-51.368,62.457,15.742,62.7,30.216c.33,19.735-10.661,26.238-9.113,33.711.8,3.872,5.855,7.555-.189,13.22-5.081,4.764-10.718-.85-10.718-.85s-9.915,17.847-18.035,18.7c-13.544,1.418-18.98-11.143-18.98-11.143l-10.953,21.152s7.554,12.465,0,15.109S306.182,498.9,292.962,473.976Z" transform="translate(-26.291 -1.42)"/><path class="j" d="M302.329,489.324l22.334-27.674s-3.624,12.108,10.895,20.868l4.619-8.92s5.217,12.034,18.149,11.2c-11.7-10.475-27.436-33.662,4.013-68.529A62.331,62.331,0,0,1,384.825,400c-12.976-12.1-33.735-21.544-50.315-10.25-26.062,17.752-20.018,51.368-20.018,51.368l-21.53,32.861A142.618,142.618,0,0,0,302.329,489.324Z" transform="translate(-26.291 -1.42)"/><path class="i" d="M298.418,730.179c-5.62-3.692-18.463-13.213-31.764-30.578-17.771-23.2-26.163-32.58-36.035-39.49,0,0,17.277-39,26.656-57.756s7.888-35.583,13.812-45.456,28.64-36.981-13.319-53.765c0,0-20.733-4.936-45.908,27.644s-54.794,126.864-48.377,146.116c6.358,19.073,19.512,35.241,114.788,68.658" transform="translate(-10.819 -15.446)"/><path class="i" d="M290.989,774.13s9.01,6.647,13.4,9.9,9.773,2.266,13.739,5.807,7.352,14.206,10.906,11.757c2.693-1.855-5.665-16.006-5.665-16.006s6.8,2.974,9.915,7.648,4.408,5.542,5.949,3.966c2.257-2.308-3.683-11.472-9.49-16.289,0,0,6.091,2.692,9.206,6.8s5,6.763,6.94,5.1c2.371-2.035-2.691-12.039-9.631-17,0,0,6.232,2.124,9.915,5.382s4.994,3.247,5.807,1.416c1.129-2.541-2.55-7.224-10.764-11.473,0,0,4.108,0,4.674-2.974s-.566-2.975-3.966-2.692-8.357,1.842-14.306-.283-13.546-7.035-20.344-6.894Z" transform="translate(-26.057 -45.76)"/><path class="h" d="M253.908,683.377c-9.745-11.939-16.129-18.255-23.289-23.267,0,0,45.933-91.712,51.856-101.585s17.253-38.608-24.706-55.392c0,0-20.733-4.936-45.908,27.644s-54.794,126.864-48.377,146.116c4.667,14,13,26.435,54.773,45.273C222.953,714,234.518,696.558,253.908,683.377Z" transform="translate(-10.819 -15.446)"/><path class="f" d="M332.748,397.486s4.816-22.945-12.747-24.645-24.645,15.014-22.379,24.929,10.765,14.448,24.362,12.747Z" transform="translate(-26.795 0)"/><path class="g" d="M337.327,389.749c-24.258,16.522-20.7,46.774-20.094,50.886a25.131,25.131,0,0,0,23.21-6.883c10.228-10.228,13.412-3.223,13.829-2.126A11.7,11.7,0,0,1,359.8,429.6c1.575-.061,2.347.561,2.678,1.43a39.382,39.382,0,0,1,7.992-4.358s-2.677-12.012,5.754-16.875c6.233-3.936,15.9-3.509,23.836,8.431C398.964,403.1,362.387,372.678,337.327,389.749Z" transform="translate(-29.108 -1.421)"/><path class="f" d="M341.619,432.628c.195-.179.389-.356.578-.523.108-.094.212-.182.319-.272.17-.145.339-.29.505-.425.108-.088.214-.171.321-.255.159-.125.316-.248.471-.364.1-.078.206-.152.309-.226.152-.11.3-.216.451-.316.1-.066.195-.132.291-.195.15-.1.3-.19.442-.279.087-.054.175-.108.262-.158.153-.09.3-.171.451-.251.073-.039.148-.081.219-.117.176-.091.348-.171.517-.248.039-.018.08-.039.12-.055a8.94,8.94,0,0,1,1.2-.431c.048-.013.093-.023.138-.034.138-.036.276-.069.408-.1l.165-.028c.12-.02.239-.039.354-.051.056-.007.111-.011.166-.015.11-.01.219-.016.325-.019.053,0,.106,0,.158,0,.1,0,.208,0,.308.011l.143.011c.1.011.2.025.3.041.041.007.083.012.122.02.106.02.208.046.308.072l.085.022a4.258,4.258,0,0,1,.723.283l.017.01c.1.052.2.108.3.166l.078.05c.073.047.145.094.212.144l.093.07c.059.045.117.091.174.138.033.027.064.055.1.083.051.045.1.09.149.137.032.03.063.061.093.092s.087.09.129.135.061.065.089.1.074.086.11.13.058.07.085.1l.09.12c.028.039.057.077.084.115s.034.05.051.076a6,6,0,0,1,.332.543v0c.034.063.065.123.094.182,2.763-4.687,4-16.871,8.7-22.084,7.067-7.836,16.47-14.335,24.894-9.041-8.44-7.867-20.171-14.607-31.9-15.257-.226-.011-.452-.023-.678-.03-.111,0-.222,0-.333-.007h0c-.537-.01-1.072,0-1.607.011l-.226.007c-.523.019-1.045.048-1.566.093l-.042,0a30.737,30.737,0,0,0-3.324.472l-.133.027a28.7,28.7,0,0,0-4.9,1.455l-.052.021q-.8.32-1.6.694c-.162.078-.324.151-.486.231-.042.021-.085.045-.127.067-.2.1-.4.2-.6.309q-.414.221-.824.457-.2.114-.4.231c-.047.027-.093.053-.139.081-.466.281-.93.572-1.389.886q-1.182.805-2.274,1.653c-.148.114-.286.232-.427.348-.093.075-.183.151-.276.226-.476.383-.953.766-1.4,1.16-.192.168-.37.342-.559.512-.069.064-.138.127-.208.191-.4.365-.8.73-1.177,1.1-.144.141-.279.285-.418.428q-.167.169-.331.34c-.353.365-.706.73-1.042,1.1-.241.266-.47.537-.7.806-.319.371-.636.744-.939,1.12-.138.172-.27.345-.4.518-.08.1-.16.205-.24.308-.293.383-.58.766-.856,1.152q-.3.414-.578.831-.4.593-.785,1.192c-.174.273-.345.548-.512.824q-.373.615-.721,1.235c-.152.268-.3.536-.447.806-.231.428-.45.858-.665,1.288l-.237.479c-.047.1-.1.193-.143.289-.216.453-.42.908-.619,1.362-.1.234-.21.468-.308.7-.208.5-.4.991-.592,1.486-.074.193-.153.386-.225.579-.213.577-.411,1.153-.6,1.727-.018.054-.036.107-.056.16s-.04.114-.058.171c-.1.3-.187.607-.279.911-.087.287-.175.575-.257.862-.09.316-.174.63-.258.945-.072.271-.143.542-.21.812q-.119.471-.229.94c-.062.267-.119.531-.176.8-.067.308-.137.619-.2.925-.008.041-.015.081-.023.122s-.014.081-.023.122c-.113.579-.219,1.154-.313,1.721-.018.111-.033.22-.051.331l-.012.078c-.08.508-.157,1.013-.223,1.51-.022.161-.04.319-.06.479-.058.465-.114.927-.16,1.381-.014.134-.026.266-.039.4l-.011.107c-.041.437-.079.87-.112,1.295q-.018.252-.035.5-.042.623-.072,1.225c-.008.163-.015.325-.022.486q-.025.592-.039,1.163c0,.093,0,.186-.006.279,0,.059,0,.12,0,.179-.006.377-.01.746-.01,1.107v.409c0,.364.008.716.015,1.059l0,.131c0,.077,0,.156.005.231.01.347.022.68.036,1.006,0,.1.008.2.012.3.016.341.035.665.055.977,0,.068.008.141.012.207.024.356.05.692.077,1.008l0,.051q.043.5.088.932l0,.037c.007.059.013.113.019.172.02.192.042.382.061.548s.037.3.055.434c.007.055.015.116.021.167.023.169.044.319.063.442a25.132,25.132,0,0,0,23.21-6.883c.3-.3.6-.592.895-.866C341.434,432.8,341.526,432.715,341.619,432.628Z" transform="translate(-29.109 -1.422)"/><ellipse class="j" cx="9.928" cy="7.365" rx="9.928" ry="7.365" transform="matrix(0.514, -0.858, 0.858, 0.514, 305.166, 434.256)"/><path class="g" d="M362.965,435.383c-1.9.073-.338-2.754-2.02-1.69a21.092,21.092,0,0,1-2.355.614s-14.133,16.561-14.982,26.193a41.3,41.3,0,0,0,2.329,19.31l.22-.425s5.435,12.561,18.979,11.143c7.467-.781,16.445-15.923,17.843-18.357a11.7,11.7,0,0,0-10.194-8.271c-10.482-1.133-17.847-7.082-15.3-16.713,1.175-4.44,4.7-7.914,8.155-10.373C365.312,435.945,364.54,435.322,362.965,435.383Z" transform="translate(-32.272 -7.208)"/><path class="f" d="M364.306,490.7c-10.274-9.2-23.666-28.217-5.446-56.342l-.271.06s-14.133,16.561-14.982,26.193a41.3,41.3,0,0,0,2.329,19.31l.22-.425S351.374,491.526,364.306,490.7Z" transform="translate(-32.272 -7.315)"/><path class="j" d="M472,531.643s-20.962,22.662-36.259,36.827c-2.165,2-4.13,3.821-5.921,5.473a80.156,80.156,0,0,0,25.109,40.093c21.486-28.4,36.335-65.4,36.335-65.4Z" transform="translate(-42.533 -18.861)"/><path class="i" d="M492.4,513.576c2.012-3.286-1.125-9.808,4.363-8.079s5.642,9.116,5.642,9.116a24.969,24.969,0,0,1,15.674-2.16c9.329,1.556,7.859,5.736,8.024,8.346,0,0,4.315-2.089,5.778,2.408s.617,7.284.617,7.284,2.378,1.565-1.1,7.963-9.469,5.939-9.791-.642c0,0-.13,11.334-5.618,9.951s-.7-5.524-.7-5.524Z" transform="translate(-49.96 -15.724)"/><path class="a" d="M444.839,553.714S450.5,559,447.1,582.8s-25.306,95.183,6.044,138.62,81.585,63.455,98.582,82.718,54.012,22.662,71.764,4.155,26.44-47.591,6.043-80.074S569.86,681,554.752,661.739s-27.2-44.948-47.969-60.056c0,0-13.22-26.062-.378-46.836Z" transform="translate(-43.326 -21.48)"/><path class="b" d="M453.149,721.417a176.353,176.353,0,0,0,27.861,29.944,6.26,6.26,0,0,0,1.051-.945c1.387-1.594,1.834-3.777,2.21-5.857q2.015-11.139,3.249-22.4l-15.677-70.28a25.949,25.949,0,0,0,13.221-15.995c1.7-2.144-4.184-3.368-7.167-1.8-13.029,6.835-24.726,26-25.44,40.776a83.3,83.3,0,0,1-1.262-40.654c2.622-11.9,7.893-23.448,7.534-35.628-.1-3.325,1.973-21.441,18.71-20.569,16.116.839,15.023-12.935,1.14-8.373-12.356.867-10-7.024-20.093-14.2-.689-.489-1.385-1-2.09-1.507l-11.557-.213S450.5,559,447.106,582.8,421.8,677.98,453.149,721.417Z" transform="translate(-43.326 -21.48)"/><path class="b" d="M583.144,797l-44.935-34.443c9.964-11.965,26.039-16.527,41.1-20.469.877-5.6-11.549-6.137-15.6-5.96-16.472.716-26.642,12.671-30.5,19.3-3.771,6.478-3.063,14.576-5.268,21.74a75.971,75.971,0,0,1-21.517-16.989L497.163,780.4c25.082,19.738,50.6,32.723,61.767,45.379,6.04,6.846,14.613,11.676,23.947,14.243a14.647,14.647,0,0,0,1.929-1.939c4.508-5.477,4.373-13.424,2.789-20.337S583.209,804.093,583.144,797Z" transform="translate(-50.525 -43.126)"/><path class="k" d="M556.728,776.037C532.662,764,491.407,707.278,474.217,687.51s6-31.531-6.016-42.974c-5.281-5.031-24.926,23.206-24.926,23.206l-6.485-7.566c-1.348,24.927,1.619,51.526,16.358,71.948,31.35,43.437,81.585,63.455,98.582,82.718,16.687,18.912,52.657,22.518,70.762,5.129C609.288,810.107,575.756,785.551,556.728,776.037Z" transform="translate(-43.326 -32.188)"/><path class="d" d="M457.131,738.091c.772.977,1.546,1.952,2.336,2.9.313.377.634.743.95,1.116.792.937,1.586,1.871,2.393,2.784.292.329.589.65.882.976.852.949,1.707,1.892,2.575,2.816.248.264.5.522.747.783.932.98,1.869,1.953,2.817,2.906.189.19.38.376.569.566q1.535,1.529,3.089,3.018c.123.117.247.233.37.35q1.674,1.588,3.368,3.127l.165.149q1.8,1.63,3.619,3.205h0a6.266,6.266,0,0,0,1.051-.945c1.387-1.594,1.834-3.777,2.21-5.857q2.015-11.139,3.249-22.4l-8.974-40.229c-1.57-1.9-3.02-3.62-4.33-5.126-14.816-17.039.36-28.129-2.856-38.195-10.18,8.759-18.312,24-18.9,36.247a83.242,83.242,0,0,1-3.128-25.93c-3.5,4.448-6.054,8.11-6.054,8.11l-6.485-7.566h0c-.034.6-.061,1.21-.088,1.816-.01.2-.02.4-.028.6-.023.541-.041,1.083-.06,1.626-.01.266-.02.531-.028.8-.015.507-.026,1.015-.038,1.523q-.011.457-.02.915-.012.731-.018,1.465c0,.324-.007.647-.008.971,0,.475,0,.95,0,1.426,0,.341,0,.682.006,1.023q.007.7.019,1.391.009.529.022,1.057.016.685.039,1.37.017.539.038,1.08.026.674.058,1.349.027.551.057,1.1.036.665.077,1.329c.024.373.05.745.077,1.118.031.439.063.879.1,1.318.03.376.063.753.1,1.129.038.433.076.865.117,1.3.038.383.079.767.12,1.151.045.425.089.85.138,1.275.045.388.1.776.143,1.162.052.419.1.838.159,1.256.054.4.114.8.172,1.2s.114.808.175,1.211c.069.446.145.89.22,1.335.084.508.169,1.014.26,1.52.113.628.226,1.257.35,1.883.066.336.139.671.208,1.006.094.458.187.917.287,1.374.078.355.162.709.244,1.063.1.434.2.868.3,1.3.087.361.182.718.272,1.078.108.424.215.848.328,1.27.1.36.2.719.3,1.079.117.417.234.834.356,1.249.106.36.216.717.326,1.073.127.413.255.827.387,1.238.115.355.233.709.351,1.062q.206.613.42,1.225c.123.352.25.7.378,1.053q.222.607.452,1.212.2.521.4,1.04.239.6.487,1.2c.142.343.285.685.432,1.026.171.4.347.8.524,1.193.151.335.3.67.456,1,.185.4.375.795.568,1.191.158.326.315.652.478.977.2.4.407.8.614,1.192.165.316.328.631.5.945.218.4.444.8.669,1.2.17.3.336.6.509.9.242.416.494.828.744,1.239.168.277.332.556.5.831.284.454.579.9.873,1.352.149.226.293.456.444.682q.677,1.008,1.39,2,1.518,2.1,3.094,4.132C456.534,737.356,456.837,737.718,457.131,738.091Z" transform="translate(-43.326 -32.912)"/><path class="d" d="M560.821,830.82q.568.56,1.161,1.1c.147.134.292.271.441.4q.767.681,1.567,1.327c.167.133.339.262.507.393q.578.452,1.171.887.354.259.713.512c.36.253.727.5,1.1.743.315.208.631.415.952.616q.669.42,1.352.82c.331.194.667.38,1,.566q.4.222.806.437c.369.2.739.391,1.115.577.186.093.375.181.561.271q1.2.583,2.443,1.11c.146.063.293.127.44.189q.7.287,1.4.556c.149.057.3.112.447.167q2.263.845,4.608,1.5l.278.077a14.7,14.7,0,0,0,1.926-1.936c4.508-5.477,4.373-13.424,2.789-20.337-1.489-6.505-4.058-12.856-4.411-19.491a221.208,221.208,0,0,0-19.258-11.281c-9.049-4.525-20.529-15.369-32.247-28.193-2.073,5.792-1.894,12.412-3.733,18.385a75.972,75.972,0,0,1-21.517-16.989l-9.268,20.223c.168.132.337.261.5.393q1.329,1.039,2.657,2.054.49.375.981.747,1.479,1.122,2.958,2.217c.235.175.471.346.706.518q1.229.9,2.454,1.789.505.366,1.01.729,1.441,1.034,2.872,2.044c.3.212.6.419.9.629q1.108.776,2.208,1.539l1.08.747q1.362.937,2.71,1.856l1.154.782q.923.625,1.837,1.242l1.245.838,2.368,1.585c3.451,2.3,6.786,4.511,9.966,6.646l.1.07q1.436.964,2.826,1.909l.382.261q1.239.844,2.44,1.674l.325.225q1.27.882,2.49,1.748l.49.351q1.1.783,2.151,1.557l.3.218c.761.561,1.5,1.118,2.225,1.672l.489.377c.66.509,1.307,1.017,1.934,1.522.072.059.149.118.221.177.672.544,1.319,1.086,1.95,1.625.152.128.3.258.449.387.595.516,1.176,1.032,1.73,1.545.036.033.076.067.112.1.576.535,1.123,1.069,1.653,1.6q.194.2.384.392c.524.537,1.033,1.075,1.506,1.612s.951,1.039,1.445,1.542C560.522,830.526,560.672,830.673,560.821,830.82Z" transform="translate(-50.525 -46.18)"/><path class="f" d="M209.179,868c-11.376.572-23.082,1.748-33.916-1.77a32.938,32.938,0,0,1-10.535-5.756c2.155,7.928,7.52,15.562,19.438,18.968,29.745,8.5,79.885,4.249,112.179,7.649,12.38,1.3,28.008,3.727,43.578,3.639A304.421,304.421,0,0,0,209.179,868Z" transform="translate(-11.072 -57.886)"/><path class="a" d="M628.223,766.692s-34.274-40.639-77.361-19.1,15.668,84.215,15.668,84.215-2.448-8.813.49,3.427-17.626,9.3-17.626,9.3-40.639-5.875-36.722,10.773,22.523,7.834,49.452,7.344,46.024,5.876,52.39-4.407,5.386,1.469,3.917-16.157C618.431,842.094,670.331,819.082,628.223,766.692Z" transform="translate(-52.334 -43.742)"/><path class="a" d="M483.238,648.847s-23.174,23.783-21.344,43.908,12.806,50.006,14.025,61.593-.61,51.226-.61,51.226,1.22,19.514-7.928,24.393-21.344-3.659-21.344,8.537,4.878,11.587,23.783,9.147,15.246-18.9,21.344-37.81,23.173-56.1,21.954-73.18-10.367-43.3-4.878-60.983S507.021,637.26,483.238,648.847Z" transform="translate(-44.458 -32.372)"/><path class="a" d="M421.92,497.529c-5.066,4.728-6.071,20.078-1.867,27.316,0,0-1.4,14.008,6.77,17.043s16.138,7.421,21.041,13.023,19.349,10.323,34.29,8.222,26.382-12.841,28.483-26.148-2.8-20.078-9.572-22.413-25.214-11.441-32.451-10.039-9.806,6.77-15.409,4.2S425.422,494.26,421.92,497.529Z" transform="translate(-41.062 -14.745)"/><path class="b" d="M454.336,540.929c.2-1.79-8.144-7.03-11.685-8.789-3.287-1.633-6.8-3.67-8.009-7.136-1.585-4.538,1.423-9.27,2.248-14a15.714,15.714,0,0,0-2.33-10.987c-5.839-2.389-11.084-3.935-12.64-2.483-5.066,4.728-6.071,20.078-1.867,27.316,0,0-1.4,14.008,6.77,17.043a74.829,74.829,0,0,1,9.189,4.1c.412-.027,5.568,2.3,11.043,2.673C456.383,549.348,454.149,542.6,454.336,540.929Z" transform="translate(-41.062 -14.745)"/><path class="b" d="M519.285,512.666s-3.736-2.568-8.639,7.7-14.008,20.312-9.1,24.981,14.241.234,23.58-3.736,12.374-7.937,9.106-12.606S523.254,513.6,519.285,512.666Z" transform="translate(-50.878 -16.575)"/><path class="l" d="M434.83,500.119c-5.942-2.449-11.321-4.065-12.9-2.59-2.563,2.392-4.084,7.5-4.42,12.9C422.062,510.688,429.982,509.585,434.83,500.119Z" transform="translate(-41.072 -14.745)"/><ellipse class="l" cx="3.486" cy="2.136" rx="3.486" ry="2.136" transform="translate(425.967 505.126) rotate(-60.1)"/><path class="f" d="M253.319,772.795" transform="translate(-21.586 -47.48)"/><path class="f" d="M418.212,823.9" transform="translate(-41.156 -53.546)"/></g></svg>