<svg xmlns="http://www.w3.org/2000/svg" xmlns:xlink="http://www.w3.org/1999/xlink" width="80" height="80" viewBox="0 0 80 80"><defs><style>.a,.c{fill:#fff;}.a{stroke:#707070;}.b{clip-path:url(#a);}</style><clipPath id="a"><rect class="a" width="80" height="80" transform="translate(560 4414.714)"/></clipPath></defs><g class="b" transform="translate(-560 -4414.714)"><g transform="translate(560 4415)"><g transform="translate(6.643 26.571)"><path class="c" d="M20.624,34.667H10A1.329,1.329,0,0,0,8.667,36V46.624A1.329,1.329,0,0,0,10,47.952H20.624a1.329,1.329,0,0,0,1.329-1.329V36A1.329,1.329,0,0,0,20.624,34.667ZM19.3,45.3H11.324V37.324H19.3Z" transform="translate(-8.667 -34.667)"/></g><g transform="translate(23.914 26.571)"><path class="c" d="M43.157,34.667H32.529A1.329,1.329,0,0,0,31.2,36V46.624a1.329,1.329,0,0,0,1.329,1.329H43.157a1.329,1.329,0,0,0,1.329-1.329V36A1.329,1.329,0,0,0,43.157,34.667ZM41.828,45.3H33.857V37.324h7.971Z" transform="translate(-31.2 -34.667)"/></g><g transform="translate(42.514 26.571)"><path class="c" d="M67.424,34.667H56.8A1.329,1.329,0,0,0,55.467,36V46.624A1.329,1.329,0,0,0,56.8,47.952H67.424a1.329,1.329,0,0,0,1.329-1.329V36A1.329,1.329,0,0,0,67.424,34.667ZM66.1,45.3H58.124V37.324H66.1Z" transform="translate(-55.467 -34.667)"/></g><g transform="translate(59.785 26.571)"><path class="c" d="M89.957,34.667H79.329A1.329,1.329,0,0,0,78,36V46.624a1.329,1.329,0,0,0,1.329,1.329H89.957a1.329,1.329,0,0,0,1.329-1.329V36A1.329,1.329,0,0,0,89.957,34.667ZM88.628,45.3H80.657V37.324h7.971Z" transform="translate(-78 -34.667)"/></g><g transform="translate(6.643 42.514)"><path class="c" d="M20.624,55.467H10A1.329,1.329,0,0,0,8.667,56.8V67.424A1.329,1.329,0,0,0,10,68.752H20.624a1.329,1.329,0,0,0,1.329-1.329V56.8A1.329,1.329,0,0,0,20.624,55.467ZM19.3,66.1H11.324V58.124H19.3Z" transform="translate(-8.667 -55.467)"/></g><g transform="translate(42.514 42.514)"><path class="c" d="M67.424,55.467H56.8A1.329,1.329,0,0,0,55.467,56.8V67.424A1.329,1.329,0,0,0,56.8,68.752H67.424a1.329,1.329,0,0,0,1.329-1.329V56.8A1.329,1.329,0,0,0,67.424,55.467ZM66.1,66.1H58.124V58.124H66.1Z" transform="translate(-55.467 -55.467)"/></g><g transform="translate(59.785 42.514)"><path class="c" d="M89.957,55.467H79.329A1.329,1.329,0,0,0,78,56.8V67.424a1.329,1.329,0,0,0,1.329,1.329H89.957a1.329,1.329,0,0,0,1.329-1.329V56.8A1.329,1.329,0,0,0,89.957,55.467ZM88.628,66.1H80.657V58.124h7.971Z" transform="translate(-78 -55.467)"/></g><g transform="translate(6.643 58.457)"><path class="c" d="M20.624,76.267H10A1.329,1.329,0,0,0,8.667,77.6V88.224A1.329,1.329,0,0,0,10,89.552H20.624a1.329,1.329,0,0,0,1.329-1.329V77.6A1.329,1.329,0,0,0,20.624,76.267ZM19.3,86.9H11.324V78.924H19.3Z" transform="translate(-8.667 -76.267)"/></g><g transform="translate(23.914 58.457)"><path class="c" d="M43.157,76.267H32.529A1.329,1.329,0,0,0,31.2,77.6V88.224a1.329,1.329,0,0,0,1.329,1.329H43.157a1.329,1.329,0,0,0,1.329-1.329V77.6A1.329,1.329,0,0,0,43.157,76.267ZM41.828,86.9H33.857V78.924h7.971Z" transform="translate(-31.2 -76.267)"/></g><g transform="translate(42.514 58.457)"><path class="c" d="M67.424,76.267H56.8A1.329,1.329,0,0,0,55.467,77.6V88.224A1.329,1.329,0,0,0,56.8,89.552H67.424a1.329,1.329,0,0,0,1.329-1.329V77.6A1.329,1.329,0,0,0,67.424,76.267ZM66.1,86.9H58.124V78.924H66.1Z" transform="translate(-55.467 -76.267)"/></g><g transform="translate(59.785 58.457)"><path class="c" d="M89.957,76.267H79.329A1.329,1.329,0,0,0,78,77.6V88.224a1.329,1.329,0,0,0,1.329,1.329H89.957a1.329,1.329,0,0,0,1.329-1.329V77.6A1.329,1.329,0,0,0,89.957,76.267ZM88.628,86.9H80.657V78.924h7.971Z" transform="translate(-78 -76.267)"/></g><g transform="translate(24.022 42.496)"><path class="c" d="M43.828,55.621a1.333,1.333,0,0,0-1.82.492l-5.46,9.977-2.8-4.663a1.329,1.329,0,0,0-2.285,1.329L35.444,69.4a1.258,1.258,0,0,0,2.232,0l6.643-11.957A1.333,1.333,0,0,0,43.828,55.621Z" transform="translate(-31.341 -55.443)"/></g><path class="c" d="M78.385,10.628h-9.3v-9.3A1.329,1.329,0,0,0,67.757,0H59.785a1.329,1.329,0,0,0-1.329,1.329v9.3H45.171v-9.3A1.329,1.329,0,0,0,43.842,0H35.871a1.329,1.329,0,0,0-1.329,1.329v9.3H21.257v-9.3A1.329,1.329,0,0,0,19.928,0H11.957a1.329,1.329,0,0,0-1.329,1.329v9.3h-9.3A1.329,1.329,0,0,0,0,11.957V73.071a6.643,6.643,0,0,0,6.643,6.643H73.071a6.643,6.643,0,0,0,6.643-6.643V11.957A1.329,1.329,0,0,0,78.385,10.628ZM61.114,2.657h5.314V15.943H61.114Zm-23.914,0h5.314V15.943H37.2Zm-23.914,0H18.6V15.943H13.286ZM77.057,73.071a3.986,3.986,0,0,1-3.986,3.986H6.643a3.986,3.986,0,0,1-3.986-3.986V23.914h74.4Zm0-51.814H2.657V13.286h7.971v3.986A1.329,1.329,0,0,0,11.957,18.6h7.971a1.329,1.329,0,0,0,1.329-1.329V13.286H34.543v3.986A1.329,1.329,0,0,0,35.871,18.6h7.971a1.329,1.329,0,0,0,1.329-1.329V13.286H58.457v3.986A1.329,1.329,0,0,0,59.785,18.6h7.971a1.329,1.329,0,0,0,1.329-1.329V13.286h7.971Z"/></g></g></svg>