<svg xmlns="http://www.w3.org/2000/svg" width="909.902" height="1339.919" viewBox="0 0 909.902 1339.919"><defs><style>.a{fill:#0095db;}.b{fill:#fab609;}.c{fill:#ea8d07;}.d{fill:#ac7b60;}.e{fill:#965b48;}.f{fill:#ea2d24;}.g{fill:#bf1313;}.h{fill:#152d72;}.i{fill:#824d43;}.j{fill:#e0c749;}.k{fill:#213a8f;}.l{fill:#f7ebad;}.m{fill:#d8c67c;}.n{fill:#d09928;}.o{fill:#f4eed7;}.p{fill:#1d1d1b;}</style></defs><g transform="translate(360.973 -6790.22)"><path class="a" d="M303.765,20.328l-.5-.173C226.836-6.187,139.431-7.78,63.729,21.745,12.528,41.713-9.868,81.154,4.06,138.161A187.907,187.907,0,0,0,49.48,222.2c16.216,17.158,35.649,30.961,50.1,49.79a125.977,125.977,0,0,1,25.49,75.015c.242,33.194-12.361,64.742-21.948,96.364-12.1,39.918-18.074,84.1,8.755,118.938,15.857,20.593,38.051,34.615,60.565,46.477,41.02,21.614,85.3,37.619,131.051,40.975,72.466,5.316,136.957-25.911,186.153-80.965,13.792-15.435,27.773-31.148,36.906-50.035,9.532-19.712,13.3-41.873,16.7-63.7,8.777-56.342,12.269-105.859-16.2-156.9-16.378-29.369-35.716-54.783-49.5-86.2-15.089-34.394-28.028-70.239-49.445-101.034C397.839,67.406,352.422,37.2,303.765,20.328Z" transform="translate(223.755 7628.206) rotate(-150)"/><g transform="translate(-189.477 6811.529) rotate(8)"><path class="b" d="M195.167,15.818S233.5,105.882,176.321,243.6c-40.94,98.6-51.487,115.608-59.761,152.843S51.744,600.542,54.5,633.64s17.7,52.288,30.89,59.9,44.649,10.656,45.663,19.28-9.64,15.221-34.5,16.236-26.383-10.147-47.693-11.161S-2.386,721.951.151,704.7s20.8-83.21,14.714-124.815-18.255-122.814.445-182.98S47.835,287.141,30.76,162.742,66.534,10.7,103.936,6.631,175.007-9.959,195.167,15.818Z" transform="translate(269.872 535.325)"/><path class="c" d="M.151,704.7c2.537-17.25,20.8-83.21,14.714-124.815s-18.255-122.814.445-182.98S47.835,287.141,30.76,162.742,66.534,10.7,103.936,6.631s71.07-16.59,91.231,9.186c0,0,3.419,8.053,6.691,23-27.81,35.865-46.556,53.745-62.288,89.3-22.68,51.259-36.739,118.084-42.844,150.4-10.684,43.166-16.3,84.161-26.139,112.449-15.6,44.85-54.249,245.778-22.381,326.9C26.942,716.982-2.359,721.777.151,704.7Z" transform="translate(269.872 535.325)"/><path class="d" d="M.151,243.73c2.537-17.25,20.8-83.209,14.714-124.814C10.78,91,3.972,45.256,5.574,0c35.887,14.377,65.34,18.435,86.867,18.553C74.125,79.36,52.781,152.027,54.5,172.669c2.758,33.1,17.7,52.288,30.89,59.9s44.649,10.656,45.664,19.28-9.64,15.221-34.5,16.236-26.383-10.147-47.693-11.162S-2.385,260.98.151,243.73Z" transform="translate(269.872 996.296)"/><path class="e" d="M14.859,118.915c-.144-.983-.295-2.008-.444-3.035-.07-.476-.14-.962-.211-1.447-.128-.87-.258-1.764-.388-2.662-.095-.655-.19-1.315-.287-1.985-.123-.85-.247-1.714-.371-2.586-.095-.663-.19-1.333-.286-2.007-.082-.583-.166-1.177-.249-1.771q-.286-2.039-.575-4.149c-.057-.411-.113-.818-.169-1.232q-.188-1.393-.378-2.813c-.039-.291-.077-.584-.116-.876q-.626-4.722-1.242-9.731l-.023-.192C7.079,59.51,4.518,29.651,5.568,0h0A272.005,272.005,0,0,0,51.234,13.972C37.284,93.034,26.711,202.2,48.2,256.9h0c-9.134-.381-19.746.283-28.688-.183l-.163-.009c-.567-.03-1.124-.067-1.677-.107l-.281-.019c-.519-.04-1.026-.087-1.529-.137l-.357-.033c-.474-.051-.936-.107-1.4-.167-.138-.018-.28-.033-.416-.052-.43-.058-.849-.126-1.265-.195-.156-.027-.315-.049-.468-.076-.4-.07-.778-.149-1.16-.229-.159-.034-.324-.065-.481-.1-.363-.082-.71-.173-1.057-.266-.163-.043-.333-.081-.493-.127-.328-.094-.639-.2-.951-.3-.164-.054-.335-.1-.5-.161-.3-.105-.577-.223-.859-.339-.158-.064-.325-.125-.479-.193-.268-.119-.517-.252-.77-.382-.149-.077-.307-.148-.452-.229-.239-.134-.457-.281-.679-.425-.139-.091-.288-.174-.421-.271-.209-.148-.4-.311-.589-.47-.125-.105-.262-.2-.381-.312-.18-.164-.336-.344-.5-.521-.111-.119-.233-.23-.335-.355-.151-.183-.277-.383-.411-.578-.091-.133-.193-.258-.277-.4-.121-.2-.218-.425-.321-.641-.071-.147-.154-.285-.215-.438-.092-.227-.156-.471-.228-.71-.048-.161-.111-.312-.15-.479-.061-.255-.092-.533-.132-.8-.024-.168-.064-.325-.08-.5-.028-.3-.024-.63-.027-.952,0-.158-.018-.306-.011-.469a14.2,14.2,0,0,1,.143-1.544C2.681,226.48,20.947,160.52,14.859,118.915Z" transform="translate(269.879 996.296)"/><path class="b" d="M273.348,0S226.46,16.548,205.774,100.671s-30.339,172.384-64.816,219.272S70.625,448.2,66.488,504.738,55.455,609.548,41.665,638.507-13.5,726.769,4.43,747.454s43.11-4.385,72.808-100.59c24-77.738,48.55-81.446,81.648-144.884s37.235-77.227,73.09-108.945S338.164,284.088,372.641,195.827c0,0,93.777-23.444,95.155-115.841Z" transform="translate(0 478.053)"/><path class="c" d="M41.665,638.507c13.79-28.96,20.685-77.227,24.822-133.769s39.993-137.906,74.47-184.8S185.088,184.8,205.774,100.671,273.348,0,273.348,0l196.93,92.713c-.087,5.85-7.7,16.579-15.53,24.159-22.064,21.347-68.273,27.749-104.519,18.583C208.755,99.68,185.989,294.817,168.1,330.592s-63.42,73.176-73.176,138.221c-5.809,38.73,16.631,64.2,35.739,78.468C112.037,572.929,96,590.632,80.334,637.253c-6.6.264-13.377,3.976-19.558,13.689-17.9,28.124-41.814,61.275-51.23,101.028a23.167,23.167,0,0,1-5.116-4.515C-13.5,726.769,27.874,667.468,41.665,638.507Z" transform="translate(0 478.053)"/><path class="f" d="M96.552,66.759C71.691,67.774,70.169,56.612,48.859,55.6S-2.385,59.656.151,42.405C1.222,35.123,5.1,19.146,8.757,0c20.58,14.315,49.6,33.674,60,36.562,7.208,2,12.348-1.327,15.874-5.775.252.153.506.311.758.455,13.192,7.611,44.649,10.656,45.664,19.28S121.414,65.744,96.552,66.759Z" transform="translate(269.872 1197.621)"/><path class="g" d="M.511,40.186c.075-.426.153-.862.24-1.327.042-.226.087-.463.132-.7.094-.483.19-.98.292-1.5.043-.218.086-.436.132-.66.13-.652.267-1.324.412-2.029.019-.089.035-.173.054-.263C3.51,25.311,6.18,13.44,8.747.013L8.75,0c9.34,6.5,20.416,14.029,30.7,20.592,1.96,13.136,4.815,24.972,8.746,34.98h-.006c-4.883-.2-10.184-.111-15.432-.048l-1.816.019-1,.009q-1.582.011-3.139.008h-.546c-1.083-.006-2.154-.018-3.209-.042l-.3-.009c-1.1-.027-2.182-.064-3.238-.119H19.5l-.149-.006q-.859-.048-1.695-.11l-.267-.018c-.525-.041-1.04-.087-1.549-.138-.113-.011-.226-.02-.336-.032-.335-.035-.66-.078-.988-.118-.135-.018-.274-.032-.41-.049s-.28-.033-.416-.052c-.223-.03-.436-.067-.653-.1s-.412-.061-.615-.095c-.154-.025-.314-.048-.465-.075-.4-.07-.778-.149-1.16-.229-.159-.034-.324-.065-.481-.1-.109-.025-.211-.054-.317-.08-.252-.06-.5-.121-.742-.186-.163-.043-.33-.082-.49-.127-.331-.094-.645-.2-.961-.3-.162-.053-.329-.1-.486-.157-.3-.106-.582-.225-.865-.343-.158-.063-.321-.123-.474-.191-.035-.015-.066-.034-.1-.051-.231-.105-.452-.219-.673-.333-.148-.077-.3-.148-.448-.228-.239-.134-.457-.281-.679-.425-.139-.091-.288-.174-.421-.271-.114-.08-.215-.169-.32-.255s-.185-.145-.274-.22c-.125-.1-.258-.2-.376-.307-.18-.164-.336-.344-.5-.521-.111-.119-.231-.23-.335-.355s-.2-.29-.309-.434c-.033-.049-.07-.1-.1-.144-.091-.133-.194-.258-.277-.4-.075-.124-.129-.263-.2-.392-.04-.085-.085-.166-.125-.249-.071-.147-.154-.285-.215-.438-.092-.227-.156-.471-.228-.71-.048-.161-.111-.312-.15-.479-.062-.258-.094-.536-.133-.809-.024-.166-.063-.32-.078-.492-.029-.31-.025-.643-.027-.971,0-.151-.016-.293-.011-.449a14.185,14.185,0,0,1,.143-1.546c.075-.5.164-1.059.264-1.643C.44,40.579.477,40.377.511,40.186Z" transform="translate(269.879 1197.621)"/><path class="d" d="M4.43,277.091C-13.5,256.406,27.874,197.105,41.665,168.145S62.351,90.917,66.488,34.375A224.088,224.088,0,0,1,72.026,0c37.5,25.833,72.209,28.241,89,27.5-.7,1.353-1.414,2.719-2.144,4.119-33.1,63.437-57.651,67.146-81.648,144.884C47.54,272.706,22.358,297.778,4.43,277.091Z" transform="translate(0 948.416)"/><path class="e" d="M41.665,168.145c13.79-28.96,20.685-77.227,24.823-133.769.116-1.59.267-3.206.433-4.835.052-.506.11-1.017.166-1.527q.194-1.751.424-3.529c.071-.554.142-1.107.218-1.664q.285-2.066.617-4.165c.049-.315.091-.624.143-.94.264-1.633.555-3.283.861-4.943.123-.667.254-1.338.383-2.01q.309-1.607.643-3.226c.152-.739.3-1.476.463-2.218.245-1.146.5-2.3.766-3.453.142-.622.276-1.239.422-1.866a166.021,166.021,0,0,0,22,12.818c.847,30.762,20,51.678,36.635,64.1h0c-3.3,4.546-6.52,8.841-9.671,13.092l-.046.062-.956,1.293q-.338.455-.672.911l-.732.994q-.711.967-1.419,1.938l-.072.1q-.723.992-1.442,1.99c-.116.163-.234.326-.352.49q-.615.855-1.227,1.716c-.1.138-.2.277-.295.415q-1.543,2.176-3.063,4.4l-.11.162q-.706,1.034-1.408,2.083l-.194.29c-1.534,2.3-3.056,4.659-4.565,7.1l-.118.191q-.736,1.2-1.468,2.418l-.028.048q-1.537,2.571-3.057,5.284l-.033.059q-.742,1.328-1.481,2.7l-.043.08c-1.509,2.8-3.006,5.723-4.5,8.808l-.054.113c-1.486,3.084-2.965,6.328-4.436,9.759l-.061.143c-1.474,3.44-2.939,7.071-4.4,10.921l-.038.1q-.711,1.876-1.42,3.821l-.051.139q-1.465,4.02-2.923,8.358c-6.6.264-13.377,3.977-19.558,13.689-17.9,28.123-41.814,61.275-51.23,101.028h0c-.407-.257-.811-.539-1.212-.837-.059-.044-.12-.087-.18-.134-.407-.309-.811-.636-1.21-.989l-.008-.006c-.377-.334-.75-.693-1.121-1.065-.091-.09-.181-.181-.272-.274-.374-.386-.746-.784-1.114-1.209C-13.5,256.406,27.874,197.105,41.665,168.145Z" transform="translate(0 948.416)"/><path class="f" d="M4.429,42.81C-3.308,33.883,0,17.765,7.37,0,23.928,10.311,38.564,14.056,49.412,15.126,31.71,49.984,16.441,56.671,4.429,42.81Z" transform="translate(0.001 1182.697)"/><path class="g" d="M3.044,40.951a16.252,16.252,0,0,1-.935-1.668c-.053-.108-.105-.217-.156-.328a18.111,18.111,0,0,1-.735-1.82c-.027-.076-.048-.156-.073-.231q-.309-.949-.535-1.95c-.01-.047-.024-.092-.034-.139-.148-.687-.261-1.4-.352-2.12-.014-.114-.029-.228-.042-.343Q.062,31.28.023,30.161c-.005-.111-.006-.225-.009-.336-.02-.779-.02-1.571.014-2.382l0-.058c.035-.831.1-1.68.19-2.541.006-.063.011-.124.018-.187.091-.847.21-1.712.349-2.589.018-.106.034-.212.052-.319q.218-1.323.5-2.684c.013-.063.028-.128.042-.191q.611-2.857,1.5-5.866l.038-.13q.442-1.495.945-3.02l.056-.167C4.769,6.54,6,3.3,7.365,0A113.191,113.191,0,0,0,23.641,8.434a192.523,192.523,0,0,0-14.1,38.881c-.054-.034-.11-.066-.165-.1-.293-.19-.586-.392-.875-.6-.133-.095-.264-.187-.4-.288-.293-.224-.584-.468-.874-.713-.126-.109-.254-.21-.381-.322-.3-.267-.593-.551-.887-.842-.073-.072-.147-.138-.219-.211s-.139-.139-.209-.211c-.375-.386-.746-.784-1.114-1.209a16.134,16.134,0,0,1-1.205-1.6C3.161,41.123,3.1,41.04,3.044,40.951Z" transform="translate(0.006 1182.697)"/><path class="h" d="M17.349,1.88a27.485,27.485,0,0,1,28.683,5.5,27.483,27.483,0,0,1,6.686,28.428c3.425-.771,7.057,1.165,9.068,4.045s2.64,6.514,2.67,10.025A34.2,34.2,0,0,1,57.95,70.135,196.605,196.605,0,0,0,0,43.933L4.251,14.164Z" transform="translate(318.458 93.584)"/><path class="i" d="M28.425,281.254s77.046-16.456,100.235-45.628,21.692-68.07,8.976-100.982-26.928-74.8-28.425-88.266,1.5-45.628,1.5-45.628L89.014,0s-2.991,29.921-6.731,52.362S68.818,181.767,68.818,181.767L0,202.712Z" transform="translate(445.989 98.923)"/><path class="j" d="M52.835,80.368c-14.152,4.2-24.411,6.391-24.411,6.391L0,8.217,27,0C33.367,28.282,45.063,60.458,52.835,80.368Z" transform="translate(445.99 293.418)"/><path class="d" d="M112.2,143.935l-11.437-38.668S98.585,97.1,107.3,86.206s26.14-28.864,7.079-46.836c-.544-2.723,3.938-10.914-1.623-15.085-5.526-4.145-6.673,5.643-17.565.2S76.8-8.011,34.865,2.337-3.256,59.52,6,75.859s43.568,8.714,49.014,20.15,8.714,58.273,8.714,58.273Z" transform="translate(290.942 139.539)"/><path class="e" d="M6,75.855C-3.256,59.516-7.069,12.68,34.865,2.333,45.224-.223,53.475-.492,60.2.627c3.846,8.946,3.837,19.572-1.324,27.767a192.767,192.767,0,0,0,31.231,23.72c6.669,4.065,13.8,7.794,21.557,8.7a26.684,26.684,0,0,0,11.06-1.024C121.261,70.167,112.645,79.519,107.3,86.2c-8.714,10.892-6.536,19.061-6.536,19.061l.33,1.116c-6,2.674-12.21,4.971-16.369,9.923a19.172,19.172,0,0,0,.54,24.448l-4.9,9.977L63.73,154.279s-3.268-46.836-8.714-58.273S15.26,92.193,6,75.855Z" transform="translate(290.942 139.543)"/><path class="k" d="M.058,253.636C1.107,234.6,14.873,216.9,33.068,211.2c-16.33-10.764-23.925-33.122-17.531-51.605a33.577,33.577,0,0,1,7.985-13.144c8.26-8.065,20.736-9.956,32.277-9.7a58.181,58.181,0,0,1,10.1,1.09c-.2-.787-.379-1.577-.531-2.374-1.484-7.835-.745-16.333,3.429-23.128C76.875,99.181,87.729,91.211,102.407,96,99.393,94.078,80.716,84.342,91.43,64.7c7.318-13.415,22.827-5.941,25.871-4.064-6.27-7.161-12.984-16.035-10.566-25.241,2.048-7.79,10.119-12.54,18-14.222,10.3-2.2,23.119.8,27.084,10.563-5.186-13.711,6.922-29.889,21.492-31.5s26.912,5.095,34.924,17.493c18.44,28.538,3.378,51.655.024,56.415-1.973,2.8-4.708,5.044-6.388,8.028-3.29,5.841-1.863,13.225.817,19.369s6.53,11.843,8.095,18.362.095,14.483-5.685,17.876c-2.863,1.68-6.812,2.407-7.981,5.513-.728,1.936-.863,4.771.808,5.99,10.58,7.727,16.088,22.3,18.086,35.528,2.628,17.389-1.152,32.9-4.15,50.228l-23.754,13.576a52.575,52.575,0,0,1-6.588.575c8.664,13.842,17.749,27.438,21.841,43.126,5.307,20.341,1.578,41.817-2.17,62.5-2.3,12.676-4.8,25.851-12.486,36.193-14.2,19.12-42.968,22.634-64.885,13.321-11.422-4.853-22.751-15.346-20.642-27.576-3.744,8.254-8.977,17.65-17.983,18.672-8.635.981-15.825-6.455-20.422-13.829-2.772-4.448-5.222-9.273-5.724-14.492s1.288-10.914,5.574-13.929c-10.694,6.349-23.673,12.179-35.144,7.374-10.943-4.582-16.126-17.246-17.636-29.013-2.567-20.009,3.961-42.875,21.53-52.789-9.037,1.162-19.246,1.7-26.157-4.236C1.428,269.548-.362,261.249.058,253.636Z" transform="translate(139.684 77.227)"/><path class="h" d="M2.736,88.072c6.65-13.24,15.177-26.018,42.087-18.723-1.561-7.687-4.9-15.934-3.058-23.558s9.4-14.6,16.914-16.859a17.283,17.283,0,0,1,14.144,2.344c.047-.2.1-.4.147-.612,1.343-6.411,1.091-13.734,4.737-19.426C82.777,3.321,94.565-1.244,103.6.3c9.7,1.657,18.317,10.346,18.867,20.345a17.838,17.838,0,0,1-.138,3.416c-.708,5.116-3.41,9.755-4.46,14.812-3.519,16.966,11.726,31.875,15.181,48.853a33.377,33.377,0,0,1,.545,4.2,11.144,11.144,0,0,1-2.962,2.554c-2.864,1.68-6.812,2.407-7.981,5.513-.729,1.936-.863,4.771.808,5.99,10.58,7.727,16.088,22.3,18.086,35.528,2.489,16.462-.767,31.243-3.664,47.475a78.231,78.231,0,0,1-33.532,13.106,74.4,74.4,0,0,1-45.034-8.6,72.859,72.859,0,0,1-12.706-8.761c-4.083-3.517-7.251-7.737-11.021-11.537-2.8-2.824-6.128-4.658-9.337-6.932-9.372-6.641-15.548-18.268-18.806-28.9C3.105,123.191-3.913,101.312,2.736,88.072Z" transform="translate(214.149 120.526)"/><path class="h" d="M33.534,126.868a24.579,24.579,0,0,1-13.84-3.974c.639-.416,1.289-.821,1.962-1.2-1.054.135-2.124.261-3.2.371-8.942-6.33-14.5-17.912-11.776-28.672,4.064-16.059,25.215-24.976,39.548-16.674C36.713,66.265,28.351,54.042,26.058,40.1S28.85,10.284,41.047,3.143C51.237-2.82,66.01.007,72.774,9.045q1.254,2.527,2.656,5.022c.114.336.225.674.32,1.021-.08-.29-.158-.583-.238-.874A103.975,103.975,0,0,0,89.337,33.422c21.548,23.6,71.633,29.087,113.567,29.089-.856,5.057-1.843,10.178-2.759,15.469L176.392,91.556a52.577,52.577,0,0,1-6.588.575c8.664,13.842,17.749,27.438,21.841,43.126,5.307,20.341,1.578,41.817-2.17,62.5-2.3,12.676-4.8,25.851-12.486,36.193-14.2,19.12-42.968,22.634-64.886,13.321-11.422-4.853-22.751-15.346-20.642-27.576-3.744,8.254-8.977,17.65-17.983,18.672-8.635.981-15.825-6.455-20.422-13.829-2.772-4.448-5.222-9.273-5.724-14.492s1.288-10.914,5.574-13.929C42.212,202.471,29.233,208.3,17.761,203.5,6.818,198.913,1.635,186.249.125,174.483c-.047-.366-.085-.734-.125-1.1A112.861,112.861,0,0,1,33.534,126.868Z" transform="translate(151.397 234.286)"/><ellipse class="e" cx="17.477" cy="14.064" rx="17.477" ry="14.064" transform="matrix(-0.829, -0.559, 0.559, -0.829, 333.102, 240.821)"/><path class="l" d="M195.38,18.022c23.126,36.47,47.143,70.271,32.912,99.624S187.374,163.9,195.38,190.584,223.844,268.86,214.06,291.1,159.8,327.567,92.2,306.219-15.855,231.356,5.917,193.253c10.675-18.68,66.713-44.475,66.713-44.475S23.707,31.365,93.978,8.238,195.38,18.022,195.38,18.022Z" transform="translate(255.683 283.742)"/><path class="m" d="M5.915,160.15c10.675-18.68,66.713-44.475,66.713-44.475S42,42.142,64.051,0A243.717,243.717,0,0,1,124.01,14.988L107.452,42.128c-5.406,10.57,17.78,36.417,27.4,43.378s26.966,10.617,38.811,11.416c14.12.951,40-2.22,52.428-8.125-12.4,22.762-31.375,38.128-32.133,57.794-.445.388-.873.793-1.324,1.175-21.213,17.914-53.21,26.14-77.145,12.07-8.925-5.246-16.746-13.419-27.019-14.688-5.256-.649-10.561.641-15.576,2.344-30.706,10.428-54.063,38.362-61.349,69.756C-1.012,198.012-3.99,177.486,5.915,160.15Z" transform="translate(255.684 316.846)"/><path class="n" d="M37.363,0S9.794,10.34,5.2,20.1s-9.19,31.59.574,33.313S21.282,29.868,21.282,29.868l20.1-4.021Z" transform="translate(433.844 73.157)"/><path class="n" d="M40.147,4.595S21.767,13.785,18.9,25.847s-1.15,28.718-12.636,27S-.058,21.252,14.876,0Z" transform="translate(531 122.553)"/><path class="b" d="M0,0S14.359,12.062,37.334,5.743,81.56-1.723,85.581,8.616,53.991,22.975,38.483,20.1A133.1,133.1,0,0,0,8.041,18.38Z" transform="translate(584.358 63.393)"/><path class="n" d="M33.084,7.7c2.97,7.635-15.677,11.821-31.879,12.333A108.234,108.234,0,0,0,0,1.4C16.552-1.421,29.974-.3,33.084,7.7Z" transform="translate(636.855 64.312)"/><path class="n" d="M2.344,13.491,0,8.134A23.026,23.026,0,0,1,3.378,0a44,44,0,0,0,20.96,2.308,24.949,24.949,0,0,0,10.609,11.3,33.563,33.563,0,0,0,5.784,2.418,58.529,58.529,0,0,1-7.945-.816A133.1,133.1,0,0,0,2.344,13.491Z" transform="translate(590.056 68.281)"/><path class="b" d="M3.735,12.046C11.259-7.36,33.612.025,51.981,10.9c27.261,16.134,78.1,16.927,92.186,24.19,17.159,8.848,28.185,27.1,17.867,51.756-11.3,27-22.172,27.723-22.747,40.933s6.858,19.5-4.022,23.841c-9.529,3.8-14.934-9.19-13.211-23.549a47.214,47.214,0,0,0-3.446-24.7s-49.97,2.3-72.945-18.38c0,0-10.546,4.367-10.546,12.327,0,10.178,9.4,12.945.782,20.412S16.37,106.241,15.8,97.051,28.968,67.319,18.63,54.108-7.179,40.19,3.735,12.046Z" transform="translate(445.648 26.076)"/><path class="n" d="M6.066,19.613,16.351,8.565A25.112,25.112,0,0,1,25.657,0c-4.51,8.318-9.264,15.421-7.775,24.766S26.99,46.244,27.365,55.7c.271,6.835-.7,13.766.635,20.475a35.676,35.676,0,0,0,4.542,11.367c-8.151,1.135-12.61-10.916-11.023-24.134a47.213,47.213,0,0,0-3.447-24.7A167.114,167.114,0,0,1,0,38.27,104.329,104.329,0,0,1,6.066,19.613Z" transform="translate(546.183 90.736)"/><path class="o" d="M4.646,0c6.746,2.464,13.949,3.355,21.079,4.229C42.041,6.229,58.86,8.2,74.7,3.81c-2.129,4.72-3.989,9.944-3.817,14.851,0,11.458,3.67,18.692,3.67,18.692s-49.97,2.3-72.945-18.38c0,0-.645.268-1.611.787A26.142,26.142,0,0,0,4.646,0Z" transform="translate(489.7 92.093)"/><path class="n" d="M6.656,16.675C8.9,11.857,10.565,6.5,8.71,1.618L15.993,0c1.585,6.1.488,12.583-1.322,18.619s-13.665,26.09-5.941,39.1C11.517,62.41,23,67.265,20.121,69.76,11.506,77.226.592,58.272.018,49.082-.419,42.1,7.4,28.569,6.656,16.675Z" transform="translate(461.426 74.045)"/><path class="o" d="M12.821,28.936C8.7,23.664,3.756,20.382,0,16.555Q7.826,8.579,15,0a22.635,22.635,0,0,0,1.214,13.538,15.165,15.165,0,0,0,10.089,8.7A96.981,96.981,0,0,1,15.118,51.7C17.15,43.83,17.945,35.482,12.821,28.936Z" transform="translate(451.457 51.249)"/><path class="m" d="M1.611,18.678s-.645.268-1.611.787A26.158,26.158,0,0,0,4.683,0C9.224,7.823,8.628,17.159,8.628,17.159,36.28,28.074,58.433,28.678,71.68,27.437a38.053,38.053,0,0,0,2.876,9.621S24.586,39.355,1.611,18.678Z" transform="translate(489.7 92.388)"/><path class="m" d="M14.516,5.552,13.074,22.087a37.546,37.546,0,0,1,9.7,12.937A97.8,97.8,0,0,1,15.118,51.7c2.032-7.874,2.827-16.222-2.3-22.768C8.7,23.664,3.756,20.382,0,16.555Q7.826,8.579,15,0A26.455,26.455,0,0,0,14.516,5.552Z" transform="translate(451.457 51.249)"/><path class="b" d="M60.5,46.737C53.6,65.117,41.542,80.624,20.865,83.5S.187,84.645,1.911,70.86-.962,46.162.187,35.249,19.142-2.659,33.5.212,68.969,30.265,68.969,30.265Z" transform="translate(412.435 0)"/><path class="o" d="M.187,11.416C.5,8.478,2.021,4.372,4.352,0c-1.466,5.225-.679,11.139.194,16.636L8.218,39.768a12.213,12.213,0,0,0,1.129,4.038,10.094,10.094,0,0,0,3.2,3.224c4.714,3.3,10.8,5.584,13.011,10.9.1.249.164.51.247.765a45.658,45.658,0,0,1-4.938.971C.187,62.534.187,60.812,1.911,47.027S-.962,22.328.187,11.416Z" transform="translate(412.435 23.833)"/><path class="d" d="M1.9,271.477s-15.344-64.609,41.189-95.3,109.834-22.613,122.757-42.8,20.191-127.6,31.5-131.642,13.73-2.423,19.383,20.191,59.763,151.831,11.307,195.442-107.412,32.3-127.6,46.842S84.276,303.782,43.9,298.936,1.9,271.477,1.9,271.477Z" transform="translate(315.276 100.375)"/><path class="e" d="M1.9,254.014s-15.344-64.609,41.189-95.3,109.834-22.613,122.757-42.8C175.916,100.177,182.553,31.468,190.344,0c.01,26.717-1.644,103.352-20.422,127.348-22.882,29.237-87.81,15.449-129.662,52.119C23.047,194.548,18.8,241.394,26.65,277.7,3.039,269.65,1.9,254.014,1.9,254.014Z" transform="translate(315.276 117.838)"/><path class="d" d="M9.5,72.773s1.133-12.925-2.722-20.861S-.933,27.876.2,16.765,2.015,5.2,5.19,5.881s.454,12.244,3.855,19.048c0,0-.226-17.007,3.629-22.449s6.121-.908,4.988,3.854-2.268,12.7-.454,17.234c0,0,1.135-14.286,4.762-18.367s5.9-.68,5.442,2.268-3.855,11.111-2.494,17.46c0,0,3.855-12.7,9.071-13.833s3.854,3.175,1.36,6.8-5.442,8.163-4.308,11.792S34.9,41.255,35.122,48.964s-4.308,9.751-2.948,17.46,2.041,10.432,2.041,10.432Z" transform="translate(496.748 48.008)"/><path class="l" d="M43.088,10.857A198.838,198.838,0,0,1,66.752,0c3.478,19.9,12.686,60.344,34.4,98.4-.245.162-.489.322-.723.492C80.239,113.424,84.276,138.46,43.9,133.615s-42-27.46-42-27.46S-13.445,41.547,43.088,10.857Z" transform="translate(315.276 265.697)"/><path class="m" d="M43.088,10.857C44.664,10,46.239,9.186,47.81,8.388c.3-.153.607-.311.909-.463,1.374-.687,2.743-1.346,4.111-1.991q.848-.4,1.695-.79,1.724-.793,3.441-1.544,1.3-.569,2.6-1.11c.321-.135.643-.267.964-.4Q64.152,1,66.752,0c.692,3.955,1.614,8.731,2.81,14.126a99.813,99.813,0,0,0-29.3,17.482C23.047,46.689,18.8,93.535,26.65,129.845,6.087,122.831,2.57,110.07,2,106.891l-.013-.072c-.014-.083-.027-.158-.037-.226l-.014-.1c-.008-.049-.014-.1-.019-.137l-.01-.09L1.9,106.2l0-.048S-13.445,41.547,43.088,10.857Z" transform="translate(315.276 265.697)"/><path class="n" d="M23.607.011C32.579.4,42.715,25.217,45.154,32.941S44.34,48.8,30.519,42.292-3.2,28.24.435,18.712C3.687,10.175,14.258-.395,23.607.011Z" transform="translate(420.938 0.034)"/><path class="p" d="M0,2.474A15.187,15.187,0,0,0,4.552,0c1.1.735.643,3.834-1.358,6.491A4.315,4.315,0,0,1,0,2.474Z" transform="translate(413.771 77.694)"/><ellipse class="p" cx="2.357" cy="1.592" rx="2.357" ry="1.592" transform="matrix(-0.837, -0.548, 0.548, -0.837, 426.662, 57.296)"/><path class="m" d="M0,0H0" transform="translate(226.844 604.737)"/><path class="f" d="M4.429,42.81C-3.308,33.883,0,17.765,7.37,0,23.928,10.311,38.564,14.056,49.412,15.126,31.71,49.984,16.441,56.671,4.429,42.81Z" transform="translate(0.001 1182.697)"/><path class="g" d="M3.044,40.951a16.252,16.252,0,0,1-.935-1.668c-.053-.108-.105-.217-.156-.328a18.111,18.111,0,0,1-.735-1.82c-.027-.076-.048-.156-.073-.231q-.309-.949-.535-1.95c-.01-.047-.024-.092-.034-.139-.148-.687-.261-1.4-.352-2.12-.014-.114-.029-.228-.042-.343Q.062,31.28.023,30.161c-.005-.111-.006-.225-.009-.336-.02-.779-.02-1.571.014-2.382l0-.058c.035-.831.1-1.68.19-2.541.006-.063.011-.124.018-.187.091-.847.21-1.712.349-2.589.018-.106.034-.212.052-.319q.218-1.323.5-2.684c.013-.063.028-.128.042-.191q.611-2.857,1.5-5.866l.038-.13q.442-1.495.945-3.02l.056-.167C4.769,6.54,6,3.3,7.365,0A113.191,113.191,0,0,0,23.641,8.434a192.523,192.523,0,0,0-14.1,38.881c-.054-.034-.11-.066-.165-.1-.293-.19-.586-.392-.875-.6-.133-.095-.264-.187-.4-.288-.293-.224-.584-.468-.874-.713-.126-.109-.254-.21-.381-.322-.3-.267-.593-.551-.887-.842-.073-.072-.147-.138-.219-.211s-.139-.139-.209-.211c-.375-.386-.746-.784-1.114-1.209a16.134,16.134,0,0,1-1.205-1.6C3.161,41.123,3.1,41.04,3.044,40.951Z" transform="translate(0.006 1182.697)"/><path class="m" d="M96.755,163.427l56.1-29.271s-67.586,22.9-116.27-33.336C-10.57,46.344,53.663,0,53.663,0L30.9,9.757,0,43.905v60.167L17.074,155.3Z" transform="translate(325.023 273.645)"/><path class="c" d="M29.1,28.1l22.7-26.8A3.945,3.945,0,0,1,53.026.206c2.411-1.16,4,2.837,3.293,5.417-2.3,8.408-10.538,13.456-17.259,19.006C17.742,42.23,8.378,70.078,0,96.422" transform="translate(379.519 634.432)"/></g></g></svg>